<?xml version="1.0" standalone="no"?>
<!DOCTYPE svg PUBLIC "-//W3C//DTD SVG 1.1//EN" "http://www.w3.org/Graphics/SVG/1.1/DTD/svg11.dtd" >
<svg xmlns="http://www.w3.org/2000/svg" xmlns:xlink="http://www.w3.org/1999/xlink" version="1.1">
<metadata>
Created by FontForge 20230101 at Tue Oct 10 12:57:40 2017
 By Unknown
Copyright (c) 2012 Sandoll Communications Inc. All rights reserved.
</metadata>
<defs>
<font id="DesignKB" horiz-adv-x="585" >
  <font-face 
    font-family="DesignK Bold"
    font-weight="400"
    font-stretch="normal"
    units-per-em="1000"
    panose-1="2 11 6 0 0 1 1 1 1 1"
    ascent="800"
    descent="-200"
    x-height="525"
    cap-height="727"
    bbox="-567 -200 1551 999"
    underline-thickness="50"
    underline-position="-100"
    unicode-range="U+0021-20B9"
  />
<missing-glyph horiz-adv-x="900" 
d="M98 -66q82 94 161 184t160 184q-81 94 -160 183.5t-161 183.5v-735zM802 671q-81 -94 -160 -185t-160 -185q81 -96 159.5 -185t160.5 -183v738zM449 337q82 96 161 184.5t160 184.5h-641zM450 265q-82 -96 -161.5 -185t-160.5 -185h644zM849 -148h-798v897h798v-897z" />
    <glyph glyph-name=".notdef" horiz-adv-x="900" 
d="M98 -66q82 94 161 184t160 184q-81 94 -160 183.5t-161 183.5v-735zM802 671q-81 -94 -160 -185t-160 -185q81 -96 159.5 -185t160.5 -183v738zM449 337q82 96 161 184.5t160 184.5h-641zM450 265q-82 -96 -161.5 -185t-160.5 -185h644zM849 -148h-798v897h798v-897z" />
    <glyph glyph-name=".null" horiz-adv-x="0" 
 />
    <glyph glyph-name="nonmarkingreturn" horiz-adv-x="333" 
 />
    <glyph glyph-name="space" horiz-adv-x="280" 
 />
    <glyph glyph-name="space" unicode="&#xa0;" horiz-adv-x="280" 
 />
    <glyph glyph-name="space" unicode=" " horiz-adv-x="280" 
 />
    <glyph glyph-name="space" horiz-adv-x="280" 
 />
    <glyph glyph-name="space" horiz-adv-x="280" 
 />
    <glyph glyph-name="space" horiz-adv-x="280" 
 />
    <glyph glyph-name="space" horiz-adv-x="280" 
 />
    <glyph glyph-name="space" horiz-adv-x="280" 
 />
    <glyph glyph-name="space" horiz-adv-x="280" 
 />
    <glyph glyph-name="space" horiz-adv-x="280" 
 />
    <glyph glyph-name="space" horiz-adv-x="280" 
 />
    <glyph glyph-name="space" horiz-adv-x="280" 
 />
    <glyph glyph-name="space" horiz-adv-x="280" 
 />
    <glyph glyph-name="space" horiz-adv-x="280" 
 />
    <glyph glyph-name="space" horiz-adv-x="280" 
 />
    <glyph glyph-name="space" horiz-adv-x="280" 
 />
    <glyph glyph-name="space" horiz-adv-x="280" 
 />
    <glyph glyph-name="space" horiz-adv-x="280" 
 />
    <glyph glyph-name="space" horiz-adv-x="280" 
 />
    <glyph glyph-name="space" horiz-adv-x="280" 
 />
    <glyph glyph-name="space" horiz-adv-x="280" 
 />
    <glyph glyph-name="space" unicode="&#xd;" horiz-adv-x="280" 
 />
    <glyph glyph-name="space" horiz-adv-x="280" 
 />
    <glyph glyph-name="space" horiz-adv-x="280" 
 />
    <glyph glyph-name="space" unicode="&#xa;" horiz-adv-x="280" 
 />
    <glyph glyph-name="space" unicode="&#x9;" horiz-adv-x="280" 
 />
    <glyph glyph-name="space" horiz-adv-x="280" 
 />
    <glyph glyph-name="space" horiz-adv-x="280" 
 />
    <glyph glyph-name="space" horiz-adv-x="280" 
 />
    <glyph glyph-name="space" horiz-adv-x="280" 
 />
    <glyph glyph-name="space" horiz-adv-x="280" 
 />
    <glyph glyph-name="space" horiz-adv-x="280" 
 />
    <glyph glyph-name="space" horiz-adv-x="280" 
 />
    <glyph glyph-name="space" horiz-adv-x="280" 
 />
    <glyph glyph-name="space" unicode="&#xa0;" horiz-adv-x="280" 
 />
    <glyph glyph-name="space" unicode=" " horiz-adv-x="280" 
 />
    <glyph glyph-name="space" horiz-adv-x="280" 
 />
    <glyph glyph-name="space" horiz-adv-x="280" 
 />
    <glyph glyph-name="space" horiz-adv-x="280" 
 />
    <glyph glyph-name="space" horiz-adv-x="280" 
 />
    <glyph glyph-name="space" horiz-adv-x="280" 
 />
    <glyph glyph-name="space" horiz-adv-x="280" 
 />
    <glyph glyph-name="space" horiz-adv-x="280" 
 />
    <glyph glyph-name="space" horiz-adv-x="280" 
 />
    <glyph glyph-name="space" horiz-adv-x="280" 
 />
    <glyph glyph-name="space" horiz-adv-x="280" 
 />
    <glyph glyph-name="space" horiz-adv-x="280" 
 />
    <glyph glyph-name="space" horiz-adv-x="280" 
 />
    <glyph glyph-name="space" horiz-adv-x="280" 
 />
    <glyph glyph-name="space" horiz-adv-x="280" 
 />
    <glyph glyph-name="space" horiz-adv-x="280" 
 />
    <glyph glyph-name="space" horiz-adv-x="280" 
 />
    <glyph glyph-name="space" horiz-adv-x="280" 
 />
    <glyph glyph-name="space" horiz-adv-x="280" 
 />
    <glyph glyph-name="space" unicode="&#xd;" horiz-adv-x="280" 
 />
    <glyph glyph-name="space" horiz-adv-x="280" 
 />
    <glyph glyph-name="space" horiz-adv-x="280" 
 />
    <glyph glyph-name="space" unicode="&#xa;" horiz-adv-x="280" 
 />
    <glyph glyph-name="space" unicode="&#x9;" horiz-adv-x="280" 
 />
    <glyph glyph-name="space" horiz-adv-x="280" 
 />
    <glyph glyph-name="space" horiz-adv-x="280" 
 />
    <glyph glyph-name="space" horiz-adv-x="280" 
 />
    <glyph glyph-name="space" horiz-adv-x="280" 
 />
    <glyph glyph-name="space" horiz-adv-x="280" 
 />
    <glyph glyph-name="space" horiz-adv-x="280" 
 />
    <glyph glyph-name="space" horiz-adv-x="280" 
 />
    <glyph glyph-name="space" horiz-adv-x="280" 
 />
    <glyph glyph-name="exclam" unicode="!" horiz-adv-x="289" 
d="M78 727h124v-522h-115zM76 137h136v-137h-136v137z" />
    <glyph glyph-name="quotedbl" unicode="&#x22;" horiz-adv-x="372" 
d="M47 727h121v-235h-121v235zM204 727h121v-235h-121v235z" />
    <glyph glyph-name="numbersign" unicode="#" horiz-adv-x="610" 
d="M52 529h119l31 190h120l-31 -190h83l32 190h119l-31 -190h96v-112h-114l-17 -100h101v-113h-119l-32 -199h-120l33 199h-84l-32 -199h-120l32 199h-96v113h114l17 100h-101v112zM257 317h83l18 100h-85z" />
    <glyph glyph-name="dollar" unicode="$" horiz-adv-x="580" 
d="M247 13q-45 4 -96.5 13t-98.5 24v104q54 -10 103.5 -17t91.5 -10v189q-49 13 -87.5 29t-65.5 39t-41 54.5t-14 75.5q0 88 50 136t158 56v74h92v-74q42 -3 86 -12t87 -23v-104q-54 12 -96 18.5t-77 8.5v-180q50 -14 88.5 -30t65 -37.5t40.5 -51t14 -71.5
q0 -96 -55.5 -148.5t-152.5 -61.5v-88h-92v87zM421 222q0 29 -21.5 44.5t-60.5 26.5v-163q82 15 82 92zM165 516q0 -34 20.5 -50t61.5 -28v155q-82 -12 -82 -77z" />
    <glyph glyph-name="percent" unicode="%" horiz-adv-x="883" 
d="M204 328q-81 0 -127.5 51t-46.5 147q0 46 12.5 83.5t35 64.5t54.5 41.5t72 14.5t72 -14.5t54 -41.5t34 -64.5t12 -83.5q0 -93 -45.5 -145.5t-126.5 -52.5zM628 739h99l-483 -755h-100zM204 436q26 0 36 22.5t10 70.5t-10 69.5t-36 21.5t-36 -21.5t-10 -69.5t10 -70.5
t36 -22.5zM667 -4q-81 0 -127.5 51.5t-46.5 147.5q0 46 12 83.5t34.5 64.5t54.5 41.5t73 14.5q40 0 72 -14.5t54.5 -41.5t34.5 -64.5t12 -83.5q0 -93 -46 -146t-127 -53zM667 105q26 0 35.5 22.5t9.5 70.5t-10 69.5t-35 21.5q-26 0 -36 -21.5t-10 -69.5t9.5 -70.5
t36.5 -22.5z" />
    <glyph glyph-name="ampersand" unicode="&#x26;" horiz-adv-x="663" 
d="M288 -12q-121 0 -190 56t-69 164q0 39 10.5 69.5t29 55t44 44.5t54.5 37q-26 34 -39.5 67.5t-13.5 71.5q0 48 15 82t41.5 55.5t62.5 32t78 10.5q85 0 134.5 -43t49.5 -124q0 -71 -37.5 -118t-92.5 -78q28 -34 53.5 -63.5t54.5 -65.5q8 27 14 62t8 69h106
q0 -67 -13.5 -125.5t-38.5 -103.5q29 -32 61.5 -71.5t58.5 -71.5h-158l-42 49q-38 -30 -85.5 -45.5t-95.5 -15.5zM287 101q32 0 61 7t52 24q-42 48 -78.5 95.5t-78.5 95.5q-35 -20 -57.5 -45.5t-22.5 -59.5q0 -52 30.5 -84.5t93.5 -32.5zM245 559q0 -26 10.5 -48t27.5 -42
l5 -5q15 8 29 18t25.5 23t18.5 28t7 33q0 29 -14 45.5t-43 16.5q-33 0 -49.5 -18t-16.5 -51z" />
    <glyph glyph-name="quotesingle" unicode="'" horiz-adv-x="209" 
d="M39 727h130v-235h-130v235z" />
    <glyph glyph-name="parenleft" unicode="(" horiz-adv-x="350" 
d="M27 372q0 68 15 129t40.5 114.5t59 99t71.5 82.5h127q-38 -43 -71.5 -92.5t-59 -103.5t-40 -110t-14.5 -112v-50q0 -56 14.5 -112t40 -110t59 -103.5t71.5 -92.5h-127q-38 37 -71.5 82.5t-59 99t-40.5 114.5t-15 129v36z" />
    <glyph glyph-name="parenright" unicode=")" horiz-adv-x="350" 
d="M323 336q0 -68 -15 -129t-40.5 -114.5t-59.5 -99t-71 -82.5h-127q38 43 71.5 92.5t59 103.5t40 110t14.5 112v50q0 56 -14.5 112t-40 110t-59 103.5t-71.5 92.5h127q37 -37 71 -82.5t59.5 -99t40.5 -114.5t15 -129v-36z" />
    <glyph glyph-name="asterisk" unicode="*" horiz-adv-x="389" 
d="M154 567l-79 -64l-52 93l94 34l-94 36l54 90l78 -64l-13 105h105l-13 -105l79 65l52 -92l-94 -35l94 -34l-52 -94l-79 66l13 -103h-105z" />
    <glyph glyph-name="plus" unicode="+" horiz-adv-x="530" 
d="M206 313h-160v111h160v167h118v-167h159v-111h-159v-168h-118v168z" />
    <glyph glyph-name="comma" unicode="," horiz-adv-x="300" 
d="M73 136h149l-93 -245h-118z" />
    <glyph glyph-name="hyphen" unicode="-" horiz-adv-x="530" 
d="M65 316h399v-112h-399v112z" />
    <glyph glyph-name="period" unicode="." horiz-adv-x="260" 
d="M65 136h132v-136h-132v136z" />
    <glyph glyph-name="slash" unicode="/" horiz-adv-x="400" 
d="M249 786h134l-240 -865h-131z" />
    <glyph glyph-name="zero" unicode="0" horiz-adv-x="600" 
d="M299 -11q-62 0 -110 21.5t-81.5 66.5t-51 114.5t-17.5 166.5q0 193 68.5 284.5t191.5 91.5t192 -91.5t69 -284.5q0 -96 -17.5 -166t-51.5 -115t-82.5 -66.5t-109.5 -21.5zM299 101q70 0 96.5 63.5t26.5 193.5q0 63 -6 112.5t-20.5 83t-38 51t-58.5 17.5t-58.5 -17.5
t-37.5 -51t-20 -83t-6 -112.5q0 -130 26 -193.5t96 -63.5z" />
    <glyph glyph-name="one" unicode="1" horiz-adv-x="600" 
d="M266 590l-108 -17v105l244 59v-737h-136v590z" />
    <glyph glyph-name="two" unicode="2" horiz-adv-x="600" 
d="M75 102l164 161q68 67 103 130.5t35 120.5q0 54 -27 80t-96 26q-36 0 -78 -8t-95 -25v109q40 16 91.5 27t95.5 11q125 0 186 -52t61 -161q0 -44 -11.5 -84t-34.5 -80.5t-56.5 -81.5t-77.5 -86l-74 -76h284l-45 -113h-425v102z" />
    <glyph glyph-name="three" unicode="3" horiz-adv-x="600" 
d="M511 544q0 -55 -25 -92.5t-67 -60.5q54 -19 86 -61.5t32 -121.5q0 -57 -17.5 -98.5t-49.5 -68t-78 -39.5t-104 -13q-57 0 -114 10t-111 27v109q38 -9 67 -14.5t53.5 -9t46.5 -4.5t46 -1q66 0 93.5 25.5t29.5 76.5q0 34 -12.5 56t-35.5 34t-54.5 16.5t-69.5 4.5h-53v116
h53q25 0 51 4.5t47 16t34.5 32.5t13.5 54q0 36 -21.5 56.5t-75.5 20.5q-49 0 -93 -7.5t-96 -24.5v108q20 9 45 16t50.5 12.5t50 8t43.5 2.5q120 0 177.5 -45t57.5 -145z" />
    <glyph glyph-name="four" unicode="4" horiz-adv-x="600" 
d="M342 142h-322v103l303 482h147v-471h130l-43 -114h-87v-142h-128v142zM342 256v280l-173 -280h173z" />
    <glyph glyph-name="five" unicode="5" horiz-adv-x="600" 
d="M393 226q0 37 -8 61t-26 38t-47 19.5t-71 5.5q-35 0 -74.5 -3t-76.5 -8l25 388h414l-45 -115h-248l-11 -150q14 2 26.5 2.5t29.5 0.5q125 0 189 -57.5t64 -181.5q0 -115 -61 -176t-181 -61q-57 0 -113.5 9.5t-113.5 26.5v110q63 -16 113.5 -22.5t101.5 -6.5q63 0 88 32.5
t25 87.5z" />
    <glyph glyph-name="six" unicode="6" horiz-adv-x="600" 
d="M309 101q65 0 89.5 35.5t24.5 105.5q0 73 -27 101t-88 28q-32 0 -67.5 -6t-63.5 -15q0 -56 3 -102t16.5 -78.5t39.5 -50.5t73 -18zM336 620q-30 0 -56.5 -6.5t-47 -24.5t-34.5 -49t-18 -79q42 13 81 19t72 6q112 0 170 -61t58 -173q0 -59 -15 -107.5t-46 -83t-78.5 -53.5
t-111.5 -19q-74 0 -125.5 23.5t-84 68.5t-47.5 109.5t-15 146.5q0 126 23 203.5t61 120.5t87 58t101 15q48 0 98.5 -8.5t104.5 -25.5v-106q-51 13 -95 19.5t-82 6.5z" />
    <glyph glyph-name="seven" unicode="7" horiz-adv-x="600" 
d="M386 611h-324v116h476v-99l-295 -628h-145z" />
    <glyph glyph-name="eight" unicode="8" horiz-adv-x="600" 
d="M297 -13q-68 0 -118.5 15.5t-84.5 43.5t-50.5 66.5t-16.5 85.5q0 33 10 60t26.5 49t38 39t45.5 30q-43 28 -72 68t-29 97q0 88 64.5 141.5t185.5 53.5q60 0 106.5 -14t78.5 -39.5t49 -61.5t17 -80q0 -54 -29 -94.5t-74 -69.5q26 -12 49.5 -29t41 -39t28 -49.5t10.5 -61.5
q0 -45 -17.5 -84t-52 -67t-86.5 -44t-120 -16zM297 99q69 0 103.5 27t34.5 72q0 49 -39 81.5t-99 43.5q-61 -11 -99 -44t-38 -81q0 -45 35.5 -72t101.5 -27zM185 541q0 -44 26.5 -69t85.5 -45q57 20 85.5 44.5t28.5 69.5q0 39 -29 61.5t-86 22.5q-55 0 -83 -22.5t-28 -61.5z
" />
    <glyph glyph-name="nine" unicode="9" horiz-adv-x="600" 
d="M290 621q-65 0 -89.5 -35t-24.5 -105q0 -73 27 -101.5t88 -28.5q32 0 67.5 6.5t63.5 14.5q0 56 -3 102t-16.5 78.5t-40 50.5t-72.5 18zM264 102q30 0 56.5 7t46.5 25t33.5 49t18.5 79q-40 -13 -80 -18.5t-73 -5.5q-112 0 -170 60.5t-58 172.5q0 59 15 107.5t46 83
t78.5 53.5t112.5 19q73 0 124.5 -23.5t84 -68.5t47.5 -109.5t15 -145.5q0 -126 -23 -204t-61 -121t-87 -58t-100 -15q-48 0 -103.5 9.5t-107.5 26.5v107q51 -14 99 -22t86 -8z" />
    <glyph glyph-name="colon" unicode=":" horiz-adv-x="267" 
d="M65 525h132v-137h-132v137zM65 136h132v-136h-132v136z" />
    <glyph glyph-name="semicolon" unicode=";" horiz-adv-x="267" 
d="M67 525h133v-137h-133v137zM68 136h149l-93 -245h-118z" />
    <glyph glyph-name="less" unicode="&#x3c;" horiz-adv-x="530" 
d="M67 325v88l392 254v-130l-255 -169l255 -168v-131z" />
    <glyph glyph-name="equal" unicode="=" horiz-adv-x="530" 
d="M48 520h434v-111h-434v111zM48 330h434v-112h-434v112z" />
    <glyph glyph-name="greater" unicode="&#x3e;" horiz-adv-x="530" 
d="M71 69v131l255 168l-255 169v130l392 -254v-88z" />
    <glyph glyph-name="question" unicode="?" horiz-adv-x="470" 
d="M131 137h136v-137h-136v137zM139 250q0 30 7 52t20.5 41t33.5 37t46 40q25 19 40 47.5t15 70.5q0 51 -23 76t-77 25q-35 0 -80 -8t-96 -22v106q114 39 196 39q44 0 82.5 -11t67 -34.5t45 -59t16.5 -84.5q-1 -69 -25.5 -127t-81.5 -106q-29 -24 -46.5 -44.5t-17.5 -47.5
v-35h-122v45z" />
    <glyph glyph-name="at" unicode="@" horiz-adv-x="912" 
d="M767 290q0 61 -17.5 113t-52 89.5t-85 59t-117.5 21.5q-82 0 -146.5 -28t-109.5 -79t-68.5 -121t-23.5 -154q0 -76 22 -132.5t63 -94t98 -56.5t128 -19q33 0 66.5 5t65.5 12.5t61 17.5t53 19v-83q-26 -11 -57.5 -20.5t-64.5 -16.5t-65 -11t-60 -4q-97 0 -173 26t-128 75
t-79.5 120t-27.5 161q0 88 28.5 172.5t84.5 149.5t140 105t194 40q84 0 152 -27t116 -75.5t73.5 -114.5t25.5 -144q0 -74 -16.5 -131.5t-47.5 -97.5t-75.5 -61t-100.5 -21q-38 0 -65 12.5t-42 30.5q-24 -17 -55 -30t-64 -13q-76 0 -117.5 50t-41.5 135q0 67 16 122t45.5 94
t72 60t96.5 21q24 0 48.5 -6.5t44.5 -17.5l3 15h126l-64 -348q-1 -3 -1 -9q0 -24 25 -24q54 0 85.5 56.5t31.5 156.5zM418 97q21 0 44 8.5t38 22.5l39 210q-32 15 -69 15q-26 0 -44.5 -14t-30 -38.5t-17 -57.5t-5.5 -72q0 -32 11.5 -53t33.5 -21z" />
    <glyph glyph-name="A" unicode="A" horiz-adv-x="651" 
d="M451 175h-251l-55 -175h-139l236 727h169l235 -727h-140zM237 290h177l-88 290z" />
    <glyph glyph-name="B" unicode="B" horiz-adv-x="643" 
d="M337 727q63 0 107.5 -12.5t72.5 -38t40.5 -64.5t12.5 -93q0 -49 -14.5 -83t-43.5 -58q37 -20 57.5 -58t20.5 -108q0 -58 -16.5 -98t-48 -65.5t-76.5 -37t-101 -11.5h-282v727h271zM334 424q54 0 76.5 24.5t22.5 69.5q0 51 -25.5 72.5t-73.5 21.5h-135v-188h135zM354 115
q54 0 76.5 26t22.5 71q0 52 -26.5 74.5t-72.5 22.5h-155v-194h155z" />
    <glyph glyph-name="C" unicode="C" horiz-adv-x="581" 
d="M546 26q-57 -17 -112.5 -27t-107.5 -10q-78 0 -133 28t-89.5 78t-50 118.5t-15.5 149.5q0 85 15.5 154t50 117t89.5 74t133 26q58 0 109 -8.5t111 -27.5v-105q-32 7 -58 12t-50 8t-47 4t-49 1q-88 0 -126 -67t-38 -188q0 -58 9 -105.5t29 -81.5t51.5 -52.5t75.5 -18.5
q24 0 46.5 1.5t46.5 4.5t50.5 8.5t59.5 13.5v-107z" />
    <glyph glyph-name="D" unicode="D" horiz-adv-x="673" 
d="M67 0v727h263q87 0 143 -24.5t89 -70.5t45.5 -110.5t12.5 -145.5q0 -83 -12 -152t-44 -119t-88.5 -77.5t-145.5 -27.5h-263zM482 376q0 52 -6 95.5t-23 74.5t-49 48t-83 17h-116v-495h116q51 0 83 20.5t49 56t23 82.5t6 101z" />
    <glyph glyph-name="E" unicode="E" horiz-adv-x="601" 
d="M63 727h491v-116h-353v-186h341l-45 -116h-296v-193h353v-116h-491v727z" />
    <glyph glyph-name="F" unicode="F" horiz-adv-x="572" 
d="M63 727h472v-116h-334v-186h312l-45 -116h-267v-309h-138v727z" />
    <glyph glyph-name="G" unicode="G" horiz-adv-x="682" 
d="M613 416v-416h-137v28q-35 -17 -72.5 -28t-73.5 -11q-80 0 -135 28t-89.5 78t-50 119t-15.5 150q0 85 15.5 153.5t50 116.5t89.5 74t135 26q57 0 115.5 -8t121.5 -28v-110q-61 17 -115 23.5t-108 6.5q-85 0 -124 -64.5t-39 -189.5q0 -123 38.5 -191t123.5 -68
q12 0 27.5 2t33.5 5.5t36.5 8.5t35.5 11v167h-177v117h314z" />
    <glyph glyph-name="H" unicode="H" horiz-adv-x="686" 
d="M482 310h-279v-310h-138v727h138v-301h279v301h138v-727h-138v310z" />
    <glyph glyph-name="I" unicode="I" horiz-adv-x="242" 
d="M52 727h138v-727h-138v727z" />
    <glyph glyph-name="J" unicode="J" horiz-adv-x="395" 
d="M332 727v-568q0 -37 -9 -67.5t-29 -52.5t-52 -34t-79 -12q-15 0 -35.5 1.5t-41.5 4.5t-41.5 7.5t-36.5 9.5v104q35 -6 69 -9.5t60 -3.5q32 0 44.5 14t12.5 52v554h138z" />
    <glyph glyph-name="K" unicode="K" horiz-adv-x="645" 
d="M55 727h138v-272l270 272h164l-354 -360l357 -367h-166l-271 279v-279h-138v727z" />
    <glyph glyph-name="L" unicode="L" horiz-adv-x="540" 
d="M59 0v727h138v-611h330l-45 -116h-423z" />
    <glyph glyph-name="M" unicode="M" horiz-adv-x="851" 
d="M426 137l148 590h212v-727h-128v577l-143 -550h-179l-143 550v-577h-128v727h212z" />
    <glyph glyph-name="N" unicode="N" horiz-adv-x="702" 
d="M66 727h189l248 -579v579h133v-727h-189l-248 579v-579h-133v727z" />
    <glyph glyph-name="O" unicode="O" horiz-adv-x="687" 
d="M343 105q86 0 121 63t35 190q0 125 -35 192.5t-121 67.5t-121 -67t-35 -193q0 -127 35 -190t121 -63zM343 -11q-83 0 -139 24t-90.5 71t-49.5 115.5t-15 158.5t15 160t49.5 118t90.5 73t139 25q82 0 138.5 -25t91 -73t49.5 -118t15 -160t-15 -158.5t-49.5 -115.5t-91 -71
t-138.5 -24z" />
    <glyph glyph-name="P" unicode="P" horiz-adv-x="642" 
d="M207 226v-226h-138v727h279q126 0 185 -59.5t59 -189.5q0 -129 -59 -190.5t-185 -61.5h-141zM337 342q60 0 88.5 36t28.5 100q0 67 -28.5 100t-88.5 33h-130v-269h130z" />
    <glyph glyph-name="Q" unicode="Q" horiz-adv-x="687" 
d="M343 -11q-83 0 -139 24t-90 71t-49 115.5t-15 158.5t15 160t49 118t90 73t139 25q82 0 138.5 -25t90.5 -73t49 -118t15 -160q0 -133 -33.5 -220.5t-114.5 -122.5l124 -154h-164l-102 128h-3v0zM343 105q86 0 121 63t35 190q0 125 -35 192.5t-121 67.5t-121 -67t-35 -193
q0 -127 35 -190t121 -63z" />
    <glyph glyph-name="R" unicode="R" horiz-adv-x="653" 
d="M331 254h-126v-254h-137v727h278q62 0 108.5 -12.5t77 -40.5t45.5 -73t15 -109q0 -91 -29 -143t-90 -75l153 -274h-155zM337 370q60 0 88.5 29t28.5 93q0 66 -28.5 92.5t-88.5 26.5h-132v-241h132z" />
    <glyph glyph-name="S" unicode="S" horiz-adv-x="570" 
d="M497 595q-56 15 -106 20.5t-94 5.5q-25 0 -48 -3t-41 -12.5t-28.5 -26t-10.5 -43.5q0 -25 8 -41t25 -27t44.5 -19.5t66.5 -18.5q54 -14 95 -31t68.5 -41t42 -58.5t14.5 -82.5q0 -112 -65.5 -170t-181.5 -58q-54 0 -115 9.5t-119 27.5v104q65 -13 118.5 -20.5t105.5 -7.5
q66 0 96.5 28t30.5 85q0 21 -9 35.5t-26.5 25t-44 19t-61.5 17.5q-54 13 -95.5 31t-70 44.5t-43.5 62.5t-15 85q0 94 59 146.5t190 52.5q47 0 101 -8t109 -26v-105z" />
    <glyph glyph-name="T" unicode="T" horiz-adv-x="647" 
d="M24 727h608l-45 -116h-202v-611h-138v611h-223v116z" />
    <glyph glyph-name="U" unicode="U" horiz-adv-x="676" 
d="M203 232q0 -69 36.5 -97t96.5 -28q63 0 99 28t36 97v495h140v-496q0 -66 -18 -112t-53.5 -75t-86.5 -42t-117 -13t-116.5 13t-85 42t-52 75t-17.5 112v496h138v-495z" />
    <glyph glyph-name="V" unicode="V" horiz-adv-x="659" 
d="M650 727l-230 -727h-180l-231 727h140l181 -591l180 591h140z" />
    <glyph glyph-name="W" unicode="W" horiz-adv-x="932" 
d="M554 727l124 -595l107 595h137l-149 -727h-186l-121 553l-122 -553h-186l-148 727h137l106 -595l125 595h176z" />
    <glyph glyph-name="X" unicode="X" horiz-adv-x="640" 
d="M241 363l-234 364h159l154 -241l156 241h157l-234 -363l234 -364h-158l-155 240l-155 -240h-158z" />
    <glyph glyph-name="Y" unicode="Y" horiz-adv-x="642" 
d="M391 0h-139v318l-255 409h152l172 -281l172 281h152l-254 -410v-317z" />
    <glyph glyph-name="Z" unicode="Z" horiz-adv-x="596" 
d="M50 727h493v-103l-334 -508h352l-44 -116h-467v105l328 506h-328v116z" />
    <glyph glyph-name="bracketleft" unicode="[" horiz-adv-x="339" 
d="M305 674h-132v-642h132v-114h-260v870h260v-114z" />
    <glyph glyph-name="backslash" unicode="\" horiz-adv-x="400" 
d="M383 -79h-131l-240 865h134z" />
    <glyph glyph-name="bracketright" unicode="]" horiz-adv-x="339" 
d="M35 788h260v-870h-260v114h132v642h-132v114z" />
    <glyph glyph-name="asciicircum" unicode="^" horiz-adv-x="567" 
d="M283 585l-116 -213h-137l189 355h122l195 -355h-137z" />
    <glyph glyph-name="underscore" unicode="_" horiz-adv-x="547" 
d="M507 -50v-108h-468v108h468z" />
    <glyph glyph-name="grave" unicode="`" horiz-adv-x="258" 
d="M221 492h-114l-69 235h146z" />
    <glyph glyph-name="a" unicode="a" horiz-adv-x="559" 
d="M368 29q-35 -17 -77 -27.5t-82 -10.5q-75 0 -121 44t-46 125q0 47 16 82t53.5 58t99 35t153.5 14v15q0 18 -10.5 29t-28.5 17t-43 8t-53 2q-31 0 -68.5 -5t-75.5 -13v106q48 13 97.5 18t94.5 5q47 0 87.5 -10t70 -31t46.5 -52.5t17 -74.5v-363h-130v29zM249 97
q27 0 58 11t57 26v112q-47 -1 -81.5 -4t-57.5 -11.5t-34.5 -24t-11.5 -40.5q0 -69 70 -69z" />
    <glyph glyph-name="b" unicode="b" horiz-adv-x="574" 
d="M312 530q63 0 105 -20t68 -55.5t37 -85.5t11 -110q0 -61 -10.5 -110.5t-35 -84.5t-66.5 -54t-105 -19q-31 0 -63 10.5t-55 26.5v-28h-134v712l134 40v-240q32 9 58.5 13.5t55.5 4.5zM198 134q24 -14 52.5 -23t51.5 -9q29 0 47.5 11.5t28.5 32.5t13.5 50t3.5 63
q0 32 -3.5 61t-14 50.5t-28.5 34.5t-47 13q-24 0 -49 -4.5t-55 -13.5v-266z" />
    <glyph glyph-name="c" unicode="c" horiz-adv-x="477" 
d="M266 531q42 0 86.5 -7t86.5 -24v-105q-48 14 -86 18.5t-62 4.5q-36 0 -58 -10.5t-35 -31t-17.5 -49t-4.5 -64.5q0 -39 4.5 -68.5t17.5 -50t35.5 -30.5t58.5 -10q31 0 66 4.5t89 19.5v-105q-48 -18 -93 -25t-90 -7q-61 0 -104 19.5t-70 55t-39.5 85.5t-12.5 112
q0 60 12.5 109.5t40 84.5t70.5 54.5t105 19.5z" />
    <glyph glyph-name="d" unicode="d" horiz-adv-x="574" 
d="M263 530q29 0 56 -5t59 -13v200l133 40v-752h-133v28q-24 -15 -58.5 -25.5t-66.5 -10.5q-59 0 -99 19t-65 54t-35.5 84t-10.5 110q0 60 11 110t36.5 85.5t68 55.5t104.5 20zM378 399q-28 8 -56 13.5t-48 5.5q-29 0 -47 -13t-28.5 -34.5t-14 -50.5t-3.5 -61
q0 -34 3.5 -62.5t13.5 -49.5t28.5 -32.5t47.5 -11.5q23 0 53.5 9t50.5 22v265z" />
    <glyph glyph-name="e" unicode="e" horiz-adv-x="559" 
d="M287 102q49 0 97 7t113 25v-104q-58 -20 -112.5 -29.5t-105.5 -9.5q-65 0 -110 16t-73.5 49t-41.5 83t-13 118q0 147 59.5 210.5t182.5 63.5q120 0 176.5 -60t56.5 -198q0 -16 -1 -35.5t-3 -38.5h-335q5 -49 29 -73t81 -24zM385 307q-3 57 -24.5 85.5t-77.5 28.5
q-29 0 -48.5 -7t-31.5 -21.5t-18 -36t-9 -49.5h209z" />
    <glyph glyph-name="f" unicode="f" horiz-adv-x="420" 
d="M405 626q-13 4 -29 7.5t-32 6t-30.5 4t-25.5 1.5q-32 0 -40 -14t-8 -45v-61h148v-114h-148v-411h-134v411h-94v114h94v59q0 38 10 69t30.5 53.5t52.5 35t76 12.5q34 0 68 -5.5t62 -17.5v-105z" />
    <glyph glyph-name="g" unicode="g" horiz-adv-x="571" 
d="M372 393q-23 11 -50 18t-56 7t-46 -9.5t-26.5 -27.5t-12.5 -44.5t-3 -59.5q0 -32 3 -60.5t12.5 -49.5t26.5 -33.5t45 -12.5q26 0 53 5.5t54 13.5v253zM259 12q-63 0 -105 19t-67.5 53.5t-36 83.5t-10.5 109t10.5 107.5t35.5 79.5t66 49t103 17q29 0 60.5 -7.5t56.5 -18.5
v21h134v-550q0 -44 -16.5 -75.5t-46.5 -52.5t-70.5 -31t-88.5 -10q-42 0 -89 6t-98 18v104q19 -4 39.5 -7.5t39 -5.5t35 -3.5t27.5 -1.5q33 0 58 2.5t42 10.5t25.5 23t8.5 40v39q-29 -11 -56.5 -15t-56.5 -4z" />
    <glyph glyph-name="h" unicode="h" horiz-adv-x="586" 
d="M64 0v712l134 40v-257q42 17 78.5 26t80.5 9q42 0 73.5 -13t52 -35.5t30.5 -53.5t10 -67v-361h-134v361q0 31 -16 44.5t-48 13.5q-18 0 -52.5 -10t-74.5 -25v-384h-134z" />
    <glyph glyph-name="i" unicode="i" horiz-adv-x="240" 
d="M53 525h134v-525h-134v525zM53 727h134v-127h-134v127z" />
    <glyph glyph-name="j" unicode="j" horiz-adv-x="230" 
d="M182 525v-543q0 -35 -10 -66.5t-29.5 -55.5t-48 -38.5t-64.5 -14.5q-69 0 -130 16v105q27 -6 52 -10.5t41 -4.5q30 0 42.5 10.5t12.5 38.5v563h134zM48 727h134v-127h-134v127z" />
    <glyph glyph-name="k" unicode="k" horiz-adv-x="531" 
d="M51 0v712l134 40v-413l189 186h159l-257 -257l262 -268h-161l-192 189v-189h-134z" />
    <glyph glyph-name="l" unicode="l" horiz-adv-x="240" 
d="M53 712l134 40v-752h-134v712z" />
    <glyph glyph-name="m" unicode="m" horiz-adv-x="924" 
d="M65 0v495l133 40v-37q40 17 79.5 25t84.5 8q42 0 73.5 -13t51.5 -36h1q54 23 103 36t102 13q42 0 73.5 -13t52 -35.5t30.5 -53.5t10 -67v-362h-134v362q0 31 -16.5 44.5t-48.5 13.5q-11 0 -26.5 -3t-33.5 -8t-37 -11.5t-36 -14.5q1 -5 1 -10.5v-10.5v-362h-133v362
q0 31 -17 44.5t-49 13.5q-20 0 -54 -8t-77 -23v-389h-133z" />
    <glyph glyph-name="n" unicode="n" 
d="M59 0v494l135 40v-42q41 20 82 29.5t88 9.5q42 0 73 -12.5t50.5 -35t29 -53.5t9.5 -67v-363h-133v363q0 31 -15 44t-46 13q-46 0 -138 -37v-383h-135z" />
    <glyph glyph-name="o" unicode="o" horiz-adv-x="569" 
d="M284 -9q-65 0 -111.5 19t-75.5 54.5t-42.5 84.5t-13.5 109q0 63 13.5 114t42.5 86t75 54t112 19t112 -19t75 -54t42 -86t13 -114q0 -61 -13 -110.5t-42 -84t-75 -53.5t-112 -19zM284 421q-55 0 -80 -37.5t-25 -125.5q0 -86 25 -121.5t80 -35.5q51 0 77.5 35.5t26.5 121.5
q0 88 -26.5 125.5t-77.5 37.5z" />
    <glyph glyph-name="p" unicode="p" horiz-adv-x="573" 
d="M312 -9q-27 0 -54.5 4t-59.5 14v-165l-134 -40v691l134 40v-31q28 12 56.5 19.5t57.5 7.5q63 0 105 -18.5t68 -53t37 -83t11 -108.5t-11 -111t-37 -87.5t-68 -57.5t-105 -21zM198 116q31 -9 55.5 -12t47.5 -3q28 0 46.5 14t29 37t14.5 53t4 63t-3.5 61t-13.5 48
t-28.5 31.5t-47.5 11.5q-26 0 -52.5 -7t-51.5 -18v-279z" />
    <glyph glyph-name="q" unicode="q" horiz-adv-x="573" 
d="M261 -9q-63 0 -105 21t-68 57.5t-37 87.5t-11 111t11 108.5t36.5 83t66.5 53t102 18.5q35 0 64.5 -8t54.5 -19v21h133v-681l-133 -40v205q-32 -9 -60 -13.5t-54 -4.5zM375 395q-51 25 -104 25q-29 0 -47.5 -11.5t-28.5 -31.5t-13.5 -48t-3.5 -61t4 -63t14.5 -53t28.5 -37
t47 -14h6q23 0 48.5 3t48.5 11v280z" />
    <glyph glyph-name="r" unicode="r" horiz-adv-x="421" 
d="M57 0v495l134 40v-32q33 12 67 18.5t71 6.5q14 0 30 -0.5t36 -2.5v-116q-11 1 -20 1.5t-17 0.5h-29q-38 0 -70.5 -6t-67.5 -14v-391h-134z" />
    <glyph glyph-name="s" unicode="s" horiz-adv-x="500" 
d="M434 399q-56 12 -105.5 18.5t-93.5 6.5q-73 0 -73 -41q0 -24 23.5 -36t77.5 -23q100 -21 148.5 -60t48.5 -111q0 -86 -58.5 -124t-163.5 -38q-20 0 -45.5 2.5t-52.5 7t-52 10.5t-43 14v101q56 -16 103.5 -22t84.5 -6q54 0 78.5 11.5t24.5 40.5q0 13 -5.5 22t-18 15.5
t-33 12.5t-50.5 13q-96 22 -143.5 58t-47.5 107q0 42 15.5 71t42.5 47t63.5 26.5t78.5 8.5q49 0 98 -8.5t98 -20.5v-103z" />
    <glyph glyph-name="t" unicode="t" horiz-adv-x="430" 
d="M403 12q-34 -11 -69 -17t-67 -6q-42 0 -72.5 13t-50 36.5t-28.5 54.5t-9 67v255h-92v110h92v132l132 40v-172h147v-110h-147v-257q0 -32 8.5 -45.5t40.5 -13.5q17 0 48.5 5t66.5 13v-105z" />
    <glyph glyph-name="u" unicode="u" 
d="M520 525v-525h-133v27q-38 -15 -75.5 -25.5t-72.5 -10.5q-36 0 -68.5 9t-56.5 29t-38 51.5t-14 77.5v337l134 40v-384q0 -26 15.5 -37.5t46.5 -11.5q32 0 64 9t65 20v394h133z" />
    <glyph glyph-name="v" unicode="v" horiz-adv-x="524" 
d="M134 525l129 -390l129 390h129l-180 -525h-158l-180 525h131z" />
    <glyph glyph-name="w" unicode="w" horiz-adv-x="820" 
d="M142 525l92 -392l91 392h172l92 -392l88 392h132l-136 -525h-167l-95 391l-96 -391h-167l-138 525h132z" />
    <glyph glyph-name="x" unicode="x" horiz-adv-x="532" 
d="M266 365l117 160h151l-192 -263l192 -262h-151l-117 159l-116 -159h-151l192 262l-192 263h151z" />
    <glyph glyph-name="y" unicode="y" 
d="M388 44q-43 -14 -78 -23t-70 -9q-36 0 -68.5 9t-56.5 28.5t-38 51.5t-14 77v317l134 40v-364q0 -26 15.5 -36.5t46.5 -10.5q26 0 58.5 7.5t70.5 18.5v375h133v-552q0 -43 -16.5 -74.5t-46 -52.5t-70 -31t-88.5 -10q-84 0 -187 23v106q19 -5 40 -8.5t40 -6t35 -3.5t26 -1
q32 0 57 2.5t42 10t26 22.5t9 41v53z" />
    <glyph glyph-name="z" unicode="z" horiz-adv-x="515" 
d="M50 525h419v-94l-257 -319h275l-43 -112h-396v102l253 311h-251v112z" />
    <glyph glyph-name="braceleft" unicode="{" horiz-adv-x="420" 
d="M140 235q0 35 -23 49t-85 17v107q61 4 84.5 18.5t23.5 49.5v186q0 63 33 94.5t93 31.5h116v-108h-100q-10 0 -13 -4t-3 -13v-191q0 -32 -12 -64.5t-47 -53.5q35 -20 47 -50.5t12 -63.5v-196q0 -9 3 -13.5t13 -4.5h100v-107h-116q-60 0 -93 31.5t-33 94.5v190z" />
    <glyph glyph-name="bar" unicode="|" horiz-adv-x="299" 
d="M83 788h133v-870h-133v870z" />
    <glyph glyph-name="braceright" unicode="}" horiz-adv-x="420" 
d="M288 45q0 -63 -33 -94.5t-93 -31.5h-116v107h100q10 0 13 4.5t3 13.5v196q0 33 12 63.5t47 50.5q-35 21 -47 53.5t-12 64.5v191q0 9 -3 13t-13 4h-100v108h116q60 0 93 -31.5t33 -94.5v-186q0 -17 5.5 -29t18 -20t33 -12.5t51.5 -6.5v-107q-62 -3 -85 -17t-23 -49v-190z
" />
    <glyph glyph-name="asciitilde" unicode="~" horiz-adv-x="462" 
d="M14 344q24 68 62.5 92.5t81.5 24.5q30 0 51.5 -11t39 -24t33.5 -24t34 -11q5 0 12 5.5t14 14t13.5 19t11.5 20.5l76 -55q-13 -34 -30 -56t-35.5 -35.5t-38 -19t-37.5 -5.5q-26 0 -46 11t-37 23.5t-33.5 23.5t-34.5 11q-9 0 -18 -5.5t-17.5 -14t-16 -18t-12.5 -18.5
l-73 52v0z" />
    <glyph glyph-name="exclamdown" unicode="&#xa1;" horiz-adv-x="289" 
d="M86 325h115v-522h-124zM76 525h134v-132h-134v132z" />
    <glyph glyph-name="cent" unicode="&#xa2;" horiz-adv-x="560" 
d="M271 -6q-119 11 -177 83t-58 186q0 55 14 101.5t43.5 81t73.5 56t104 27.5v101h92v-101q37 -3 77.5 -10t71.5 -19v-105q-38 11 -79 15.5t-70 6.5v-312q31 1 72 6t85 18v-105q-35 -14 -76.5 -21t-80.5 -9v-103h-92v103zM174 263q0 -61 21.5 -99t75.5 -52v298
q-54 -14 -75.5 -52t-21.5 -95z" />
    <glyph glyph-name="sterling" unicode="&#xa3;" horiz-adv-x="600" 
d="M225 516l3.5 -28t4 -23l5 -22t6.5 -25h213v-106h-187q1 -6 1.5 -12.5t0.5 -12.5q0 -44 -19 -91.5t-51 -82.5h366l-42 -113h-488v113q54 23 78.5 66.5t24.5 94.5q0 10 -1 19.5t-3 18.5h-93v106h69q-11 26 -16 56t-5 60q0 102 63.5 151t182.5 49q22 0 48.5 -3t53.5 -8
t52.5 -12t45.5 -15v-109q-53 17 -101.5 25t-84.5 8q-64 0 -96 -21t-32 -67v-7.5t1 -8.5z" />
    <glyph glyph-name="currency" unicode="&#xa4;" horiz-adv-x="700" 
d="M497 365q0 34 -11.5 64t-31.5 52.5t-48.5 36t-61.5 13.5q-32 0 -60 -13t-48 -35.5t-31.5 -53t-11.5 -65.5q0 -38 12.5 -68.5t33.5 -53t48.5 -34.5t56.5 -12q31 0 58.5 12t48.5 34t33.5 53.5t12.5 69.5zM602 670l75 -76l-102 -90q17 -29 27 -63t10 -76q0 -85 -42 -147
l102 -94l-72 -78l-98 99q-32 -25 -72.5 -39t-85.5 -14q-42 0 -81 12.5t-70 34.5l-95 -93l-72 78l97 89q-20 30 -32.5 68t-12.5 83q0 42 11 78t30 65l-97 87l76 76l90 -87q32 24 72 38t85 14q91 0 163 -54z" />
    <glyph glyph-name="yen" unicode="&#xa5;" horiz-adv-x="700" 
d="M630 168h-209v-168h-139v168h-213v92h213v50h-213v92h158l-200 325h152l172 -281l172 281h152l-199 -325h154v-92h-209v-50h209v-92z" />
    <glyph glyph-name="brokenbar" unicode="&#xa6;" horiz-adv-x="299" 
d="M81 727h135v-364h-135v364zM81 219h135v-364h-135v364z" />
    <glyph glyph-name="section" unicode="&#xa7;" horiz-adv-x="505" 
d="M448 575q-57 14 -107 22t-95 8q-39 0 -56 -10.5t-17 -35.5q0 -29 21 -43.5t77 -27.5q103 -23 153.5 -71.5t50.5 -134.5q0 -92 -49 -138q44 -49 44 -126q0 -104 -60.5 -148.5t-169.5 -44.5q-20 0 -47 3t-54.5 8t-53.5 13t-45 17v126q58 -20 105.5 -27t85.5 -7q56 0 80 11
t24 46q0 16 -4.5 26.5t-16 19t-32 15t-51.5 14.5q-100 23 -149 68t-49 131q0 47 13.5 80t38.5 56q-47 45 -47 128q0 51 16 86t44 57t65.5 32t81.5 10q51 0 101.5 -10.5t101.5 -24.5v-128zM244 355q-11 3 -22 5t-20 6q-21 -8 -30 -24t-9 -38q0 -19 4.5 -31.5t15.5 -21.5
t30 -16t48 -14q16 -4 29.5 -7.5t27.5 -9.5q29 20 29 65q0 21 -4 33.5t-15.5 21.5t-31.5 16t-52 15z" />
    <glyph glyph-name="dieresis" unicode="&#xa8;" horiz-adv-x="540" 
d="M96 922h134v-127h-134v127zM331 922h134v-127h-134v127z" />
    <glyph glyph-name="copyright" unicode="&#xa9;" horiz-adv-x="800" 
d="M400 65q59 0 110.5 22t90 61t60.5 93t22 119q0 64 -22 118t-60.5 93t-90 60.5t-110.5 21.5q-60 0 -111.5 -21.5t-89.5 -60.5t-59.5 -93t-21.5 -118q0 -65 21.5 -119t59.5 -93t89.5 -61t111.5 -22zM398 566q29 0 65.5 -6.5t69.5 -19.5v-86q-32 8 -64 14t-52 6
q-50 0 -68.5 -28.5t-18.5 -83.5q0 -61 18.5 -88.5t69.5 -27.5q24 0 53 5t67 16v-86q-35 -14 -71.5 -21t-70.5 -7q-85 0 -129.5 56t-44.5 153q0 46 11.5 83.5t33.5 64.5t55 41.5t76 14.5zM399 -8q-78 0 -145 29t-116 79t-76.5 117t-27.5 143t27.5 143t76.5 116.5t116 78.5
t145 29t145 -29t116.5 -78.5t77.5 -116.5t28 -143t-28 -143t-77.5 -117t-116.5 -79t-145 -29z" />
    <glyph glyph-name="ordfeminine" unicode="&#xaa;" horiz-adv-x="500" 
d="M298 379q-28 -12 -52 -15.5t-48 -3.5q-58 0 -92.5 32t-34.5 94q0 30 8 55.5t31.5 44.5t67.5 30.5t116 12.5q-7 17 -27 21t-54 4q-14 0 -45 -3.5t-65 -10.5v92q38 11 74.5 15.5t66.5 4.5q36 0 66 -8t51.5 -23.5t34 -39.5t12.5 -56v-260h-110v14zM225 456q17 0 36 4t34 12
v65q-57 -2 -82.5 -11t-25.5 -35q0 -35 38 -35z" />
    <glyph glyph-name="guillemotleft" unicode="&#xab;" horiz-adv-x="500" 
d="M291 35h-112l-154 222l154 223h112l-129 -223zM481 35h-112l-154 222l154 223h112l-129 -223z" />
    <glyph glyph-name="logicalnot" unicode="&#xac;" horiz-adv-x="700" 
d="M656 499v-279h-124v175h-491v104h615z" />
    <glyph glyph-name="uni00AD" unicode="&#xad;" horiz-adv-x="500" 
d="M450 330h-400v86h400v-86z" />
    <glyph glyph-name="registered" unicode="&#xae;" horiz-adv-x="800" 
d="M399 -8q-78 0 -145 29t-116 79t-76.5 117t-27.5 143t27.5 143t76.5 116.5t116 78.5t145 29t145 -29t116.5 -78.5t77.5 -116.5t28 -143t-28 -143t-77.5 -117t-116.5 -79t-145 -29zM400 65q59 0 110.5 22t90 61t60.5 93t22 119q0 64 -22 118t-60.5 93t-90 60.5t-110.5 21.5
q-60 0 -111.5 -21.5t-89.5 -60.5t-59.5 -93t-21.5 -118q0 -65 21.5 -119t59.5 -93t89.5 -61t111.5 -22zM398 296h-43v-135h-94v400h154q73 0 110 -29.5t37 -98.5q0 -48 -16 -80t-58 -48l85 -144h-97zM404 372q33 0 49.5 16t16.5 45q0 53 -66 53h-49v-114h49z" />
    <glyph glyph-name="macron" unicode="&#xaf;" horiz-adv-x="500" 
d="M500 772h-500v86h500v-86z" />
    <glyph glyph-name="degree" unicode="&#xb0;" horiz-adv-x="446" 
d="M288 590q0 29 -14 47.5t-51 18.5t-50.5 -18.5t-13.5 -47.5t13.5 -47t50.5 -18t51 18t14 47zM383 590q0 -75 -38 -117t-122 -42q-81 0 -120 42t-39 117t39 117.5t120 42.5q84 0 122 -42.5t38 -117.5z" />
    <glyph glyph-name="plusminus" unicode="&#xb1;" horiz-adv-x="530" 
d="M315 589v-169h165v-102h-165v-170h-102v170h-164v102h164v169h102zM49 102h431v-102h-431v102z" />
    <glyph glyph-name="uni00B2" unicode="&#xb2;" horiz-adv-x="300" 
d="M14 451q51 46 83 78t51 56t26 42t7 35q0 24 -12 35.5t-44 11.5q-20 0 -48 -5t-60 -14v79q26 10 60 17t56 7q75 0 109.5 -30.5t34.5 -96.5q0 -31 -10.5 -57.5t-28.5 -50t-41 -45.5t-47 -44h149l-30 -84h-255v66z" />
    <glyph glyph-name="uni00B3" unicode="&#xb3;" horiz-adv-x="310" 
d="M275 681q0 -28 -10.5 -46.5t-27.5 -32.5q25 -14 39 -36t14 -60q0 -67 -38.5 -96.5t-107.5 -29.5q-62 0 -131 22v78q23 -5 39.5 -8t29.5 -4.5t23.5 -2t20.5 -0.5q36 0 51 9t16 33q-1 30 -24 37t-58 7h-36v84h36q12 0 24 1.5t21.5 6t16 13.5t6.5 23t-9.5 22t-32.5 8
q-27 0 -53 -3.5t-58 -13.5v77q26 11 57.5 17.5t53.5 6.5q70 0 104 -27t34 -85z" />
    <glyph glyph-name="acute" unicode="&#xb4;" horiz-adv-x="280" 
d="M45 795l62 127h148l-105 -127h-105z" />
    <glyph glyph-name="mu" unicode="&#xb5;" 
d="M62 495l134 40v-388q2 -23 17.5 -33t44.5 -10q32 0 64 8t65 19v394h133v-525h-133v32q-38 -18 -75.5 -28.5t-72.5 -10.5q-22 0 -43 3v-186h-134v685z" />
    <glyph glyph-name="paragraph" unicode="&#xb6;" horiz-adv-x="605" 
d="M542 0h-132v611h-52v-611h-132v327q-49 7 -82 24t-53.5 42.5t-29 58.5t-8.5 73q0 43 10.5 80t35.5 64t67.5 42.5t105.5 15.5h270v-727z" />
    <glyph glyph-name="periodcentered" unicode="&#xb7;" horiz-adv-x="314" 
d="M95 389h132v-136h-132v136z" />
    <glyph glyph-name="cedilla" unicode="&#xb8;" horiz-adv-x="317" 
d="M186 23l-10 -54h22q33 0 54 -18t21 -60q0 -40 -25 -63.5t-74 -23.5q-30 0 -54 2.5t-49 8.5v65q20 -2 36.5 -4.5t39.5 -2.5q19 0 33.5 3.5t14.5 16.5q0 11 -7 14t-23 3h-80l25 113h76z" />
    <glyph glyph-name="uni00B9" unicode="&#xb9;" horiz-adv-x="226" 
d="M91 689l-78 -14v74l170 41v-405h-92v304z" />
    <glyph glyph-name="ordmasculine" unicode="&#xba;" horiz-adv-x="500" 
d="M246 349q-52 0 -88 14t-58.5 40t-33 63t-10.5 83t10.5 83.5t33 64.5t58.5 41.5t88 14.5q50 0 85.5 -14.5t58 -41.5t33 -64.5t10.5 -83.5q0 -92 -43.5 -146t-143.5 -54zM246 651q-37 0 -53 -21t-16 -81q0 -58 16 -78t53 -20q31 0 48 20t17 78q0 60 -17 81t-48 21z" />
    <glyph glyph-name="guillemotright" unicode="&#xbb;" horiz-adv-x="500" 
d="M344 257l-129 223h112l154 -223l-154 -222h-112zM154 257l-129 223h112l154 -223l-154 -222h-112z" />
    <glyph glyph-name="onequarter" unicode="&#xbc;" horiz-adv-x="900" 
d="M679 81h-195v76l182 281h111v-265h85l-38 -92h-47v-81h-98v81zM679 173v120l-72 -120h72zM116 618l-79 -13v78l191 49v-442h-112v328zM605 727h108l-493 -727h-109z" />
    <glyph glyph-name="onehalf" unicode="&#xbd;" horiz-adv-x="900" 
d="M560 78l99 97q34 33 56 64t22 59q0 26 -12 38.5t-41 12.5q-20 0 -51 -6t-69 -17v89q14 5 31 10t34.5 8.5t33.5 6t28 2.5q160 0 160 -137q0 -27 -7.5 -50.5t-23.5 -47.5t-41.5 -51.5t-61.5 -61.5h158l-35 -94h-280v78zM116 618l-79 -13v78l191 49v-442h-112v328zM595 727
h108l-493 -727h-109z" />
    <glyph glyph-name="threequarters" unicode="&#xbe;" horiz-adv-x="900" 
d="M318 604q0 -28 -11 -47.5t-29 -34.5q25 -15 41 -38.5t16 -65.5q0 -73 -43 -107t-118 -34q-33 0 -69.5 9t-75.5 20v89q28 -6 48 -10t36 -6.5t28.5 -3.5t24.5 -1q29 0 42 11t13 33q0 31 -23.5 39t-59.5 8h-42v94h42q12 0 24.5 1.5t22 6t16 13t6.5 22.5t-9 22.5t-32 8.5
q-26 0 -55.5 -7t-67.5 -18v90q15 6 31.5 11t33 8.5t32 6t26.5 2.5q78 0 115 -29t37 -93zM693 81h-195v76l182 281h111v-265h85l-38 -92h-47v-81h-98v81zM693 173v120l-72 -120h72zM660 727h108l-493 -727h-109z" />
    <glyph glyph-name="questiondown" unicode="&#xbf;" horiz-adv-x="470" 
d="M324 325h-122v-30q0 -27 -17.5 -47.5t-46.5 -44.5q-57 -48 -82 -101t-25 -122q0 -49 16.5 -83t45 -55.5t67 -31t82.5 -9.5q82 0 196 39v106q-51 -14 -96 -22t-80 -8q-54 0 -77 20t-23 71q0 42 15.5 65t39.5 43q27 21 47 40t33.5 38.5t20 41.5t6.5 50v40zM197 525h134
v-132h-134v132z" />
    <glyph glyph-name="Agrave" unicode="&#xc0;" horiz-adv-x="651" 
d="M306 795l-105 127h148l62 -127h-105zM451 175h-251l-55 -175h-139l236 727h169l235 -727h-140zM237 290h177l-88 290z" />
    <glyph glyph-name="Aacute" unicode="&#xc1;" horiz-adv-x="651" 
d="M241 795l89 182h148l-132 -182h-105zM506 0h140l-235 727h-169l-236 -727h139l55 175h251zM326 580l88 -290h-177z" />
    <glyph glyph-name="Acircumflex" unicode="&#xc2;" horiz-adv-x="651" 
d="M375 922l106 -127h-118l-37 55l-36 -55h-114l102 127h97zM451 175h-251l-55 -175h-139l236 727h169l235 -727h-140zM237 290h177l-88 290z" />
    <glyph glyph-name="Atilde" unicode="&#xc3;" horiz-adv-x="651" 
d="M267 909q20 0 33.5 -4t24.5 -9.5t21 -9.5t23 -4q14 0 20.5 7t8.5 20h86q-3 -49 -27.5 -81.5t-74.5 -32.5q-20 0 -33.5 4t-24.5 9.5t-21 9.5t-23 4q-14 0 -20.5 -7t-8.5 -20h-87q3 49 28 81.5t75 32.5zM451 175h-251l-55 -175h-139l236 727h169l235 -727h-140zM237 290
h177l-88 290z" />
    <glyph glyph-name="Adieresis" unicode="&#xc4;" horiz-adv-x="651" 
d="M151 922h134v-127h-134v127zM366 922h134v-127h-134v127zM451 175h-251l-55 -175h-139l236 727h169l235 -727h-140zM237 290h177l-88 290z" />
    <glyph glyph-name="Aring" unicode="&#xc5;" horiz-adv-x="651" 
d="M232 851q0 44 29 66t65 22t64 -21.5t28 -66.5q0 -44 -28 -64t-64 -20q-18 0 -35 5t-30 15t-21 26t-8 38zM301 851q0 -21 25 -21q24 0 24 21q0 9 -6.5 15.5t-17.5 6.5t-18 -6.5t-7 -15.5zM451 175h-251l-55 -175h-139l236 727h169l235 -727h-140zM237 290h177l-88 290z
" />
    <glyph glyph-name="AE" unicode="&#xc6;" horiz-adv-x="900" 
d="M439 175h-208l-83 -175h-140l346 727h506v-116h-283v-186h271l-45 -116h-226v-193h283v-116h-421v175zM286 290h153v320z" />
    <glyph glyph-name="Ccedilla" unicode="&#xc7;" horiz-adv-x="581" 
d="M276 -2q-65 8 -110 39t-73.5 79.5t-41.5 112t-13 136.5q0 85 15.5 153.5t50 116.5t89.5 73.5t133 25.5q58 0 109 -8.5t111 -27.5v-105q-32 7 -58 12t-50 8t-47 4t-49 1q-88 0 -126 -66t-38 -187q0 -58 9 -105t29 -80t51.5 -51t75.5 -18q24 0 46.5 1.5t46.5 4.5t50.5 8.5
t59.5 13.5v-107q-50 -14 -98.5 -24t-95.5 -12l-6 -27h22q33 0 54 -18t21 -60q0 -40 -25 -63.5t-74 -23.5q-30 0 -54 2.5t-49 8.5v65q20 -2 36.5 -4.5t39.5 -2.5q19 0 33.5 3.5t14.5 16.5q0 11 -7 14t-23 3h-80z" />
    <glyph glyph-name="Egrave" unicode="&#xc8;" horiz-adv-x="601" 
d="M63 727h491v-116h-353v-186h341l-45 -116h-296v-193h353v-116h-491v727zM266 795l-105 127h148l62 -127h-105z" />
    <glyph glyph-name="Eacute" unicode="&#xc9;" horiz-adv-x="601" 
d="M63 0h491v116h-353v193h296l45 116h-341v186h353v116h-491v-727zM241 795l89 182h148l-132 -182h-105z" />
    <glyph glyph-name="Ecircumflex" unicode="&#xca;" horiz-adv-x="601" 
d="M63 727h491v-116h-353v-186h341l-45 -116h-296v-193h353v-116h-491v727zM375 922l106 -127h-118l-37 55l-36 -55h-114l102 127h97z" />
    <glyph glyph-name="Edieresis" unicode="&#xcb;" horiz-adv-x="601" 
d="M63 727h491v-116h-353v-186h341l-45 -116h-296v-193h353v-116h-491v727zM151 922h134v-127h-134v127zM366 922h134v-127h-134v127z" />
    <glyph glyph-name="Igrave" unicode="&#xcc;" horiz-adv-x="242" 
d="M52 727h138v-727h-138v727zM85 795l-105 127h148l62 -127h-105z" />
    <glyph glyph-name="Iacute" unicode="&#xcd;" horiz-adv-x="242" 
d="M52 0h138v727h-138v-727zM52 795l89 182h148l-132 -182h-105z" />
    <glyph glyph-name="Icircumflex" unicode="&#xce;" horiz-adv-x="242" 
d="M52 727h138v-727h-138v727zM168 922l106 -127h-118l-37 55l-36 -55h-114l102 127h97z" />
    <glyph glyph-name="Idieresis" unicode="&#xcf;" horiz-adv-x="340" 
d="M100 727h138v-727h-138v727zM-4 922h134v-127h-134v127zM211 922h134v-127h-134v127z" />
    <glyph glyph-name="Eth" unicode="&#xd0;" horiz-adv-x="794" 
d="M40 415h122v312h263q87 0 143 -24.5t89 -70.5t45.5 -110.5t12.5 -145.5q0 -83 -12 -152t-44 -119t-88.5 -77.5t-145.5 -27.5h-263v313h-122v102zM577 376q0 52 -6 95.5t-23 74.5t-49 48t-83 17h-116v-196h121l-39 -102h-82v-197h116q51 0 83 20.5t49 56t23 82.5t6 101z
" />
    <glyph glyph-name="Ntilde" unicode="&#xd1;" horiz-adv-x="702" 
d="M66 727h189l248 -554v554h133v-727h-189l-248 554v-554h-133v727zM297 909q20 0 33.5 -4t24.5 -9.5t21 -9.5t23 -4q14 0 20.5 7t8.5 20h86q-3 -49 -27.5 -81.5t-74.5 -32.5q-20 0 -33.5 4t-24.5 9.5t-21 9.5t-23 4q-14 0 -20.5 -7t-8.5 -20h-87q3 49 28 81.5t75 32.5z
" />
    <glyph glyph-name="Ograve" unicode="&#xd2;" horiz-adv-x="687" 
d="M343 111q86 0 121 61.5t35 188.5q0 125 -35 191t-121 66t-121 -65.5t-35 -191.5q0 -127 35 -188.5t121 -61.5zM343 -5q-83 0 -139 23.5t-90.5 70t-49.5 114.5t-15 158t15 159.5t49.5 117t90.5 72t139 24.5q82 0 138.5 -24.5t91 -72t49.5 -117t15 -159.5t-15 -158
t-49.5 -114.5t-91 -70t-138.5 -23.5zM316 795l-105 127h148l62 -127h-105z" />
    <glyph glyph-name="Oacute" unicode="&#xd3;" horiz-adv-x="687" 
d="M343 111q-86 0 -121 61.5t-35 188.5q0 126 35 191.5t121 65.5t121 -66t35 -191q0 -127 -35 -188.5t-121 -61.5zM343 -5q82 0 138.5 23.5t91 70t49.5 114.5t15 158t-15 159.5t-49.5 117t-91 72t-138.5 24.5q-83 0 -139 -24.5t-90.5 -72t-49.5 -117t-15 -159.5t15 -158
t49.5 -114.5t90.5 -70t139 -23.5zM261 795l89 182h148l-132 -182h-105z" />
    <glyph glyph-name="Ocircumflex" unicode="&#xd4;" horiz-adv-x="687" 
d="M343 111q86 0 121 61.5t35 188.5q0 125 -35 191t-121 66t-121 -65.5t-35 -191.5q0 -127 35 -188.5t121 -61.5zM343 -5q-83 0 -139 23.5t-90.5 70t-49.5 114.5t-15 158t15 159.5t49.5 117t90.5 72t139 24.5q82 0 138.5 -24.5t91 -72t49.5 -117t15 -159.5t-15 -158
t-49.5 -114.5t-91 -70t-138.5 -23.5zM391 922l106 -127h-118l-37 55l-36 -55h-114l102 127h97z" />
    <glyph glyph-name="Otilde" unicode="&#xd5;" horiz-adv-x="687" 
d="M343 111q86 0 121 61.5t35 188.5q0 125 -35 191t-121 66t-121 -65.5t-35 -191.5q0 -127 35 -188.5t121 -61.5zM343 -5q-83 0 -139 23.5t-90.5 70t-49.5 114.5t-15 158t15 159.5t49.5 117t90.5 72t139 24.5q82 0 138.5 -24.5t91 -72t49.5 -117t15 -159.5t-15 -158
t-49.5 -114.5t-91 -70t-138.5 -23.5zM283 909q20 0 33.5 -4t24.5 -9.5t21 -9.5t23 -4q14 0 20.5 7t8.5 20h86q-3 -49 -27.5 -81.5t-74.5 -32.5q-20 0 -33.5 4t-24.5 9.5t-21 9.5t-23 4q-14 0 -20.5 -7t-8.5 -20h-87q3 49 28 81.5t75 32.5z" />
    <glyph glyph-name="Odieresis" unicode="&#xd6;" horiz-adv-x="687" 
d="M343 111q86 0 121 61.5t35 188.5q0 125 -35 191t-121 66t-121 -65.5t-35 -191.5q0 -127 35 -188.5t121 -61.5zM343 -5q-83 0 -139 23.5t-90.5 70t-49.5 114.5t-15 158t15 159.5t49.5 117t90.5 72t139 24.5q82 0 138.5 -24.5t91 -72t49.5 -117t15 -159.5t-15 -158
t-49.5 -114.5t-91 -70t-138.5 -23.5zM167 922h134v-127h-134v127zM382 922h134v-127h-134v127z" />
    <glyph glyph-name="multiply" unicode="&#xd7;" horiz-adv-x="530" 
d="M423 610l83 -79l-161 -164l163 -165l-85 -77l-159 161l-158 -161l-85 77l163 165l-161 164l83 79l158 -161z" />
    <glyph glyph-name="Oslash" unicode="&#xd8;" horiz-adv-x="687" 
d="M574 635q34 -48 48.5 -116t14.5 -158t-15 -158t-49.5 -114.5t-91 -70t-138.5 -23.5q-76 0 -131 20l-52 -90h-98l78 133q-49 45 -70 121t-21 182q0 90 15 159.5t49.5 117t90.5 72t139 24.5q52 0 94.5 -10t72.5 -30l45 78h99zM187 361q0 -113 27 -174l229 393
q-35 38 -100 38q-86 0 -121 -65.5t-35 -191.5zM343 111q86 0 121 61.5t35 188.5q0 72 -12 125l-212 -363q28 -12 68 -12z" />
    <glyph glyph-name="Ugrave" unicode="&#xd9;" horiz-adv-x="676" 
d="M203 238q0 -69 36.5 -97t96.5 -28q63 0 99 28t36 97v489h140v-490q0 -66 -18 -112t-53.5 -75t-86.5 -42t-117 -13t-116.5 13t-85 42t-52 75t-17.5 112v490h138v-489zM316 795l-105 127h148l62 -127h-105z" />
    <glyph glyph-name="Uacute" unicode="&#xda;" horiz-adv-x="676" 
d="M203 727h-138v-490q0 -66 17.5 -112t52 -75t85 -42t116.5 -13t117 13t86.5 42t53.5 75t18 112v490h-140v-489q0 -69 -36 -97t-99 -28q-60 0 -96.5 28t-36.5 97v489zM251 795l89 182h148l-132 -182h-105z" />
    <glyph glyph-name="Ucircumflex" unicode="&#xdb;" horiz-adv-x="676" 
d="M203 238q0 -69 36.5 -97t96.5 -28q63 0 99 28t36 97v489h140v-490q0 -66 -18 -112t-53.5 -75t-86.5 -42t-117 -13t-116.5 13t-85 42t-52 75t-17.5 112v490h138v-489zM391 922l106 -127h-118l-37 55l-36 -55h-114l102 127h97z" />
    <glyph glyph-name="Udieresis" unicode="&#xdc;" horiz-adv-x="676" 
d="M203 238q0 -69 36.5 -97t96.5 -28q63 0 99 28t36 97v489h140v-490q0 -66 -18 -112t-53.5 -75t-86.5 -42t-117 -13t-116.5 13t-85 42t-52 75t-17.5 112v490h138v-489zM167 922h134v-127h-134v127zM382 922h134v-127h-134v127z" />
    <glyph glyph-name="Yacute" unicode="&#xdd;" horiz-adv-x="642" 
d="M391 317l254 410h-152l-172 -281l-172 281h-152l255 -409v-318h139v317zM241 795l89 182h148l-132 -182h-105z" />
    <glyph glyph-name="Thorn" unicode="&#xde;" horiz-adv-x="642" 
d="M70 727h134v-102h125q125 0 194.5 -60t69.5 -189t-69 -190.5t-195 -61.5h-125v-124h-134v727zM333 240q75 0 106 36t31 100q0 67 -31 100t-106 33h-129v-269h129z" />
    <glyph glyph-name="germandbls" unicode="&#xdf;" horiz-adv-x="620" 
d="M407 -5q-43 0 -79 7.5t-73 24.5v99q35 -13 74 -20t68 -7q30 0 47 10.5t17 38.5q0 9 -4 16.5t-14.5 15.5t-28.5 18.5t-46 26.5q-52 29 -75.5 62t-23.5 83q0 44 19.5 73t43 51t43 39.5t19.5 38.5q0 35 -24.5 48.5t-61.5 13.5q-54 0 -82.5 -26.5t-28.5 -92.5v-515h-134v523
q0 55 17 95t49 66t77 38t102 12q49 0 89.5 -10.5t69 -30.5t44.5 -49t16 -67q0 -47 -20 -76.5t-44.5 -51.5t-44.5 -40t-20 -41q0 -17 9.5 -25.5t20.5 -15.5q42 -24 72.5 -44.5t50 -42t29 -47t9.5 -59.5q0 -66 -49 -102.5t-133 -36.5z" />
    <glyph glyph-name="agrave" unicode="&#xe0;" horiz-adv-x="559" 
d="M368 33q-35 -20 -79.5 -30t-79.5 -10q-75 0 -121 43t-46 124q0 47 16 82t53.5 58t99 35t153.5 14v15q0 18 -10.5 29t-28.5 17t-43 8t-53 2q-31 0 -68.5 -5t-75.5 -13v106q48 13 97.5 18t94.5 5q47 0 87.5 -10t70 -31t46.5 -52.5t17 -74.5v-363h-130v33zM249 99
q27 0 58 10t57 25v112q-47 -1 -81.5 -4t-57.5 -11.5t-34.5 -24t-11.5 -40.5q0 -67 70 -67zM256 600l-105 127h148l62 -127h-105z" />
    <glyph glyph-name="aacute" unicode="&#xe1;" horiz-adv-x="559" 
d="M368 0h130v363q0 43 -17 74.5t-46.5 52.5t-70 31t-87.5 10q-45 0 -94.5 -5t-97.5 -18v-106q38 8 75.5 13t68.5 5q28 0 53 -2t43 -8t28.5 -17t10.5 -29v-15q-92 -2 -153.5 -14t-99 -35t-53.5 -58t-16 -82q0 -81 46 -124t121 -43q35 0 79.5 10t79.5 30v-33zM249 99
q-70 0 -70 67q0 25 11.5 40.5t34.5 24t57.5 11.5t81.5 4v-112q-26 -15 -57 -25t-58 -10zM211 600l89 182h148l-132 -182h-105z" />
    <glyph glyph-name="acircumflex" unicode="&#xe2;" horiz-adv-x="559" 
d="M368 33q-35 -20 -79.5 -30t-79.5 -10q-75 0 -121 43t-46 124q0 47 16 82t53.5 58t99 35t153.5 14v15q0 18 -10.5 29t-28.5 17t-43 8t-53 2q-31 0 -68.5 -5t-75.5 -13v106q48 13 97.5 18t94.5 5q47 0 87.5 -10t70 -31t46.5 -52.5t17 -74.5v-363h-130v33zM249 99
q27 0 58 10t57 25v112q-47 -1 -81.5 -4t-57.5 -11.5t-34.5 -24t-11.5 -40.5q0 -67 70 -67zM329 727l106 -127h-118l-37 55l-36 -55h-114l102 127h97z" />
    <glyph glyph-name="atilde" unicode="&#xe3;" horiz-adv-x="559" 
d="M368 33q-35 -20 -79.5 -30t-79.5 -10q-75 0 -121 43t-46 124q0 47 16 82t53.5 58t99 35t153.5 14v15q0 18 -10.5 29t-28.5 17t-43 8t-53 2q-31 0 -68.5 -5t-75.5 -13v106q48 13 97.5 18t94.5 5q47 0 87.5 -10t70 -31t46.5 -52.5t17 -74.5v-363h-130v33zM249 99
q27 0 58 10t57 25v112q-47 -1 -81.5 -4t-57.5 -11.5t-34.5 -24t-11.5 -40.5q0 -67 70 -67zM218 714q20 0 33.5 -4t24.5 -9.5t21 -9.5t23 -4q14 0 20.5 7t8.5 20h86q-3 -49 -27.5 -81.5t-74.5 -32.5q-20 0 -33.5 4t-24.5 9.5t-21 9.5t-23 4q-14 0 -20.5 -7t-8.5 -20h-87
q3 49 28 81.5t75 32.5z" />
    <glyph glyph-name="adieresis" unicode="&#xe4;" horiz-adv-x="559" 
d="M368 33q-35 -20 -79.5 -30t-79.5 -10q-75 0 -121 43t-46 124q0 47 16 82t53.5 58t99 35t153.5 14v15q0 18 -10.5 29t-28.5 17t-43 8t-53 2q-31 0 -68.5 -5t-75.5 -13v106q48 13 97.5 18t94.5 5q47 0 87.5 -10t70 -31t46.5 -52.5t17 -74.5v-363h-130v33zM249 99
q27 0 58 10t57 25v112q-47 -1 -81.5 -4t-57.5 -11.5t-34.5 -24t-11.5 -40.5q0 -67 70 -67zM116 727h134v-127h-134v127zM331 727h134v-127h-134v127z" />
    <glyph glyph-name="aring" unicode="&#xe5;" horiz-adv-x="559" 
d="M368 33q-35 -20 -79.5 -30t-79.5 -10q-75 0 -121 43t-46 124q0 47 16 82t53.5 58t99 35t153.5 14v15q0 18 -10.5 29t-28.5 17t-43 8t-53 2q-31 0 -68.5 -5t-75.5 -13v106q48 13 97.5 18t94.5 5q47 0 87.5 -10t70 -31t46.5 -52.5t17 -74.5v-363h-130v33zM249 99
q27 0 58 10t57 25v112q-47 -1 -81.5 -4t-57.5 -11.5t-34.5 -24t-11.5 -40.5q0 -67 70 -67zM187 664q0 44 29 66t65 22t64 -21.5t28 -66.5q0 -44 -28 -64t-64 -20q-18 0 -35 5t-30 15t-21 26t-8 38zM256 664q0 -21 25 -21q24 0 24 21q0 9 -6.5 15.5t-17.5 6.5t-18 -6.5
t-7 -15.5z" />
    <glyph glyph-name="ae" unicode="&#xe6;" horiz-adv-x="900" 
d="M626 104q24 0 48 1.5t49 5.5t52.5 10t60.5 15v-104q-58 -20 -112.5 -29.5t-105.5 -9.5q-22 0 -46.5 2t-49.5 10t-49.5 23.5t-46.5 42.5q-33 -25 -65 -40t-61.5 -23.5t-55 -11.5t-45.5 -3q-75 0 -121 43t-46 124q0 47 16 82t53.5 58t99 35t153.5 14v15q0 18 -10.5 29
t-28.5 17t-43 8t-53 2q-31 0 -68.5 -5t-75.5 -13v106q48 13 97.5 18t94.5 5q57 0 102.5 -16t75.5 -51q30 35 73.5 51t103.5 16q120 0 176.5 -60t56.5 -198q0 -16 -1 -35.5t-3 -38.5h-335q5 -49 29 -72t81 -23zM239 99q35 0 77 16.5t74 40.5q-4 23 -5.5 45t-2.5 45
q-50 -1 -89 -3t-67 -9.5t-42.5 -23.5t-14.5 -44q0 -67 70 -67zM724 307q-3 57 -24.5 85.5t-77.5 28.5q-29 0 -48.5 -7t-31.5 -21.5t-18 -36t-9 -49.5h209z" />
    <glyph glyph-name="ccedilla" unicode="&#xe7;" horiz-adv-x="477" 
d="M354 -1q-31 -4 -63 -6l-6 -24h22q33 0 54 -18t21 -60q0 -40 -25 -63.5t-74 -23.5q-30 0 -54 2.5t-49 8.5v65q20 -2 36.5 -4.5t39.5 -2.5q19 0 33.5 3.5t14.5 16.5q0 11 -7 14t-23 3h-80l21 85q-47 7 -80.5 29t-55 57t-31.5 81.5t-10 100.5q0 60 12.5 109.5t40 84.5
t70.5 54.5t105 19.5q42 0 86.5 -7t86.5 -24v-105q-48 14 -86 18.5t-62 4.5q-36 0 -58 -10.5t-35 -31t-17.5 -49t-4.5 -64.5q0 -39 4.5 -68.5t17.5 -49.5t35.5 -30t58.5 -10q31 0 66 4.5t89 19.5v-105q-44 -17 -93 -25z" />
    <glyph glyph-name="egrave" unicode="&#xe8;" horiz-adv-x="559" 
d="M287 104q49 0 97 7t113 25v-104q-58 -20 -112.5 -29.5t-105.5 -9.5q-65 0 -110 15.5t-73.5 48t-41.5 82.5t-13 118q0 147 59.5 210.5t182.5 63.5q120 0 176.5 -60t56.5 -198q0 -16 -1 -35.5t-3 -38.5h-335q5 -49 29 -72t81 -23zM385 307q-3 57 -24.5 85.5t-77.5 28.5
q-29 0 -48.5 -7t-31.5 -21.5t-18 -36t-9 -49.5h209zM246 600l-105 127h148l62 -127h-105z" />
    <glyph glyph-name="eacute" unicode="&#xe9;" horiz-adv-x="559" 
d="M287 104q-57 0 -81 23t-29 72h335q2 19 3 38.5t1 35.5q0 138 -56.5 198t-176.5 60q-123 0 -182.5 -63.5t-59.5 -210.5q0 -68 13 -118t41.5 -82.5t73.5 -48t110 -15.5q51 0 105.5 9.5t112.5 29.5v104q-65 -18 -113 -25t-97 -7zM176 307q3 28 9 49.5t18 36t31.5 21.5
t48.5 7q56 0 77.5 -28.5t24.5 -85.5h-209zM211 600l89 182h148l-132 -182h-105z" />
    <glyph glyph-name="ecircumflex" unicode="&#xea;" horiz-adv-x="559" 
d="M287 104q49 0 97 7t113 25v-104q-58 -20 -112.5 -29.5t-105.5 -9.5q-65 0 -110 15.5t-73.5 48t-41.5 82.5t-13 118q0 147 59.5 210.5t182.5 63.5q120 0 176.5 -60t56.5 -198q0 -16 -1 -35.5t-3 -38.5h-335q5 -49 29 -72t81 -23zM385 307q-3 57 -24.5 85.5t-77.5 28.5
q-29 0 -48.5 -7t-31.5 -21.5t-18 -36t-9 -49.5h209zM334 727l106 -127h-118l-37 55l-36 -55h-114l102 127h97z" />
    <glyph glyph-name="edieresis" unicode="&#xeb;" horiz-adv-x="559" 
d="M287 104q49 0 97 7t113 25v-104q-58 -20 -112.5 -29.5t-105.5 -9.5q-65 0 -110 15.5t-73.5 48t-41.5 82.5t-13 118q0 147 59.5 210.5t182.5 63.5q120 0 176.5 -60t56.5 -198q0 -16 -1 -35.5t-3 -38.5h-335q5 -49 29 -72t81 -23zM385 307q-3 57 -24.5 85.5t-77.5 28.5
q-29 0 -48.5 -7t-31.5 -21.5t-18 -36t-9 -49.5h209zM111 727h134v-127h-134v127zM326 727h134v-127h-134v127z" />
    <glyph glyph-name="igrave" unicode="&#xec;" horiz-adv-x="231" 
d="M47 525h138v-525h-138v525zM81 600l-105 127h148l62 -127h-105z" />
    <glyph glyph-name="iacute" unicode="&#xed;" horiz-adv-x="231" 
d="M47 0h138v525h-138v-525zM45 600l89 182h148l-132 -182h-105z" />
    <glyph glyph-name="icircumflex" unicode="&#xee;" horiz-adv-x="231" 
d="M47 525h138v-525h-138v525zM164 727l106 -127h-118l-37 55l-36 -55h-114l102 127h97z" />
    <glyph glyph-name="idieresis" unicode="&#xef;" horiz-adv-x="340" 
d="M100 525h138v-525h-138v525zM-4 727h134v-127h-134v127zM211 727h134v-127h-134v127z" />
    <glyph glyph-name="eth" unicode="&#xf0;" horiz-adv-x="548" 
d="M210 548l-30 61l52 25q-24 24 -51 47t-56 46h169q24 -21 45 -42l89 42l32 -58l-75 -36q33 -39 57.5 -84.5t41 -94t24.5 -99t8 -99.5q0 -60 -13 -108.5t-41.5 -82.5t-74.5 -52.5t-112 -18.5t-112.5 18.5t-76 52.5t-43 82.5t-13.5 108.5q0 64 13 114.5t42.5 86t76 54.5
t113.5 19q24 0 45 -3q-9 14 -19 27.5t-21 27.5zM275 423q-55 0 -81 -38t-26 -129q0 -87 26 -122t81 -35q50 0 76.5 35t26.5 122q0 45 -4.5 77t-16.5 52t-32 29t-50 9z" />
    <glyph glyph-name="ntilde" unicode="&#xf1;" 
d="M59 0v494l135 40v-43q42 20 83 30t87 10q42 0 73 -12.5t50.5 -35t29 -53.5t9.5 -67v-363h-133v363q0 31 -15 44t-46 13q-46 0 -138 -37v-383h-135zM237 714q20 0 33.5 -4t24.5 -9.5t21 -9.5t23 -4q14 0 20.5 7t8.5 20h86q-3 -49 -27.5 -81.5t-74.5 -32.5q-20 0 -33.5 4
t-24.5 9.5t-21 9.5t-23 4q-14 0 -20.5 -7t-8.5 -20h-87q3 49 28 81.5t75 32.5z" />
    <glyph glyph-name="ograve" unicode="&#xf2;" horiz-adv-x="569" 
d="M284 -7q-65 0 -111.5 19t-75.5 53.5t-42.5 83.5t-13.5 109q0 63 13.5 114t42.5 86t75 54t112 19t112 -19t75 -54t42 -86t13 -114q0 -61 -13 -110t-42 -83.5t-75 -53t-112 -18.5zM284 421q-55 0 -80 -37.5t-25 -125.5q0 -86 25 -120.5t80 -34.5q51 0 77.5 34.5t26.5 120.5
q0 88 -26.5 125.5t-77.5 37.5zM246 600l-105 127h148l62 -127h-105z" />
    <glyph glyph-name="oacute" unicode="&#xf3;" horiz-adv-x="569" 
d="M284 -7q-65 0 -111.5 19t-75.5 53.5t-42.5 83.5t-13.5 109q0 63 13.5 114t42.5 86t75 54t112 19t112 -19t75 -54t42 -86t13 -114q0 -61 -13 -110t-42 -83.5t-75 -53t-112 -18.5zM284 421q-55 0 -80 -37.5t-25 -125.5q0 -86 25 -120.5t80 -34.5q51 0 77.5 34.5t26.5 120.5
q0 88 -26.5 125.5t-77.5 37.5zM211 600l89 182h148l-132 -182h-105z" />
    <glyph glyph-name="ocircumflex" unicode="&#xf4;" horiz-adv-x="569" 
d="M284 -7q-65 0 -111.5 19t-75.5 53.5t-42.5 83.5t-13.5 109q0 63 13.5 114t42.5 86t75 54t112 19t112 -19t75 -54t42 -86t13 -114q0 -61 -13 -110t-42 -83.5t-75 -53t-112 -18.5zM284 421q-55 0 -80 -37.5t-25 -125.5q0 -86 25 -120.5t80 -34.5q51 0 77.5 34.5t26.5 120.5
q0 88 -26.5 125.5t-77.5 37.5zM334 727l106 -127h-118l-37 55l-36 -55h-114l102 127h97z" />
    <glyph glyph-name="otilde" unicode="&#xf5;" horiz-adv-x="569" 
d="M284 -7q-65 0 -111.5 19t-75.5 53.5t-42.5 83.5t-13.5 109q0 63 13.5 114t42.5 86t75 54t112 19t112 -19t75 -54t42 -86t13 -114q0 -61 -13 -110t-42 -83.5t-75 -53t-112 -18.5zM284 421q-55 0 -80 -37.5t-25 -125.5q0 -86 25 -120.5t80 -34.5q51 0 77.5 34.5t26.5 120.5
q0 88 -26.5 125.5t-77.5 37.5zM227 714q20 0 33.5 -4t24.5 -9.5t21 -9.5t23 -4q14 0 20.5 7t8.5 20h86q-3 -49 -27.5 -81.5t-74.5 -32.5q-20 0 -33.5 4t-24.5 9.5t-21 9.5t-23 4q-14 0 -20.5 -7t-8.5 -20h-87q3 49 28 81.5t75 32.5z" />
    <glyph glyph-name="odieresis" unicode="&#xf6;" horiz-adv-x="569" 
d="M284 -7q-65 0 -111.5 19t-75.5 53.5t-42.5 83.5t-13.5 109q0 63 13.5 114t42.5 86t75 54t112 19t112 -19t75 -54t42 -86t13 -114q0 -61 -13 -110t-42 -83.5t-75 -53t-112 -18.5zM284 421q-55 0 -80 -37.5t-25 -125.5q0 -86 25 -120.5t80 -34.5q51 0 77.5 34.5t26.5 120.5
q0 88 -26.5 125.5t-77.5 37.5zM111 727h134v-127h-134v127zM326 727h134v-127h-134v127z" />
    <glyph glyph-name="divide" unicode="&#xf7;" horiz-adv-x="530" 
d="M38 318h453v102h-453v-102zM327 495h-126v123h126v-123zM327 127h-126v123h126v-123z" />
    <glyph glyph-name="oslash" unicode="&#xf8;" horiz-adv-x="580" 
d="M97 -35h-102l96 121q-21 36 -30.5 78.5t-9.5 93.5q0 63 13.5 114t42.5 86t75 54t112 19q41 0 72 -7t59 -21l56 70h102l-97 -122q26 -35 38 -84t12 -109q0 -61 -13 -110t-42 -83.5t-75 -53t-112 -18.5q-89 0 -146 36zM294 103q51 0 77.5 34.5t26.5 120.5q0 46 -7 75
l-166 -208q25 -22 69 -22zM294 421q-55 0 -80 -37.5t-25 -125.5q0 -13 0.5 -25t1.5 -23l157 196q-23 15 -54 15z" />
    <glyph glyph-name="ugrave" unicode="&#xf9;" 
d="M520 525v-525h-133v32q-38 -18 -75.5 -28.5t-72.5 -10.5q-36 0 -68.5 9t-56.5 29t-38 51.5t-14 77.5v335l134 40v-382q0 -26 15.5 -37.5t46.5 -11.5q32 0 64 8t65 19v394h133zM251 600l-105 127h148l62 -127h-105z" />
    <glyph glyph-name="uacute" unicode="&#xfa;" 
d="M387 525v-394q-33 -11 -65 -19t-64 -8q-31 0 -46.5 11.5t-15.5 37.5v382l-134 -40v-335q0 -46 14 -77.5t38 -51.5t56.5 -29t68.5 -9q35 0 72.5 10.5t75.5 28.5v-32h133v525h-133zM216 600l89 182h148l-132 -182h-105z" />
    <glyph glyph-name="ucircumflex" unicode="&#xfb;" 
d="M520 525v-525h-133v32q-38 -18 -75.5 -28.5t-72.5 -10.5q-36 0 -68.5 9t-56.5 29t-38 51.5t-14 77.5v335l134 40v-382q0 -26 15.5 -37.5t46.5 -11.5q32 0 64 8t65 19v394h133zM347 727l106 -127h-118l-37 55l-36 -55h-114l102 127h97z" />
    <glyph glyph-name="udieresis" unicode="&#xfc;" 
d="M520 525v-525h-133v32q-38 -18 -75.5 -28.5t-72.5 -10.5q-36 0 -68.5 9t-56.5 29t-38 51.5t-14 77.5v335l134 40v-382q0 -26 15.5 -37.5t46.5 -11.5q32 0 64 8t65 19v394h133zM124 727h134v-127h-134v127zM339 727h134v-127h-134v127z" />
    <glyph glyph-name="yacute" unicode="&#xfd;" 
d="M388 -9q0 -26 -9 -41t-26 -22.5t-42 -10t-57 -2.5q-10 0 -26 1t-35 3.5t-40 6t-40 8.5v-106q103 -23 187 -23q48 0 88.5 10t70 31t46 52.5t16.5 74.5v552h-133v-375q-38 -11 -70.5 -18.5t-58.5 -7.5q-31 0 -46.5 10.5t-15.5 36.5v364l-134 -40v-317q0 -45 14 -77
t38 -51.5t56.5 -28.5t68.5 -9q35 0 70 9t78 23v-53zM221 600l89 182h148l-132 -182h-105z" />
    <glyph glyph-name="thorn" unicode="&#xfe;" horiz-adv-x="560" 
d="M312 -7q-27 0 -54.5 4t-59.5 14v-167l-134 -40v909l134 40v-250q27 13 55.5 20.5t58.5 7.5q63 0 105 -18.5t68 -53t37 -83t11 -108.5t-11 -110.5t-37 -87t-68 -57t-105 -20.5zM198 118q31 -9 55.5 -12t47.5 -3q28 0 46.5 13.5t29 36.5t14.5 52.5t4 62.5t-3.5 61t-13.5 48
t-28.5 31.5t-47.5 11.5q-26 0 -52.5 -7t-51.5 -18v-277z" />
    <glyph glyph-name="ydieresis" unicode="&#xff;" 
d="M388 44q-43 -14 -78 -23t-70 -9q-36 0 -68.5 9t-56.5 28.5t-38 51.5t-14 77v317l134 40v-364q0 -26 15.5 -36.5t46.5 -10.5q26 0 58.5 7.5t70.5 18.5v375h133v-552q0 -43 -16.5 -74.5t-46 -52.5t-70 -31t-88.5 -10q-84 0 -187 23v106q19 -5 40 -8.5t40 -6t35 -3.5t26 -1
q32 0 57 2.5t42 10t26 22.5t9 41v53zM124 727h134v-127h-134v127zM339 727h134v-127h-134v127z" />
    <glyph glyph-name="Amacron" unicode="&#x100;" horiz-adv-x="651" 
d="M176 882h300v-87h-300v87zM451 175h-251l-55 -175h-139l236 727h169l235 -727h-140zM237 290h177l-88 290z" />
    <glyph glyph-name="amacron" unicode="&#x101;" horiz-adv-x="559" 
d="M368 33q-35 -20 -79.5 -30t-79.5 -10q-75 0 -121 43t-46 124q0 47 16 82t53.5 58t99 35t153.5 14v15q0 18 -10.5 29t-28.5 17t-43 8t-53 2q-31 0 -68.5 -5t-75.5 -13v106q48 13 97.5 18t94.5 5q47 0 87.5 -10t70 -31t46.5 -52.5t17 -74.5v-363h-130v33zM249 99
q27 0 58 10t57 25v112q-47 -1 -81.5 -4t-57.5 -11.5t-34.5 -24t-11.5 -40.5q0 -67 70 -67zM134 710h300v-87h-300v87z" />
    <glyph glyph-name="Abreve" unicode="&#x102;" horiz-adv-x="651" 
d="M283 904q2 -19 14.5 -29.5t30.5 -10.5q17 0 30 10.5t17 29.5h95q-1 -22 -10.5 -43.5t-27.5 -38t-43.5 -26.5t-59.5 -10t-60 10t-44 26.5t-27 37.5t-9 44h94zM451 175h-251l-55 -175h-139l236 727h169l235 -727h-140zM237 290h177l-88 290z" />
    <glyph glyph-name="abreve" unicode="&#x103;" horiz-adv-x="559" 
d="M368 33q-35 -20 -79.5 -30t-79.5 -10q-75 0 -121 43t-46 124q0 47 16 82t53.5 58t99 35t153.5 14v15q0 18 -10.5 29t-28.5 17t-43 8t-53 2q-31 0 -68.5 -5t-75.5 -13v106q48 13 97.5 18t94.5 5q47 0 87.5 -10t70 -31t46.5 -52.5t17 -74.5v-363h-130v33zM249 99
q27 0 58 10t57 25v112q-47 -1 -81.5 -4t-57.5 -11.5t-34.5 -24t-11.5 -40.5q0 -67 70 -67zM227 732q2 -19 14.5 -29.5t30.5 -10.5q17 0 30 10.5t17 29.5h95q-1 -22 -10.5 -43.5t-27.5 -38t-43.5 -26.5t-59.5 -10t-60 10t-44 26.5t-27 37.5t-9 44h94z" />
    <glyph glyph-name="Aogonek" unicode="&#x104;" horiz-adv-x="651" 
d="M451 175h-251l-55 -175h-139l236 727h169l235 -727h-26q-24 -19 -37.5 -42t-13.5 -46q0 -35 26 -35q13 0 23 3.5t27 13.5v-67q-17 -11 -43 -17.5t-44 -6.5q-48 0 -70.5 25t-22.5 60q0 28 15 58t42 54h-16zM237 290h177l-88 290z" />
    <glyph glyph-name="aogonek" unicode="&#x105;" horiz-adv-x="559" 
d="M368 0v33q-35 -20 -79.5 -30t-79.5 -10q-75 0 -121 43t-46 124q0 47 16 82t53.5 58t99 35t153.5 14v15q0 18 -10.5 29t-28.5 17t-43 8t-53 2q-31 0 -68.5 -5t-75.5 -13v106q48 13 97.5 18t94.5 5q47 0 87.5 -10t70 -31t46.5 -52.5t17 -74.5v-363h-18q-24 -19 -37.5 -42
t-13.5 -46q0 -35 26 -35q13 0 23 3.5t27 13.5v-67q-17 -11 -43 -17.5t-44 -6.5q-48 0 -70.5 25t-22.5 60q0 28 15 57.5t41 54.5h-13zM249 99q27 0 58 10t57 25v112q-47 -1 -81.5 -4t-57.5 -11.5t-34.5 -24t-11.5 -40.5q0 -67 70 -67z" />
    <glyph glyph-name="Cacute" unicode="&#x106;" horiz-adv-x="581" 
d="M546 139q-33 -8 -59.5 -13.5t-50.5 -8.5t-46.5 -4.5t-46.5 -1.5q-44 0 -75.5 18t-51.5 51t-29 80t-9 105q0 121 38 187t126 66q26 0 49 -1t47 -4t50 -8t58 -12v105q-60 19 -111 27.5t-109 8.5q-78 0 -133 -25.5t-89.5 -73.5t-50 -116.5t-15.5 -153.5q0 -81 15.5 -148.5
t50 -117t89.5 -77t133 -27.5q52 0 107.5 10t112.5 27v107zM241 795l62 127h148l-105 -127h-105z" />
    <glyph glyph-name="cacute" unicode="&#x107;" horiz-adv-x="477" 
d="M266 531q-62 0 -105 -19.5t-70.5 -54.5t-40 -84.5t-12.5 -109.5q0 -62 12.5 -112t39.5 -85t70 -54.5t104 -19.5q45 0 90 7t93 25v105q-54 -15 -89 -19.5t-66 -4.5q-36 0 -58.5 10t-35.5 30t-17.5 49.5t-4.5 68.5q0 36 4.5 64.5t17.5 49t35 31t58 10.5q24 0 62 -4.5
t86 -18.5v105q-42 17 -86.5 24t-86.5 7zM181 600l62 127h148l-105 -127h-105z" />
    <glyph glyph-name="Ccircumflex" unicode="&#x108;" horiz-adv-x="581" 
d="M546 32q-57 -17 -112.5 -27t-107.5 -10q-78 0 -133 27.5t-89.5 77t-50 117t-15.5 148.5q0 85 15.5 153.5t50 116.5t89.5 73.5t133 25.5q58 0 109 -8.5t111 -27.5v-105q-32 7 -58 12t-50 8t-47 4t-49 1q-88 0 -126 -66t-38 -187q0 -58 9 -105t29 -80t51.5 -51t75.5 -18
q24 0 46.5 1.5t46.5 4.5t50.5 8.5t59.5 13.5v-107zM363 922l106 -127h-118l-37 55l-36 -55h-114l102 127h97z" />
    <glyph glyph-name="ccircumflex" unicode="&#x109;" horiz-adv-x="477" 
d="M266 531q42 0 86.5 -7t86.5 -24v-105q-48 14 -86 18.5t-62 4.5q-36 0 -58 -10.5t-35 -31t-17.5 -49t-4.5 -64.5q0 -39 4.5 -68.5t17.5 -49.5t35.5 -30t58.5 -10q31 0 66 4.5t89 19.5v-105q-48 -18 -93 -25t-90 -7q-61 0 -104 19.5t-70 54.5t-39.5 85t-12.5 112
q0 60 12.5 109.5t40 84.5t70.5 54.5t105 19.5zM297 727l106 -127h-118l-37 55l-36 -55h-114l102 127h97z" />
    <glyph glyph-name="Cdotaccent" unicode="&#x10a;" horiz-adv-x="581" 
d="M546 32q-57 -17 -112.5 -27t-107.5 -10q-78 0 -133 27.5t-89.5 77t-50 117t-15.5 148.5q0 85 15.5 153.5t50 116.5t89.5 73.5t133 25.5q58 0 109 -8.5t111 -27.5v-105q-32 7 -58 12t-50 8t-47 4t-49 1q-88 0 -126 -66t-38 -187q0 -58 9 -105t29 -80t51.5 -51t75.5 -18
q24 0 46.5 1.5t46.5 4.5t50.5 8.5t59.5 13.5v-107zM239 922h134v-127h-134v127z" />
    <glyph glyph-name="cdotaccent" unicode="&#x10b;" horiz-adv-x="477" 
d="M266 531q42 0 86.5 -7t86.5 -24v-105q-48 14 -86 18.5t-62 4.5q-36 0 -58 -10.5t-35 -31t-17.5 -49t-4.5 -64.5q0 -39 4.5 -68.5t17.5 -49.5t35.5 -30t58.5 -10q31 0 66 4.5t89 19.5v-105q-48 -18 -93 -25t-90 -7q-61 0 -104 19.5t-70 54.5t-39.5 85t-12.5 112
q0 60 12.5 109.5t40 84.5t70.5 54.5t105 19.5zM180 727h134v-127h-134v127z" />
    <glyph glyph-name="Ccaron" unicode="&#x10c;" horiz-adv-x="581" 
d="M546 32q-57 -17 -112.5 -27t-107.5 -10q-78 0 -133 27.5t-89.5 77t-50 117t-15.5 148.5q0 85 15.5 153.5t50 116.5t89.5 73.5t133 25.5q58 0 109 -8.5t111 -27.5v-105q-32 7 -58 12t-50 8t-47 4t-49 1q-88 0 -126 -66t-38 -187q0 -58 9 -105t29 -80t51.5 -51t75.5 -18
q24 0 46.5 1.5t46.5 4.5t50.5 8.5t59.5 13.5v-107zM265 795l-106 127h118l37 -55l36 55h114l-102 -127h-97z" />
    <glyph glyph-name="ccaron" unicode="&#x10d;" horiz-adv-x="477" 
d="M266 531q42 0 86.5 -7t86.5 -24v-105q-48 14 -86 18.5t-62 4.5q-36 0 -58 -10.5t-35 -31t-17.5 -49t-4.5 -64.5q0 -39 4.5 -68.5t17.5 -49.5t35.5 -30t58.5 -10q31 0 66 4.5t89 19.5v-105q-48 -18 -93 -25t-90 -7q-61 0 -104 19.5t-70 54.5t-39.5 85t-12.5 112
q0 60 12.5 109.5t40 84.5t70.5 54.5t105 19.5zM199 600l-106 127h118l37 -55l36 55h114l-102 -127h-97z" />
    <glyph glyph-name="Dcaron" unicode="&#x10e;" horiz-adv-x="673" 
d="M67 0v727h263q87 0 143 -24.5t89 -70.5t45.5 -110.5t12.5 -145.5q0 -83 -12 -152t-44 -119t-88.5 -77.5t-145.5 -27.5h-263zM482 376q0 52 -6 95.5t-23 74.5t-49 48t-83 17h-116v-495h116q51 0 83 20.5t49 56t23 82.5t6 101zM265 795l-106 127h118l37 -55l36 55h114
l-102 -127h-97z" />
    <glyph glyph-name="dcaron" unicode="&#x10f;" horiz-adv-x="700" 
d="M263 530q29 0 56 -5t59 -13v200l133 40v-752h-133v28q-24 -15 -58.5 -25.5t-66.5 -10.5q-59 0 -99 19t-65 54t-35.5 84t-10.5 110q0 60 11 110t36.5 85.5t68 55.5t104.5 20zM378 399q-28 8 -56 13.5t-48 5.5q-29 0 -47 -13t-28.5 -34.5t-14 -50.5t-3.5 -61
q0 -34 3.5 -62.5t13.5 -49.5t28.5 -32.5t47.5 -11.5q23 0 53.5 9t50.5 22v265zM583 727h132l-69 -159h-103z" />
    <glyph glyph-name="Dcroat" unicode="&#x110;" horiz-adv-x="760" 
d="M10 415h122v312h263q87 0 143 -24.5t89 -70.5t45.5 -110.5t12.5 -145.5q0 -83 -12 -152t-44 -119t-88.5 -77.5t-145.5 -27.5h-263v313h-122v102zM547 376q0 52 -6 95.5t-23 74.5t-49 48t-83 17h-116v-196h121l-39 -102h-82v-197h116q51 0 83 20.5t49 56t23 82.5t6 101z
" />
    <glyph glyph-name="dcroat" unicode="&#x111;" horiz-adv-x="574" 
d="M254 658h124v54l133 40v-94h50v-78h-50v-580h-133v28q-24 -15 -58.5 -25.5t-66.5 -10.5q-59 0 -100.5 19t-68 54t-39 84t-12.5 110q0 60 12.5 110t40 85.5t71.5 55.5t106 20q29 0 56 -5t59 -13v68h-124v78zM378 399q-28 8 -56 13.5t-48 5.5q-29 0 -48.5 -13t-31.5 -34.5
t-17.5 -50.5t-5.5 -61q0 -34 5 -62.5t17 -49.5t32 -32.5t49 -11.5q23 0 53.5 9t50.5 22v265z" />
    <glyph glyph-name="Emacron" unicode="&#x112;" horiz-adv-x="601" 
d="M63 727h491v-116h-353v-186h341l-45 -116h-296v-193h353v-116h-491v727zM166 882h300v-87h-300v87z" />
    <glyph glyph-name="emacron" unicode="&#x113;" horiz-adv-x="559" 
d="M287 104q49 0 97 7t113 25v-104q-58 -20 -112.5 -29.5t-105.5 -9.5q-65 0 -110 15.5t-73.5 48t-41.5 82.5t-13 118q0 147 59.5 210.5t182.5 63.5q120 0 176.5 -60t56.5 -198q0 -16 -1 -35.5t-3 -38.5h-335q5 -49 29 -72t81 -23zM385 307q-3 57 -24.5 85.5t-77.5 28.5
q-29 0 -48.5 -7t-31.5 -21.5t-18 -36t-9 -49.5h209zM134 710h300v-87h-300v87z" />
    <glyph glyph-name="Ebreve" unicode="&#x114;" horiz-adv-x="601" 
d="M63 727h491v-116h-353v-186h341l-45 -116h-296v-193h353v-116h-491v727zM273 904q2 -19 14.5 -29.5t30.5 -10.5q17 0 30 10.5t17 29.5h95q-1 -22 -10.5 -43.5t-27.5 -38t-43.5 -26.5t-59.5 -10t-60 10t-44 26.5t-27 37.5t-9 44h94z" />
    <glyph glyph-name="ebreve" unicode="&#x115;" horiz-adv-x="559" 
d="M287 104q49 0 97 7t113 25v-104q-58 -20 -112.5 -29.5t-105.5 -9.5q-65 0 -110 15.5t-73.5 48t-41.5 82.5t-13 118q0 147 59.5 210.5t182.5 63.5q120 0 176.5 -60t56.5 -198q0 -16 -1 -35.5t-3 -38.5h-335q5 -49 29 -72t81 -23zM385 307q-3 57 -24.5 85.5t-77.5 28.5
q-29 0 -48.5 -7t-31.5 -21.5t-18 -36t-9 -49.5h209zM239 732q2 -19 14.5 -29.5t30.5 -10.5q17 0 30 10.5t17 29.5h95q-1 -22 -10.5 -43.5t-27.5 -38t-43.5 -26.5t-59.5 -10t-60 10t-44 26.5t-27 37.5t-9 44h94z" />
    <glyph glyph-name="Edotaccent" unicode="&#x116;" horiz-adv-x="601" 
d="M63 727h491v-116h-353v-186h341l-45 -116h-296v-193h353v-116h-491v727zM245 922h134v-127h-134v127z" />
    <glyph glyph-name="edotaccent" unicode="&#x117;" horiz-adv-x="559" 
d="M287 104q49 0 97 7t113 25v-104q-58 -20 -112.5 -29.5t-105.5 -9.5q-65 0 -110 15.5t-73.5 48t-41.5 82.5t-13 118q0 147 59.5 210.5t182.5 63.5q120 0 176.5 -60t56.5 -198q0 -16 -1 -35.5t-3 -38.5h-335q5 -49 29 -72t81 -23zM385 307q-3 57 -24.5 85.5t-77.5 28.5
q-29 0 -48.5 -7t-31.5 -21.5t-18 -36t-9 -49.5h209zM218 727h134v-127h-134v127z" />
    <glyph glyph-name="Eogonek" unicode="&#x118;" horiz-adv-x="601" 
d="M71 727h491v-116h-353v-186h341l-45 -116h-296v-193h353v-116h-7q-24 -19 -37.5 -42t-13.5 -46q0 -35 26 -35q13 0 23 3.5t27 13.5v-67q-17 -11 -43 -17.5t-44 -6.5q-48 0 -70.5 25t-22.5 60q0 28 15 58t42 54h-386v727z" />
    <glyph glyph-name="eogonek" unicode="&#x119;" horiz-adv-x="559" 
d="M497 32q-24 -8 -46.5 -14.5t-45.5 -11.5q-23 -18 -37.5 -44.5t-14.5 -49.5q0 -35 26 -35q13 0 23 3.5t27 13.5v-67q-17 -11 -43 -17.5t-44 -6.5q-48 0 -70.5 25t-22.5 60q0 26 12.5 53t36.5 53q-5 -1 -9.5 -1h-9.5q-65 0 -110 15.5t-73.5 48t-41.5 82.5t-13 118
q0 147 59.5 210.5t182.5 63.5q120 0 176.5 -60t56.5 -198q0 -16 -1 -35.5t-3 -38.5h-335q5 -49 29 -72t81 -23q49 0 97 7t113 25v-104v0zM385 307q-3 57 -24.5 85.5t-77.5 28.5q-29 0 -48.5 -7t-31.5 -21.5t-18 -36t-9 -49.5h209z" />
    <glyph glyph-name="Ecaron" unicode="&#x11a;" horiz-adv-x="601" 
d="M63 727h491v-116h-353v-186h341l-45 -116h-296v-193h353v-116h-491v727zM270 795l-106 127h118l37 -55l36 55h114l-102 -127h-97z" />
    <glyph glyph-name="ecaron" unicode="&#x11b;" horiz-adv-x="559" 
d="M287 104q49 0 97 7t113 25v-104q-58 -20 -112.5 -29.5t-105.5 -9.5q-65 0 -110 15.5t-73.5 48t-41.5 82.5t-13 118q0 147 59.5 210.5t182.5 63.5q120 0 176.5 -60t56.5 -198q0 -16 -1 -35.5t-3 -38.5h-335q5 -49 29 -72t81 -23zM385 307q-3 57 -24.5 85.5t-77.5 28.5
q-29 0 -48.5 -7t-31.5 -21.5t-18 -36t-9 -49.5h209zM235 600l-106 127h118l37 -55l36 55h114l-102 -127h-97z" />
    <glyph glyph-name="Gcircumflex" unicode="&#x11c;" horiz-adv-x="682" 
d="M613 416v-416h-137v27q-37 -15 -71.5 -23.5t-74.5 -8.5q-80 0 -135 27t-89.5 76t-50 117t-15.5 149q0 85 15.5 153.5t50 116.5t89.5 74t135 26q57 0 115.5 -8t121.5 -28v-110q-61 17 -115 23.5t-108 6.5q-85 0 -124 -64.5t-39 -189.5q0 -123 38.5 -188t123.5 -65
q37 0 67.5 5t65.5 14v169h-177v117h314zM385 922l106 -127h-118l-37 55l-36 -55h-114l102 127h97z" />
    <glyph glyph-name="gcircumflex" unicode="&#x11d;" horiz-adv-x="571" 
d="M372 393q-23 11 -50 18t-56 7t-46 -9.5t-26.5 -27.5t-12.5 -44.5t-3 -59.5q0 -32 3 -60.5t12.5 -49.5t26.5 -33.5t45 -12.5q26 0 53 5.5t54 13.5v253zM259 12q-63 0 -105 19t-67.5 53.5t-36 83.5t-10.5 109t10.5 107.5t35.5 79.5t66 49t103 17q29 0 60.5 -8t56.5 -23v26
h134v-550q0 -44 -16.5 -75.5t-46.5 -52.5t-70.5 -31t-88.5 -10q-42 0 -89 6t-98 18v104q19 -4 39.5 -7.5t39 -5.5t35 -3.5t27.5 -1.5q33 0 58 2.5t42 10.5t25.5 23t8.5 40v39q-29 -11 -56.5 -15t-56.5 -4zM335 727l106 -127h-118l-37 55l-36 -55h-114l102 127h97z" />
    <glyph glyph-name="Gbreve" unicode="&#x11e;" horiz-adv-x="682" 
d="M613 416v-416h-137v27q-37 -15 -71.5 -23.5t-74.5 -8.5q-80 0 -135 27t-89.5 76t-50 117t-15.5 149q0 85 15.5 153.5t50 116.5t89.5 74t135 26q57 0 115.5 -8t121.5 -28v-110q-61 17 -115 23.5t-108 6.5q-85 0 -124 -64.5t-39 -189.5q0 -123 38.5 -188t123.5 -65
q37 0 67.5 5t65.5 14v169h-177v117h314zM290 904q2 -19 14.5 -29.5t30.5 -10.5q17 0 30 10.5t17 29.5h95q-1 -22 -10.5 -43.5t-27.5 -38t-43.5 -26.5t-59.5 -10t-60 10t-44 26.5t-27 37.5t-9 44h94z" />
    <glyph glyph-name="gbreve" unicode="&#x11f;" horiz-adv-x="571" 
d="M372 393q-23 11 -50 18t-56 7t-46 -9.5t-26.5 -27.5t-12.5 -44.5t-3 -59.5q0 -32 3 -60.5t12.5 -49.5t26.5 -33.5t45 -12.5q26 0 53 5.5t54 13.5v253zM259 12q-63 0 -105 19t-67.5 53.5t-36 83.5t-10.5 109t10.5 107.5t35.5 79.5t66 49t103 17q29 0 60.5 -8t56.5 -23v26
h134v-550q0 -44 -16.5 -75.5t-46.5 -52.5t-70.5 -31t-88.5 -10q-42 0 -89 6t-98 18v104q19 -4 39.5 -7.5t39 -5.5t35 -3.5t27.5 -1.5q33 0 58 2.5t42 10.5t25.5 23t8.5 40v39q-29 -11 -56.5 -15t-56.5 -4zM239 732q2 -19 14.5 -29.5t30.5 -10.5q17 0 30 10.5t17 29.5h95
q-1 -22 -10.5 -43.5t-27.5 -38t-43.5 -26.5t-59.5 -10t-60 10t-44 26.5t-27 37.5t-9 44h94z" />
    <glyph glyph-name="Gdotaccent" unicode="&#x120;" horiz-adv-x="682" 
d="M613 416v-416h-137v27q-37 -15 -71.5 -23.5t-74.5 -8.5q-80 0 -135 27t-89.5 76t-50 117t-15.5 149q0 85 15.5 153.5t50 116.5t89.5 74t135 26q57 0 115.5 -8t121.5 -28v-110q-61 17 -115 23.5t-108 6.5q-85 0 -124 -64.5t-39 -189.5q0 -123 38.5 -188t123.5 -65
q37 0 67.5 5t65.5 14v169h-177v117h314zM270 922h134v-127h-134v127z" />
    <glyph glyph-name="gdotaccent" unicode="&#x121;" horiz-adv-x="571" 
d="M372 393q-23 11 -50 18t-56 7t-46 -9.5t-26.5 -27.5t-12.5 -44.5t-3 -59.5q0 -32 3 -60.5t12.5 -49.5t26.5 -33.5t45 -12.5q26 0 53 5.5t54 13.5v253zM259 12q-63 0 -105 19t-67.5 53.5t-36 83.5t-10.5 109t10.5 107.5t35.5 79.5t66 49t103 17q29 0 60.5 -8t56.5 -23v26
h134v-550q0 -44 -16.5 -75.5t-46.5 -52.5t-70.5 -31t-88.5 -10q-42 0 -89 6t-98 18v104q19 -4 39.5 -7.5t39 -5.5t35 -3.5t27.5 -1.5q33 0 58 2.5t42 10.5t25.5 23t8.5 40v39q-29 -11 -56.5 -15t-56.5 -4zM218 727h134v-127h-134v127z" />
    <glyph glyph-name="Gcommaaccent" unicode="&#x122;" horiz-adv-x="682" 
d="M613 416v-416h-137v27q-37 -15 -71.5 -23.5t-74.5 -8.5q-80 0 -135 27t-89.5 76t-50 117t-15.5 149q0 85 15.5 153.5t50 116.5t89.5 74t135 26q57 0 115.5 -8t121.5 -28v-110q-61 17 -115 23.5t-108 6.5q-85 0 -124 -64.5t-39 -189.5q0 -123 38.5 -188t123.5 -65
q37 0 67.5 5t65.5 14v169h-177v117h314zM277 -71h139l-67 -128h-108z" />
    <glyph glyph-name="gcommaaccent" unicode="&#x123;" horiz-adv-x="571" 
d="M372 393q-23 11 -50 18t-56 7t-46 -9.5t-26.5 -27.5t-12.5 -44.5t-3 -59.5q0 -32 3 -60.5t12.5 -49.5t26.5 -33.5t45 -12.5q26 0 53 5.5t54 13.5v253zM259 12q-63 0 -105 19t-67.5 53.5t-36 83.5t-10.5 109t10.5 107.5t35.5 79.5t66 49t103 17q29 0 60.5 -8t56.5 -23v26
h134v-550q0 -44 -16.5 -75.5t-46.5 -52.5t-70.5 -31t-88.5 -10q-42 0 -89 6t-98 18v104q19 -4 39.5 -7.5t39 -5.5t35 -3.5t27.5 -1.5q33 0 58 2.5t42 10.5t25.5 23t8.5 40v39q-29 -11 -56.5 -15t-56.5 -4zM345 623h-142l69 159h113z" />
    <glyph glyph-name="Hcircumflex" unicode="&#x124;" horiz-adv-x="686" 
d="M482 310h-279v-310h-138v727h138v-301h279v301h138v-727h-138v310zM389 922l106 -127h-118l-37 55l-36 -55h-114l102 127h97z" />
    <glyph glyph-name="hcircumflex" unicode="&#x125;" horiz-adv-x="586" 
d="M64 0v712l134 40v-257q42 17 78.5 26t80.5 9q42 0 73.5 -13t52 -35.5t30.5 -53.5t10 -67v-361h-134v361q0 31 -16 44.5t-48 13.5q-18 0 -52.5 -10t-74.5 -25v-384h-134zM342 922l106 -127h-118l-37 55l-36 -55h-114l102 127h97z" />
    <glyph glyph-name="Hbar" unicode="&#x126;" horiz-adv-x="783" 
d="M39 605h64v122h138v-122h302v122h138v-122h64v-102h-64v-503h-138v310h-302v-310h-138v503h-64v102zM543 426v77h-302v-77h302z" />
    <glyph glyph-name="hbar" unicode="&#x127;" horiz-adv-x="586" 
d="M9 658h55v54l134 40v-94h118v-78h-118v-85q42 17 78.5 26t80.5 9q42 0 73.5 -13t52 -35.5t30.5 -53.5t10 -67v-361h-134v361q0 31 -16 44.5t-48 13.5q-18 0 -52.5 -10t-74.5 -25v-384h-134v580h-55v78z" />
    <glyph glyph-name="Itilde" unicode="&#x128;" horiz-adv-x="242" 
d="M52 727h138v-727h-138v727zM62 909q20 0 33.5 -4t24.5 -9.5t21 -9.5t23 -4q14 0 20.5 7t8.5 20h86q-3 -49 -27.5 -81.5t-74.5 -32.5q-20 0 -33.5 4t-24.5 9.5t-21 9.5t-23 4q-14 0 -20.5 -7t-8.5 -20h-87q3 49 28 81.5t75 32.5z" />
    <glyph glyph-name="itilde" unicode="&#x129;" horiz-adv-x="231" 
d="M48 525h134v-525h-134v525zM57 714q20 0 33.5 -4t24.5 -9.5t21 -9.5t23 -4q14 0 20.5 7t8.5 20h86q-3 -49 -27.5 -81.5t-74.5 -32.5q-20 0 -33.5 4t-24.5 9.5t-21 9.5t-23 4q-14 0 -20.5 -7t-8.5 -20h-87q3 49 28 81.5t75 32.5z" />
    <glyph glyph-name="Imacron" unicode="&#x12a;" horiz-adv-x="242" 
d="M52 727h138v-727h-138v727zM-9 882h260v-87h-260v87z" />
    <glyph glyph-name="imacron" unicode="&#x12b;" horiz-adv-x="231" 
d="M48 525h134v-525h-134v525zM-9 710h260v-87h-260v87z" />
    <glyph glyph-name="Ibreve" unicode="&#x12c;" horiz-adv-x="242" 
d="M52 727h138v-727h-138v727zM75 904q2 -19 14.5 -29.5t30.5 -10.5q17 0 30 10.5t17 29.5h95q-1 -22 -10.5 -43.5t-27.5 -38t-43.5 -26.5t-59.5 -10t-60 10t-44 26.5t-27 37.5t-9 44h94z" />
    <glyph glyph-name="ibreve" unicode="&#x12d;" horiz-adv-x="242" 
d="M48 525h134v-525h-134v525zM74 732q2 -19 14.5 -29.5t30.5 -10.5q17 0 30 10.5t17 29.5h95q-1 -22 -10.5 -43.5t-27.5 -38t-43.5 -26.5t-59.5 -10t-60 10t-44 26.5t-27 37.5t-9 44h94z" />
    <glyph glyph-name="Iogonek" unicode="&#x12e;" horiz-adv-x="242" 
d="M52 727h138v-727h-6q-24 -19 -37.5 -42t-13.5 -46q0 -35 26 -35q13 0 23 3.5t27 13.5v-67q-17 -11 -43 -17.5t-44 -6.5q-48 0 -70.5 25t-22.5 60q0 28 15 58t42 54h-34v727z" />
    <glyph glyph-name="iogonek" unicode="&#x12f;" horiz-adv-x="231" 
d="M48 727h134v-127h-134v127zM182 525v-525h-6q-24 -19 -37.5 -42t-13.5 -46q0 -35 26 -35q13 0 23 3.5t27 13.5v-67q-17 -11 -43 -17.5t-44 -6.5q-48 0 -70.5 25t-22.5 60q0 28 15 58t42 54h-30v525h134z" />
    <glyph glyph-name="Idotaccent" unicode="&#x130;" horiz-adv-x="231" 
d="M46 727h138v-727h-138v727zM48 899h134v-127h-134v127z" />
    <glyph glyph-name="dotlessi" unicode="&#x131;" horiz-adv-x="231" 
d="M48 525h134v-525h-134v525z" />
    <glyph glyph-name="IJ" unicode="&#x132;" horiz-adv-x="680" 
d="M78 728h134v-728h-134v728zM602 727v-568q0 -37 -9 -67.5t-29 -52.5t-52 -34t-79 -12q-15 0 -35.5 1.5t-41.5 4.5t-41.5 7.5t-36.5 9.5v104q35 -6 69 -9.5t60 -3.5q32 0 44.5 14t12.5 52v554h138z" />
    <glyph glyph-name="ij" unicode="&#x133;" horiz-adv-x="523" 
d="M58 524h134v-524h-134v524zM58 727h134v-127h-134v127zM463 524v-542q0 -35 -10 -66.5t-29.5 -55.5t-48 -38.5t-64.5 -14.5q-69 0 -130 16v105q27 -6 52 -10.5t41 -4.5q30 0 42 10.5t12 38.5v562h135zM329 727h134v-127h-134v127z" />
    <glyph glyph-name="Jcircumflex" unicode="&#x134;" horiz-adv-x="395" 
d="M332 727v-568q0 -37 -9 -67.5t-29 -52.5t-52 -34t-79 -12q-15 0 -35.5 1.5t-41.5 4.5t-41.5 7.5t-36.5 9.5v104q35 -6 69 -9.5t60 -3.5q32 0 44.5 14t12.5 52v554h138zM322 922l106 -127h-118l-37 55l-36 -55h-114l102 127h97z" />
    <glyph glyph-name="jcircumflex" unicode="&#x135;" horiz-adv-x="260" 
d="M202 524v-557q0 -37 -9 -67.5t-29 -52.5t-52 -34t-79 -12q-26 0 -62.5 4.5t-68.5 12.5v106q29 -5 56 -7t49 -2q32 0 44.5 14t12.5 52v543h138zM162 727l106 -127h-118l-37 55l-36 -55h-114l102 127h97z" />
    <glyph glyph-name="Kcommaaccent" unicode="&#x136;" horiz-adv-x="632" 
d="M270 -71h139l-67 -128h-108zM55 727h138v-272l270 272h164l-354 -360l357 -367h-166l-271 279v-279h-138v727z" />
    <glyph glyph-name="kcommaaccent" unicode="&#x137;" horiz-adv-x="528" 
d="M220 -71h139l-67 -128h-108zM51 0v712l134 40v-413l189 186h159l-257 -257l262 -268h-161l-192 189v-189h-134z" />
    <glyph glyph-name="kgreenlandic" unicode="&#x138;" horiz-adv-x="553" 
d="M188 525v-186l189 186h159l-257 -257l262 -268h-161l-192 189v-189h-134v525h134z" />
    <glyph glyph-name="Lacute" unicode="&#x139;" horiz-adv-x="540" 
d="M489 0l45 116h-337v611h-138v-727h430zM84 795l62 127h148l-105 -127h-105z" />
    <glyph glyph-name="lacute" unicode="&#x13a;" horiz-adv-x="231" 
d="M48 0h134v752l-134 -40v-712zM45 795l62 127h148l-105 -127h-105z" />
    <glyph glyph-name="Lcommaaccent" unicode="&#x13b;" horiz-adv-x="540" 
d="M59 0v727h138v-611h337l-45 -116h-430zM234 -71h139l-67 -128h-108z" />
    <glyph glyph-name="lcommaaccent" unicode="&#x13c;" horiz-adv-x="231" 
d="M48 712l134 40v-752h-134v712zM50 -71h139l-67 -128h-108z" />
    <glyph glyph-name="Lcaron" unicode="&#x13d;" horiz-adv-x="540" 
d="M59 0v727h138v-611h338l-45 -116h-431zM346 727h132l-69 -159h-103z" />
    <glyph glyph-name="lcaron" unicode="&#x13e;" horiz-adv-x="370" 
d="M48 712l134 40v-752h-134v712zM251 727h132l-69 -159h-103z" />
    <glyph glyph-name="Ldot" unicode="&#x13f;" horiz-adv-x="540" 
d="M59 0v727h138v-611h339l-45 -116h-432zM301 464h134v-149h-134v149z" />
    <glyph glyph-name="ldot" unicode="&#x140;" horiz-adv-x="380" 
d="M44 712l134 40v-752h-134v712zM221 445h134v-149h-134v149z" />
    <glyph glyph-name="Lslash" unicode="&#x141;" horiz-adv-x="660" 
d="M283 287v-171h338l-45 -116h-431v212l-64 -34l-45 76l109 59v414h138v-340l200 109l45 -77z" />
    <glyph glyph-name="lslash" unicode="&#x142;" horiz-adv-x="270" 
d="M12 350l51 29v333l134 40v-297l61 35v-102l-61 -35v-353h-134v277l-51 -29v102z" />
    <glyph glyph-name="Nacute" unicode="&#x143;" horiz-adv-x="702" 
d="M66 0h133v554l248 -554h189v727h-133v-554l-248 554h-189v-727zM289 795l62 127h148l-105 -127h-105z" />
    <glyph glyph-name="nacute" unicode="&#x144;" 
d="M194 0v383q92 37 138 37q31 0 46 -13t15 -44v-363h133v363q0 36 -9.5 67t-29 53.5t-50.5 35t-73 12.5q-46 0 -87 -10t-83 -30v43l-135 -40v-494h135zM224 600l62 127h148l-105 -127h-105z" />
    <glyph glyph-name="Ncommaaccent" unicode="&#x145;" horiz-adv-x="702" 
d="M66 727h189l248 -554v554h133v-727h-189l-248 554v-554h-133v727zM292 -71h139l-67 -128h-108z" />
    <glyph glyph-name="ncommaaccent" unicode="&#x146;" 
d="M59 0v494l135 40v-43q42 20 83 30t87 10q42 0 73 -12.5t50.5 -35t29 -53.5t9.5 -67v-363h-133v363q0 31 -15 44t-46 13q-46 0 -138 -37v-383h-135zM242 -71h139l-67 -128h-108z" />
    <glyph glyph-name="Ncaron" unicode="&#x147;" horiz-adv-x="702" 
d="M66 727h189l248 -554v554h133v-727h-189l-248 554v-554h-133v727zM315 795l-106 127h118l37 -55l36 55h114l-102 -127h-97z" />
    <glyph glyph-name="ncaron" unicode="&#x148;" 
d="M59 0v494l135 40v-43q42 20 83 30t87 10q42 0 73 -12.5t50.5 -35t29 -53.5t9.5 -67v-363h-133v363q0 31 -15 44t-46 13q-46 0 -138 -37v-383h-135zM240 600l-106 127h118l37 -55l36 55h114l-102 -127h-97z" />
    <glyph glyph-name="napostrophe" unicode="&#x149;" horiz-adv-x="620" 
d="M106 0v494l135 40v-43q42 20 83 30t87 10q42 0 73 -12.5t50.5 -35t29 -53.5t9.5 -67v-363h-133v363q0 31 -15 44t-46 13q-46 0 -138 -37v-383h-135zM48 727h132l-74 -159h-98z" />
    <glyph glyph-name="Eng" unicode="&#x14a;" horiz-adv-x="702" 
d="M66 727h179l258 -494v494h133v-729q0 -38 -9 -68t-29 -52t-52 -33.5t-79 -11.5q-15 0 -36 1.5t-42.5 4.5t-42.5 7.5t-37 9.5v101q40 -8 73.5 -11t60.5 -3q33 0 46.5 13t13.5 44l-304 554v-554h-133v727z" />
    <glyph glyph-name="eng" unicode="&#x14b;" 
d="M59 0v494l135 40v-43q42 20 83 30t87 10q42 0 73 -12.5t50.5 -35t29 -53.5t9.5 -67v-392q0 -38 -9 -68t-28.5 -51.5t-52 -33t-78.5 -11.5q-29 0 -56.5 4t-52.5 11v100q37 -6 84 -6q33 0 46.5 13t13.5 44v390q0 31 -15 44t-46 13q-46 0 -138 -37v-383h-135z" />
    <glyph glyph-name="Omacron" unicode="&#x14c;" horiz-adv-x="687" 
d="M343 111q86 0 121 61.5t35 188.5q0 125 -35 191t-121 66t-121 -65.5t-35 -191.5q0 -127 35 -188.5t121 -61.5zM343 -5q-83 0 -139 23.5t-90.5 70t-49.5 114.5t-15 158t15 159.5t49.5 117t90.5 72t139 24.5q82 0 138.5 -24.5t91 -72t49.5 -117t15 -159.5t-15 -158
t-49.5 -114.5t-91 -70t-138.5 -23.5zM191 882h300v-87h-300v87z" />
    <glyph glyph-name="omacron" unicode="&#x14d;" horiz-adv-x="569" 
d="M284 -7q-65 0 -111.5 19t-75.5 53.5t-42.5 83.5t-13.5 109q0 63 13.5 114t42.5 86t75 54t112 19t112 -19t75 -54t42 -86t13 -114q0 -61 -13 -110t-42 -83.5t-75 -53t-112 -18.5zM284 421q-55 0 -80 -37.5t-25 -125.5q0 -86 25 -120.5t80 -34.5q51 0 77.5 34.5t26.5 120.5
q0 88 -26.5 125.5t-77.5 37.5zM136 710h300v-87h-300v87z" />
    <glyph glyph-name="Obreve" unicode="&#x14e;" horiz-adv-x="687" 
d="M343 111q86 0 121 61.5t35 188.5q0 125 -35 191t-121 66t-121 -65.5t-35 -191.5q0 -127 35 -188.5t121 -61.5zM343 -5q-83 0 -139 23.5t-90.5 70t-49.5 114.5t-15 158t15 159.5t49.5 117t90.5 72t139 24.5q82 0 138.5 -24.5t91 -72t49.5 -117t15 -159.5t-15 -158
t-49.5 -114.5t-91 -70t-138.5 -23.5zM295 904q2 -19 14.5 -29.5t30.5 -10.5q17 0 30 10.5t17 29.5h95q-1 -22 -10.5 -43.5t-27.5 -38t-43.5 -26.5t-59.5 -10t-60 10t-44 26.5t-27 37.5t-9 44h94z" />
    <glyph glyph-name="obreve" unicode="&#x14f;" horiz-adv-x="569" 
d="M284 -7q-65 0 -111.5 19t-75.5 53.5t-42.5 83.5t-13.5 109q0 63 13.5 114t42.5 86t75 54t112 19t112 -19t75 -54t42 -86t13 -114q0 -61 -13 -110t-42 -83.5t-75 -53t-112 -18.5zM284 421q-55 0 -80 -37.5t-25 -125.5q0 -86 25 -120.5t80 -34.5q51 0 77.5 34.5t26.5 120.5
q0 88 -26.5 125.5t-77.5 37.5zM240 732q2 -19 14.5 -29.5t30.5 -10.5q17 0 30 10.5t17 29.5h95q-1 -22 -10.5 -43.5t-27.5 -38t-43.5 -26.5t-59.5 -10t-60 10t-44 26.5t-27 37.5t-9 44h94z" />
    <glyph glyph-name="Ohungarumlaut" unicode="&#x150;" horiz-adv-x="687" 
d="M343 111q-86 0 -121 61.5t-35 188.5q0 126 35 191.5t121 65.5t121 -66t35 -191q0 -127 -35 -188.5t-121 -61.5zM343 -5q82 0 138.5 23.5t91 70t49.5 114.5t15 158t-15 159.5t-49.5 117t-91 72t-138.5 24.5q-83 0 -139 -24.5t-90.5 -72t-49.5 -117t-15 -159.5t15 -158
t49.5 -114.5t90.5 -70t139 -23.5zM211 795l89 182h138l-132 -182h-95zM380 795l89 182h138l-132 -182h-95z" />
    <glyph glyph-name="ohungarumlaut" unicode="&#x151;" horiz-adv-x="569" 
d="M284 -7q-65 0 -111.5 19t-75.5 53.5t-42.5 83.5t-13.5 109q0 63 13.5 114t42.5 86t75 54t112 19t112 -19t75 -54t42 -86t13 -114q0 -61 -13 -110t-42 -83.5t-75 -53t-112 -18.5zM284 421q-55 0 -80 -37.5t-25 -125.5q0 -86 25 -120.5t80 -34.5q51 0 77.5 34.5t26.5 120.5
q0 88 -26.5 125.5t-77.5 37.5zM121 600l89 182h138l-132 -182h-95zM290 600l89 182h138l-132 -182h-95z" />
    <glyph glyph-name="OE" unicode="&#x152;" horiz-adv-x="990" 
d="M343 -5q-83 0 -139 23.5t-90.5 70t-49.5 114.5t-15 158t15 159.5t49.5 117t90.5 72t139 24.5q49 0 88.5 -11.5t71.5 -43.5v47h447v-108h-312v-196h304l-42 -110h-262v-204h312v-108h-447v48q-32 -32 -71.5 -42.5t-88.5 -10.5zM343 111q86 0 121 61.5t35 188.5
q0 125 -35 191t-121 66t-121 -65.5t-35 -191.5q0 -127 35 -188.5t121 -61.5z" />
    <glyph glyph-name="oe" unicode="&#x153;" horiz-adv-x="899" 
d="M648 104q49 0 97 7t113 25v-104q-58 -20 -112.5 -29.5t-105.5 -9.5q-69 0 -116 22t-73 59q-26 -35 -71 -58t-111 -23q-65 0 -111.5 19t-75.5 53.5t-42.5 83.5t-13.5 109q0 63 13.5 114t42.5 86t75 54t112 19t112 -24t72 -61q28 39 76.5 62t114.5 23q120 0 176.5 -60
t56.5 -198q0 -16 -1 -35.5t-3 -38.5h-339q5 -49 31 -72t83 -23zM269 421q-55 0 -80 -37.5t-25 -125.5q0 -86 25 -120.5t80 -34.5q51 0 79.5 34.5t28.5 120.5q0 88 -28.5 125.5t-79.5 37.5zM746 307q-3 57 -24.5 85.5t-77.5 28.5q-58 0 -82 -28.5t-29 -85.5h213z" />
    <glyph glyph-name="Racute" unicode="&#x154;" horiz-adv-x="653" 
d="M471 0h155l-153 274q61 23 90 75t29 143q0 64 -15 109t-45.5 73t-77 40.5t-108.5 12.5h-278v-727h137v254h126zM205 370v241h132q60 0 88.5 -26.5t28.5 -92.5q0 -64 -28.5 -93t-88.5 -29h-132zM226 795l62 127h148l-105 -127h-105z" />
    <glyph glyph-name="racute" unicode="&#x155;" horiz-adv-x="421" 
d="M191 0v391q47 12 79 16t62 4q15 0 30.5 -0.5t32.5 -1.5v116q-20 2 -36 2.5t-30 0.5q-37 0 -71 -7t-67 -21v35l-134 -40v-495h134zM149 600l62 127h148l-105 -127h-105z" />
    <glyph glyph-name="Rcommaaccent" unicode="&#x156;" horiz-adv-x="653" 
d="M331 254h-126v-254h-137v727h278q62 0 108.5 -12.5t77 -40.5t45.5 -73t15 -109q0 -91 -29 -143t-90 -75l153 -274h-155zM337 370q60 0 88.5 29t28.5 93q0 66 -28.5 92.5t-88.5 26.5h-132v-241h132zM270 -71h139l-67 -128h-108z" />
    <glyph glyph-name="rcommaaccent" unicode="&#x157;" horiz-adv-x="421" 
d="M57 0v495l134 40v-35q33 14 67 21t71 7q14 0 30 -0.5t36 -2.5v-116q-11 1 -24 1.5t-42 0.5q-37 0 -70 -5.5t-68 -14.5v-391h-134zM57 -71h139l-67 -128h-108z" />
    <glyph glyph-name="Rcaron" unicode="&#x158;" horiz-adv-x="653" 
d="M331 254h-126v-254h-137v727h278q62 0 108.5 -12.5t77 -40.5t45.5 -73t15 -109q0 -91 -29 -143t-90 -75l153 -274h-155zM337 370q60 0 88.5 29t28.5 93q0 66 -28.5 92.5t-88.5 26.5h-132v-241h132zM258 795l-106 127h118l37 -55l36 55h114l-102 -127h-97z" />
    <glyph glyph-name="rcaron" unicode="&#x159;" horiz-adv-x="421" 
d="M57 0v495l134 40v-35q35 13 67.5 20.5t70.5 7.5q14 0 30 -0.5t36 -2.5v-116q-11 1 -20 1.5t-17 0.5h-29q-38 0 -70.5 -6t-67.5 -14v-391h-134zM178 600l-106 127h118l37 -55l36 55h114l-102 -127h-97z" />
    <glyph glyph-name="Sacute" unicode="&#x15a;" horiz-adv-x="570" 
d="M497 700q-55 18 -109 26t-101 8q-131 0 -190 -52.5t-59 -146.5q0 -49 15 -85t43.5 -62.5t70 -44.5t95.5 -31q35 -9 61.5 -17.5t44 -19t26.5 -25t9 -35.5q0 -57 -30.5 -85t-96.5 -28q-52 0 -105.5 7.5t-118.5 20.5v-104q58 -18 119 -27.5t115 -9.5q116 0 181.5 58
t65.5 170q0 48 -14.5 82.5t-42 58.5t-68.5 41t-95 31q-39 10 -66.5 18.5t-44.5 19.5t-25 27t-8 41q0 27 10.5 43.5t28.5 26t41 12.5t48 3q44 0 94 -5.5t106 -20.5v105zM214 795l62 127h148l-105 -127h-105z" />
    <glyph glyph-name="sacute" unicode="&#x15b;" horiz-adv-x="516" 
d="M448 502q-51 12 -101.5 20.5t-101.5 8.5q-44 0 -81.5 -8.5t-65.5 -26.5t-44 -47t-16 -71q0 -71 49 -108.5t149 -56.5q31 -7 51.5 -12.5t32 -12.5t16 -16t4.5 -22q0 -29 -23.5 -38t-80.5 -9q-38 0 -85.5 6t-105.5 22v-104q19 -8 45 -14t53.5 -10.5t54.5 -7t47 -2.5
q109 0 169.5 37t60.5 123q0 72 -50.5 111.5t-153.5 59.5q-28 5 -47 10.5t-30 12t-16 15.5t-5 21q0 20 17 29t56 9q45 0 95 -6.5t107 -18.5v106zM177 600l62 127h148l-105 -127h-105z" />
    <glyph glyph-name="Scircumflex" unicode="&#x15c;" horiz-adv-x="570" 
d="M497 595q-56 15 -106 20.5t-94 5.5q-25 0 -48 -3t-41 -12.5t-28.5 -26t-10.5 -43.5q0 -25 8 -41t25 -27t44.5 -19.5t66.5 -18.5q54 -14 95 -31t68.5 -41t42 -58.5t14.5 -82.5q0 -112 -65.5 -170t-181.5 -58q-54 0 -115 9.5t-119 27.5v104q65 -13 118.5 -20.5t105.5 -7.5
q66 0 96.5 28t30.5 85q0 21 -9 35.5t-26.5 25t-44 19t-61.5 17.5q-54 13 -95.5 31t-70 44.5t-43.5 62.5t-15 85q0 94 59 146.5t190 52.5q47 0 101 -8t109 -26v-105zM328 922l106 -127h-118l-37 55l-36 -55h-114l102 127h97z" />
    <glyph glyph-name="scircumflex" unicode="&#x15d;" horiz-adv-x="516" 
d="M448 396q-57 12 -107 18.5t-95 6.5q-39 0 -56 -9t-17 -29q0 -12 5 -21t16 -15.5t30 -12t47 -10.5q103 -20 153.5 -59.5t50.5 -111.5q0 -86 -60.5 -123t-169.5 -37q-20 0 -47 2.5t-54.5 7t-53.5 10.5t-45 14v104q58 -16 105.5 -22t85.5 -6q57 0 80.5 9t23.5 38
q0 13 -4.5 22t-16 16t-32 12.5t-51.5 12.5q-100 19 -149 56.5t-49 108.5q0 42 16 71t44 47t65.5 26.5t81.5 8.5q51 0 101.5 -8.5t101.5 -20.5v-106zM292 727l106 -127h-118l-37 55l-36 -55h-114l102 127h97z" />
    <glyph glyph-name="Scedilla" unicode="&#x15e;" horiz-adv-x="570" 
d="M497 595q-56 15 -106 20.5t-94 5.5q-25 0 -48 -3t-41 -12.5t-28.5 -26t-10.5 -43.5q0 -25 8 -41t25 -27t44.5 -19.5t66.5 -18.5q54 -14 95 -31t68.5 -41t42 -58.5t14.5 -82.5q0 -112 -65.5 -170t-181.5 -58q-54 0 -115 9.5t-119 27.5v104q65 -13 118.5 -20.5t105.5 -7.5
q66 0 96.5 28t30.5 85q0 21 -9 35.5t-26.5 25t-44 19t-61.5 17.5q-54 13 -95.5 31t-70 44.5t-43.5 62.5t-15 85q0 94 59 146.5t190 52.5q47 0 101 -8t109 -26v-105zM236 -71h139l-67 -128h-108z" />
    <glyph glyph-name="scedilla" unicode="&#x15f;" horiz-adv-x="500" 
d="M434 399q-56 12 -105.5 18.5t-93.5 6.5q-73 0 -73 -41q0 -24 23.5 -36t77.5 -23q100 -21 148.5 -60t48.5 -111q0 -86 -58.5 -124t-163.5 -38q-20 0 -45.5 2.5t-52.5 7t-52 10.5t-43 14v101q56 -16 103.5 -22t84.5 -6q54 0 78.5 11.5t24.5 40.5q0 13 -5.5 22t-18 15.5
t-33 12.5t-50.5 13q-96 22 -143.5 58t-47.5 107q0 42 15.5 71t42.5 47t63.5 26.5t78.5 8.5q49 0 98 -8.5t98 -20.5v-103zM187 -71h139l-67 -128h-108z" />
    <glyph glyph-name="Scaron" unicode="&#x160;" horiz-adv-x="570" 
d="M497 595q-56 15 -106 20.5t-94 5.5q-25 0 -48 -3t-41 -12.5t-28.5 -26t-10.5 -43.5q0 -25 8 -41t25 -27t44.5 -19.5t66.5 -18.5q54 -14 95 -31t68.5 -41t42 -58.5t14.5 -82.5q0 -112 -65.5 -170t-181.5 -58q-54 0 -115 9.5t-119 27.5v104q65 -13 118.5 -20.5t105.5 -7.5
q66 0 96.5 28t30.5 85q0 21 -9 35.5t-26.5 25t-44 19t-61.5 17.5q-54 13 -95.5 31t-70 44.5t-43.5 62.5t-15 85q0 94 59 146.5t190 52.5q47 0 101 -8t109 -26v-105zM235 795l-106 127h118l37 -55l36 55h114l-102 -127h-97z" />
    <glyph glyph-name="scaron" unicode="&#x161;" horiz-adv-x="500" 
d="M434 399q-56 12 -105.5 18.5t-93.5 6.5q-73 0 -73 -41q0 -24 23.5 -36t77.5 -23q100 -21 148.5 -60t48.5 -111q0 -86 -58.5 -124t-163.5 -38q-20 0 -45.5 2.5t-52.5 7t-52 10.5t-43 14v101q56 -16 103.5 -22t84.5 -6q54 0 78.5 11.5t24.5 40.5q0 13 -5.5 22t-18 15.5
t-33 12.5t-50.5 13q-96 22 -143.5 58t-47.5 107q0 42 15.5 71t42.5 47t63.5 26.5t78.5 8.5q49 0 98 -8.5t98 -20.5v-103zM190 600l-106 127h118l37 -55l36 55h114l-102 -127h-97z" />
    <glyph glyph-name="Tcommaaccent" unicode="&#x162;" horiz-adv-x="647" 
d="M24 727h608l-45 -116h-202v-611h-138v611h-223v116zM246 -71h139l-67 -128h-108z" />
    <glyph glyph-name="tcommaaccent" unicode="&#x163;" horiz-adv-x="430" 
d="M403 12q-34 -11 -69 -17t-67 -6q-42 0 -72.5 13t-50 36.5t-28.5 54.5t-9 67v255h-92v110h92v132l132 40v-172h147v-110h-147v-257q0 -32 8.5 -45.5t40.5 -13.5q17 0 48.5 5t66.5 13v-105zM175 -71h139l-67 -128h-108z" />
    <glyph glyph-name="Tcaron" unicode="&#x164;" horiz-adv-x="647" 
d="M24 727h608l-45 -116h-202v-611h-138v611h-223v116zM273 795l-106 127h118l37 -55l36 55h114l-102 -127h-97z" />
    <glyph glyph-name="tcaron" unicode="&#x165;" horiz-adv-x="530" 
d="M403 12q-34 -11 -69 -17t-67 -6q-42 0 -72.5 13t-50 36.5t-28.5 54.5t-9 67v255h-92v110h92v132l132 40v-172h147v-110h-147v-257q0 -32 8.5 -45.5t40.5 -13.5q17 0 48.5 5t66.5 13v-105zM411 727h132l-69 -159h-103z" />
    <glyph glyph-name="Tbar" unicode="&#x166;" horiz-adv-x="647" 
d="M24 727h608l-45 -116h-202v-134h145v-102h-145v-375h-138v375h-132v102h132v134h-223v116z" />
    <glyph glyph-name="tbar" unicode="&#x167;" horiz-adv-x="414" 
d="M27 355h91v58h-91v112h91v132l134 40v-172h146v-112h-146v-58h147v-92h-147v-107q0 -32 8 -45.5t40 -13.5q17 0 48.5 5t66.5 13v-105q-34 -11 -69 -17t-67 -6q-42 0 -72.5 13t-50 36.5t-29 54.5t-9.5 67v105h-91v92z" />
    <glyph glyph-name="Utilde" unicode="&#x168;" horiz-adv-x="676" 
d="M203 238q0 -69 36.5 -97t96.5 -28q63 0 99 28t36 97v489h140v-490q0 -66 -18 -112t-53.5 -75t-86.5 -42t-117 -13t-116.5 13t-85 42t-52 75t-17.5 112v490h138v-489zM281 909q20 0 33.5 -4t24.5 -9.5t21 -9.5t23 -4q14 0 20.5 7t8.5 20h86q-3 -49 -27.5 -81.5
t-74.5 -32.5q-20 0 -33.5 4t-24.5 9.5t-21 9.5t-23 4q-14 0 -20.5 -7t-8.5 -20h-87q3 49 28 81.5t75 32.5z" />
    <glyph glyph-name="utilde" unicode="&#x169;" 
d="M520 525v-525h-133v32q-38 -18 -75.5 -28.5t-72.5 -10.5q-36 0 -68.5 9t-56.5 29t-38 51.5t-14 77.5v335l134 40v-382q0 -26 15.5 -37.5t46.5 -11.5q32 0 64 8t65 19v394h133zM230 714q20 0 33.5 -4t24.5 -9.5t21 -9.5t23 -4q14 0 20.5 7t8.5 20h86q-3 -49 -27.5 -81.5
t-74.5 -32.5q-20 0 -33.5 4t-24.5 9.5t-21 9.5t-23 4q-14 0 -20.5 -7t-8.5 -20h-87q3 49 28 81.5t75 32.5z" />
    <glyph glyph-name="Umacron" unicode="&#x16a;" horiz-adv-x="676" 
d="M203 238q0 -69 36.5 -97t96.5 -28q63 0 99 28t36 97v489h140v-490q0 -66 -18 -112t-53.5 -75t-86.5 -42t-117 -13t-116.5 13t-85 42t-52 75t-17.5 112v490h138v-489zM184 882h300v-87h-300v87z" />
    <glyph glyph-name="umacron" unicode="&#x16b;" 
d="M520 525v-525h-133v32q-38 -18 -75.5 -28.5t-72.5 -10.5q-36 0 -68.5 9t-56.5 29t-38 51.5t-14 77.5v335l134 40v-382q0 -26 15.5 -37.5t46.5 -11.5q32 0 64 8t65 19v394h133zM146 710h300v-87h-300v87z" />
    <glyph glyph-name="Ubreve" unicode="&#x16c;" horiz-adv-x="676" 
d="M203 238q0 -69 36.5 -97t96.5 -28q63 0 99 28t36 97v489h140v-490q0 -66 -18 -112t-53.5 -75t-86.5 -42t-117 -13t-116.5 13t-85 42t-52 75t-17.5 112v490h138v-489zM295 904q2 -19 14.5 -29.5t30.5 -10.5q17 0 30 10.5t17 29.5h95q-1 -22 -10.5 -43.5t-27.5 -38
t-43.5 -26.5t-59.5 -10t-60 10t-44 26.5t-27 37.5t-9 44h94z" />
    <glyph glyph-name="ubreve" unicode="&#x16d;" 
d="M520 525v-525h-133v32q-38 -18 -75.5 -28.5t-72.5 -10.5q-36 0 -68.5 9t-56.5 29t-38 51.5t-14 77.5v335l134 40v-382q0 -26 15.5 -37.5t46.5 -11.5q32 0 64 8t65 19v394h133zM248 732q2 -19 14.5 -29.5t30.5 -10.5q17 0 30 10.5t17 29.5h95q-1 -22 -10.5 -43.5
t-27.5 -38t-43.5 -26.5t-59.5 -10t-60 10t-44 26.5t-27 37.5t-9 44h94z" />
    <glyph glyph-name="Uring" unicode="&#x16e;" horiz-adv-x="676" 
d="M203 238q0 -69 36.5 -97t96.5 -28q63 0 99 28t36 97v489h140v-490q0 -66 -18 -112t-53.5 -75t-86.5 -42t-117 -13t-116.5 13t-85 42t-52 75t-17.5 112v490h138v-489zM242 851q0 44 29 66t65 22t64 -21.5t28 -66.5q0 -44 -28 -64t-64 -20q-18 0 -35 5t-30 15t-21 26t-8 38
zM311 851q0 -21 25 -21q24 0 24 21q0 9 -6.5 15.5t-17.5 6.5t-18 -6.5t-7 -15.5z" />
    <glyph glyph-name="uring" unicode="&#x16f;" 
d="M520 525v-525h-133v32q-38 -18 -75.5 -28.5t-72.5 -10.5q-36 0 -68.5 9t-56.5 29t-38 51.5t-14 77.5v335l134 40v-382q0 -26 15.5 -37.5t46.5 -11.5q32 0 64 8t65 19v394h133zM205 664q0 44 29 66t65 22t64 -21.5t28 -66.5q0 -44 -28 -64t-64 -20q-18 0 -35 5t-30 15
t-21 26t-8 38zM274 664q0 -21 25 -21q24 0 24 21q0 9 -6.5 15.5t-17.5 6.5t-18 -6.5t-7 -15.5z" />
    <glyph glyph-name="Uhungarumlaut" unicode="&#x170;" horiz-adv-x="676" 
d="M203 727h-138v-490q0 -66 17.5 -112t52 -75t85 -42t116.5 -13t117 13t86.5 42t53.5 75t18 112v490h-140v-489q0 -69 -36 -97t-99 -28q-60 0 -96.5 28t-36.5 97v489zM205 795l89 182h138l-132 -182h-95zM374 795l89 182h138l-132 -182h-95z" />
    <glyph glyph-name="uhungarumlaut" unicode="&#x171;" 
d="M387 525v-394q-33 -11 -65 -19t-64 -8q-31 0 -46.5 11.5t-15.5 37.5v382l-134 -40v-335q0 -46 14 -77.5t38 -51.5t56.5 -29t68.5 -9q35 0 72.5 10.5t75.5 28.5v-32h133v525h-133zM134 600l89 182h138l-132 -182h-95zM303 600l89 182h138l-132 -182h-95z" />
    <glyph glyph-name="Uogonek" unicode="&#x172;" horiz-adv-x="676" 
d="M453 8q-13 -4 -27 -6t-29 -4q-23 -19 -34.5 -42t-11.5 -44q0 -35 26 -35q13 0 23 3.5t27 13.5v-67q-17 -11 -43 -17.5t-44 -6.5q-48 0 -70.5 25t-22.5 60q0 25 13 55.5t38 52.5q-56 4 -99.5 19t-73 44t-45 72.5t-15.5 105.5v490h138v-489q0 -69 36.5 -97t96.5 -28
q63 0 99 28t36 97v489h140v-490q0 -99 -40.5 -152.5t-117.5 -76.5z" />
    <glyph glyph-name="uogonek" unicode="&#x173;" 
d="M512 0q-24 -19 -37.5 -42t-13.5 -46q0 -35 26 -35q13 0 23 3.5t27 13.5v-67q-17 -11 -43 -17.5t-44 -6.5q-48 0 -70.5 25t-22.5 60q0 28 15 58t42 54h-27v32q-38 -18 -75.5 -28.5t-72.5 -10.5q-36 0 -68.5 9t-56.5 29t-38 51.5t-14 77.5v335l134 40v-382
q0 -26 15.5 -37.5t46.5 -11.5q32 0 64 8t65 19v394h133v-525h-8z" />
    <glyph glyph-name="Wcircumflex" unicode="&#x174;" horiz-adv-x="932" 
d="M554 727l124 -595l107 595h137l-149 -727h-186l-121 553l-122 -553h-186l-148 727h137l106 -595l125 595h176zM516 922l106 -127h-118l-37 55l-36 -55h-114l102 127h97z" />
    <glyph glyph-name="wcircumflex" unicode="&#x175;" horiz-adv-x="820" 
d="M142 525l92 -392l91 392h172l92 -392l88 392h132l-136 -525h-167l-95 391l-96 -391h-167l-138 525h132zM459 727l106 -127h-118l-37 55l-36 -55h-114l102 127h97z" />
    <glyph glyph-name="Ycircumflex" unicode="&#x176;" horiz-adv-x="642" 
d="M391 0h-139v318l-255 409h152l172 -281l172 281h152l-254 -410v-317zM371 922l106 -127h-118l-37 55l-36 -55h-114l102 127h97z" />
    <glyph glyph-name="ycircumflex" unicode="&#x177;" 
d="M388 44q-43 -14 -78 -23t-70 -9q-36 0 -68.5 9t-56.5 28.5t-38 51.5t-14 77v317l134 40v-364q0 -26 15.5 -36.5t46.5 -10.5q26 0 58.5 7.5t70.5 18.5v375h133v-552q0 -43 -16.5 -74.5t-46 -52.5t-70 -31t-88.5 -10q-84 0 -187 23v106q19 -5 40 -8.5t40 -6t35 -3.5t26 -1
q32 0 57 2.5t42 10t26 22.5t9 41v53zM338 727l106 -127h-118l-37 55l-36 -55h-114l102 127h97z" />
    <glyph glyph-name="Ydieresis" unicode="&#x178;" horiz-adv-x="642" 
d="M391 0h-139v318l-255 409h152l172 -281l172 281h152l-254 -410v-317zM151 922h134v-127h-134v127zM366 922h134v-127h-134v127z" />
    <glyph glyph-name="Zacute" unicode="&#x179;" horiz-adv-x="596" 
d="M50 611h328l-328 -506v-105h467l44 116h-352l334 508v103h-493v-116zM221 795l62 127h148l-105 -127h-105z" />
    <glyph glyph-name="zacute" unicode="&#x17a;" horiz-adv-x="515" 
d="M47 413h251l-253 -311v-102h396l43 112h-275l257 319v94h-419v-112zM171 600l62 127h148l-105 -127h-105z" />
    <glyph glyph-name="Zdotaccent" unicode="&#x17b;" horiz-adv-x="596" 
d="M50 727h493v-103l-334 -508h352l-44 -116h-467v105l328 506h-328v116zM221 922h134v-127h-134v127z" />
    <glyph glyph-name="zdotaccent" unicode="&#x17c;" horiz-adv-x="515" 
d="M47 525h419v-94l-257 -319h275l-43 -112h-396v102l253 311h-251v112zM183 727h134v-127h-134v127z" />
    <glyph glyph-name="Zcaron" unicode="&#x17d;" horiz-adv-x="596" 
d="M50 727h493v-103l-334 -508h352l-44 -116h-467v105l328 506h-328v116zM246 795l-106 127h118l37 -55l36 55h114l-102 -127h-97z" />
    <glyph glyph-name="zcaron" unicode="&#x17e;" horiz-adv-x="515" 
d="M47 525h419v-94l-257 -319h275l-43 -112h-396v102l253 311h-251v112zM210 600l-106 127h118l37 -55l36 55h114l-102 -127h-97z" />
    <glyph glyph-name="longs" unicode="&#x17f;" horiz-adv-x="415" 
d="M395 626q-13 4 -29 7.5t-32 6t-30.5 4t-25.5 1.5q-32 0 -40 -14t-8 -45v-586h-134v584q0 38 10 69t30.5 53.5t52.5 35t76 12.5q34 0 68 -5.5t62 -17.5v-105z" />
    <glyph glyph-name="uni0180" unicode="&#x180;" horiz-adv-x="570" 
d="M316 580h-115v-68q32 8 59 13t56 5q62 0 104.5 -20t68 -55.5t36.5 -85.5t11 -110q0 -61 -10.5 -110t-35.5 -84t-65 -54t-99 -19q-32 0 -66.5 10.5t-58.5 25.5v-28h-133v580h-59v78h59v55l133 40v-95h115v-78zM201 134q20 -13 50.5 -22t53.5 -9q29 0 47.5 11.5t28.5 32.5
t13.5 49.5t3.5 62.5q0 32 -3.5 61t-14 50.5t-28.5 34.5t-47 13q-20 0 -48 -5.5t-56 -13.5v-265z" />
    <glyph glyph-name="uni0181" unicode="&#x181;" horiz-adv-x="730" 
d="M440 727q63 0 107.5 -12.5t72.5 -38t40.5 -64.5t12.5 -93q0 -49 -14.5 -83t-43.5 -58q37 -20 57.5 -58t20.5 -108q0 -58 -16.5 -98t-48 -65.5t-76.5 -37t-101 -11.5h-282v614h-13q-25 0 -36 -8t-11 -31q0 -16 2 -31t5 -27h-98q-5 21 -7 42t-2 38q0 35 11 59.5t30 40.5
t44.5 23t54.5 7h291zM457 115q54 0 76.5 26t22.5 71q0 52 -26.5 74.5t-72.5 22.5h-155v-194h155zM437 424q54 0 76.5 24.5t22.5 69.5q0 51 -25.5 72.5t-73.5 21.5h-135v-188h135z" />
    <glyph glyph-name="uni0182" unicode="&#x182;" horiz-adv-x="643" 
d="M319 423q21 0 50 -0.5t59.5 -6t60 -18t52.5 -36t37.5 -60.5t14.5 -91q0 -57 -17 -97t-48.5 -65.5t-76.5 -37t-100 -11.5h-291v727h476v-112h-342v-192h125zM353 112q57 0 80 26.5t23 72.5q0 54 -27.5 77t-75.5 23h-159v-199h159z" />
    <glyph glyph-name="uni0183" unicode="&#x183;" horiz-adv-x="570" 
d="M68 727h367v-102h-234v-113q32 8 59 13t56 5q62 0 104.5 -20t68 -55.5t36.5 -85.5t11 -110q0 -61 -10.5 -110t-35.5 -84t-65 -54t-99 -19q-32 0 -66.5 10.5t-58.5 25.5v-28h-133v727zM201 134q20 -13 50.5 -22t53.5 -9q29 0 47.5 11.5t28.5 32.5t13.5 49.5t3.5 62.5
q0 32 -3.5 61t-14 50.5t-28.5 34.5t-47 13q-20 0 -48 -5.5t-56 -13.5v-265z" />
    <glyph glyph-name="uni0184" unicode="&#x184;" horiz-adv-x="650" 
d="M330 423q21 0 49.5 -0.5t59 -6t60 -18t52.5 -36t37.5 -60.5t14.5 -91q0 -57 -16.5 -97t-48 -65.5t-76.5 -37t-101 -11.5h-282v510l-92 118l175 98h50v-303h118zM364 112q57 0 79.5 26.5t22.5 72.5q0 54 -27 77t-75 23h-152v-199h152z" />
    <glyph glyph-name="uni0185" unicode="&#x185;" horiz-adv-x="574" 
d="M307 530q62 0 104.5 -20t68 -55.5t36.5 -85.5t11 -110q0 -61 -10.5 -110t-35.5 -84t-65 -54t-99 -19q-32 0 -66.5 10.5t-58.5 25.5v-28h-133v522l-68 116l158 89h43v-215q32 8 59 13t56 5zM192 134q20 -13 50.5 -22t53.5 -9q29 0 47.5 11.5t28.5 32.5t13.5 49.5t3.5 62.5
q0 32 -3.5 61t-14 50.5t-28.5 34.5t-47 13q-20 0 -48 -5.5t-56 -13.5v-265z" />
    <glyph glyph-name="uni0186" unicode="&#x186;" horiz-adv-x="581" 
d="M38 139q33 -8 59.5 -13.5t50.5 -8.5t46.5 -4.5t46.5 -1.5q44 0 75.5 18t51.5 51t29 80t9 105q0 121 -38 187t-126 66q-26 0 -49 -1t-47 -4t-50 -8t-58 -12v105q59 19 110.5 27.5t109.5 8.5q78 0 133 -25.5t89.5 -73.5t50 -116.5t15.5 -153.5q0 -81 -15.5 -148.5t-50 -117
t-89.5 -77t-133 -27.5q-52 0 -107.5 10t-112.5 27v107z" />
    <glyph glyph-name="uni0187" unicode="&#x187;" horiz-adv-x="590" 
d="M546 32q-57 -17 -112.5 -27t-107.5 -10q-78 0 -133 27.5t-89.5 77t-50 117t-15.5 148.5q0 85 15.5 153.5t50 116.5t89.5 73.5t133 25.5q58 0 109 -9l11 -2q11 48 47 77t94 29q18 0 41 -2t44 -7v-88q-12 3 -32 5t-36 2q-23 0 -40.5 -8t-17.5 -33v-105q-32 7 -58 12t-50 8
t-47 4t-49 1q-88 0 -126 -66t-38 -187q0 -58 9 -105t29 -80t51.5 -51t75.5 -18q24 0 46.5 1.5t46.5 4.5t50.5 8.5t59.5 13.5v-107z" />
    <glyph glyph-name="uni0188" unicode="&#x188;" horiz-adv-x="477" 
d="M266 531q17 0 35.5 -1.5t38.5 -3.5q11 46 47 74.5t93 28.5q18 0 41 -2t44 -7v-88q-12 3 -32 5t-36 2q-23 0 -40.5 -7t-17.5 -32v-105q-48 14 -86 18.5t-62 4.5q-36 0 -58 -10.5t-35 -31t-17.5 -49t-4.5 -64.5q0 -39 4.5 -68.5t17.5 -49.5t35.5 -30t58.5 -10q31 0 66 4.5
t89 19.5v-105q-48 -18 -93 -25t-90 -7q-61 0 -104 19.5t-70 54.5t-39.5 85t-12.5 112q0 60 12.5 109.5t40 84.5t70.5 54.5t105 19.5z" />
    <glyph glyph-name="uni0189" unicode="&#x189;" horiz-adv-x="760" 
d="M10 415h122v312h263q87 0 143 -24.5t89 -70.5t45.5 -110.5t12.5 -145.5q0 -83 -12 -152t-44 -119t-88.5 -77.5t-145.5 -27.5h-263v313h-122v102zM547 376q0 52 -6 95.5t-23 74.5t-49 48t-83 17h-116v-196h121l-39 -102h-82v-197h116q51 0 83 20.5t49 56t23 82.5t6 101z
" />
    <glyph glyph-name="uni018A" unicode="&#x18a;" horiz-adv-x="770" 
d="M155 0v614h-9q-25 0 -36 -8t-11 -31q0 -16 2 -31t5 -27h-98q-5 21 -7 42t-2 38q0 35 11 59.5t30 40.5t44.5 23t54.5 7h279q87 0 143 -24.5t89 -70.5t45.5 -110.5t12.5 -145.5q0 -83 -12 -152t-44 -119t-88.5 -77.5t-145.5 -27.5h-263zM570 376q0 52 -6 95.5t-23 74.5
t-49 48t-83 17h-116v-495h116q51 0 83 20.5t49 56t23 82.5t6 101z" />
    <glyph glyph-name="uni018B" unicode="&#x18b;" horiz-adv-x="643" 
d="M439 423v192h-342v112h476v-727h-291q-56 0 -100.5 11.5t-76 37t-48.5 65.5t-17 97q0 81 30.5 124.5t74 63t90 22t79.5 2.5h125zM439 112v199h-159q-48 0 -75.5 -23t-27.5 -77q0 -46 23 -72.5t80 -26.5h159z" />
    <glyph glyph-name="uni018C" unicode="&#x18c;" horiz-adv-x="570" 
d="M500 0h-133v28q-24 -15 -58.5 -25.5t-66.5 -10.5q-59 0 -99 19t-65 54t-35.5 84t-10.5 110q0 60 11 110t36.5 85.5t68 55.5t104.5 20q29 0 56 -5t59 -13v113h-234v102h367v-727zM367 399q-28 8 -56 13.5t-48 5.5q-29 0 -47 -13t-28.5 -34.5t-14 -50.5t-3.5 -61
q0 -34 3.5 -62.5t13.5 -49.5t28.5 -32.5t47.5 -11.5q23 0 53.5 9t50.5 22v265z" />
    <glyph glyph-name="uni018D" unicode="&#x18d;" horiz-adv-x="569" 
d="M124 -36q13 -9 32 -18.5t40 -17t43.5 -12t42.5 -4.5q16 0 27.5 4.5t11.5 17.5q0 14 -22.5 31t-48.5 37q-61 44 -100 80t-62 69.5t-32 67t-9 73.5q0 55 18 99t50 75t77 48t99 17q53 0 98 -16t77.5 -47t51 -77.5t18.5 -106.5q0 -42 -12 -77.5t-33.5 -65.5t-50.5 -53.5
t-63 -41.5q27 -22 46 -51t19 -65q0 -53 -44.5 -89t-137.5 -36q-27 0 -53.5 5.5t-50 14.5t-43 20.5t-32.5 22.5zM294 120q42 24 74 64t32 99q0 33 -9.5 58.5t-25.5 43t-36.5 26t-41.5 8.5q-45 0 -76.5 -34t-31.5 -98q0 -21 5 -40.5t18 -39.5t35 -41.5t57 -45.5z" />
    <glyph glyph-name="uni018E" unicode="&#x18e;" horiz-adv-x="601" 
d="M554 0h-491v116h353v193h-341l44 116h297v186h-353v116h491v-727z" />
    <glyph glyph-name="uni018F" unicode="&#x18f;" horiz-adv-x="687" 
d="M333 617q-34 0 -65 -2.5t-61.5 -8.5t-62.5 -14.5t-69 -20.5v109q72 26 138.5 39.5t132.5 13.5q79 -1 134.5 -22.5t90.5 -65.5t51.5 -112t16.5 -162q0 -102 -18 -173.5t-54.5 -116.5t-93 -65.5t-132.5 -20.5q-74 0 -129.5 19.5t-92 62t-55 109t-18.5 161.5l2 84h451
q-3 49 -12 84t-28 57.5t-49.5 33.5t-76.5 11zM180 318q2 -54 10.5 -93t26.5 -64.5t48.5 -38t75.5 -12.5t74.5 13t47 38.5t25.5 64.5t11 92h-319z" />
    <glyph glyph-name="uni0190" unicode="&#x190;" horiz-adv-x="543" 
d="M61 546q0 99 58 143.5t178 44.5q48 0 98.5 -16t95.5 -44v-107q-52 25 -100.5 40t-93.5 15q-57 -2 -79 -21.5t-22 -57.5q0 -34 13.5 -55.5t35.5 -33.5t49 -16.5t53 -4.5h52v-111h-52q-39 0 -72 -5t-56 -18t-36 -35.5t-13 -57.5q2 -53 30.5 -78.5t96.5 -25.5
q51 0 104.5 13.5t113.5 37.5v-107q-120 -56 -231 -56q-58 0 -104.5 12.5t-79 38.5t-50 66.5t-17.5 97.5q0 78 33.5 121.5t90.5 63.5q-45 24 -70.5 61t-25.5 95z" />
    <glyph glyph-name="uni0191" unicode="&#x191;" horiz-adv-x="590" 
d="M90 728h472v-116h-334v-187h312l-45 -116h-267v-340q0 -78 -40 -121t-134 -43q-17 0 -39.5 1t-45.5 6v105q34 -3 61 -3q33 0 46.5 12.5t13.5 44.5v757z" />
    <glyph glyph-name="florin" unicode="&#x192;" horiz-adv-x="520" 
d="M508 631q-31 8 -65 13.5t-54 5.5q-29 0 -37.5 -15.5t-12.5 -47.5l-8 -62h135v-110h-148l-54 -451q-4 -33 -13 -62t-27 -50.5t-46.5 -34t-70.5 -12.5q-24 0 -51.5 3t-57.5 13l13 99q52 -9 73 -9q28 0 37 12t12 37l54 455h-102v110h115l8 64q4 32 14 62t28.5 52.5t47.5 36
t72 13.5q32 0 70.5 -5.5t67.5 -16.5v-100z" />
    <glyph glyph-name="uni0193" unicode="&#x193;" horiz-adv-x="682" 
d="M613 416v-416h-137v27q-37 -15 -71.5 -23.5t-74.5 -8.5q-80 0 -135 27t-89.5 76t-50 117t-15.5 149q0 85 15.5 153.5t50 116.5t89.5 74t135 26q33 0 67.5 -3.5t69.5 -8.5q10 48 46 77.5t95 29.5q18 0 41 -2t44 -7v-98q-12 3 -32 5t-36 2q-23 0 -40.5 -8t-17.5 -33v-100
q-61 17 -115 23.5t-108 6.5q-85 0 -124 -64.5t-39 -189.5q0 -123 38.5 -188t123.5 -65q37 0 67.5 5t65.5 14v169h-177v117h314z" />
    <glyph glyph-name="uni0194" unicode="&#x194;" horiz-adv-x="659" 
d="M149 727l181 -441l180 441h142l-252 -569q18 -38 32 -69.5t24 -58.5t15 -50.5t5 -45.5q0 -57 -32.5 -93t-112.5 -36q-37 0 -63 10t-42.5 28t-24.5 42t-8 53q0 21 3.5 43t11.5 48.5t20.5 58t30.5 71.5l-252 568h142zM329 52q-14 -38 -21 -62t-7 -43q0 -15 5.5 -28
t25.5 -13t26 13t6 29q0 18 -9 42t-26 62z" />
    <glyph glyph-name="uni0195" unicode="&#x195;" horiz-adv-x="900" 
d="M64 0v712l134 40v-257q42 17 79 26t80 9q42 0 73.5 -13t52 -35.5t30.5 -53.5t10 -67v-208q0 -26 15.5 -37.5t46.5 -11.5q32 0 64 8t65 19v394h133v-525h-133v32q-38 -18 -75.5 -28.5t-72.5 -10.5q-36 0 -68.5 9t-56.5 29t-38 51.5t-14 77.5v201q0 31 -16 44.5t-48 13.5
q-19 0 -52 -10t-75 -25v-384h-134z" />
    <glyph glyph-name="uni0196" unicode="&#x196;" horiz-adv-x="242" 
d="M52 711l138 43v-754h-138v711z" />
    <glyph glyph-name="uni0197" unicode="&#x197;" horiz-adv-x="350" 
d="M15 415h86v312h138v-312h109l-39 -102h-70v-313h-138v313h-86v102z" />
    <glyph glyph-name="uni0198" unicode="&#x198;" horiz-adv-x="632" 
d="M55 584q0 88 42.5 129t130.5 41q39 0 82 -8v-105q-20 4 -37.5 5t-31.5 1q-29 0 -38.5 -15t-9.5 -46v-131l270 272h164l-354 -360l357 -367h-166l-271 279v-279h-138v584v0z" />
    <glyph glyph-name="uni0199" unicode="&#x199;" horiz-adv-x="528" 
d="M51 569q0 76 40 120t133 44q16 0 37.5 -1.5t44.5 -5.5v-104q-17 2 -32 3.5t-29 1.5q-33 0 -46.5 -14t-13.5 -46v-228l189 186h159l-257 -257l262 -268h-161l-192 189v-189h-134v569v0z" />
    <glyph glyph-name="uni019A" unicode="&#x19a;" horiz-adv-x="350" 
d="M15 418h86v294l138 41v-335h109l-39 -102h-70v-316h-138v316h-86v102z" />
    <glyph glyph-name="uni019B" unicode="&#x19b;" horiz-adv-x="530" 
d="M59 582l94 44l-37 102h134l17 -47l105 50l35 -76l-110 -53l225 -602h-133l-123 330l-124 -330h-131l188 500l-17 47l-87 -42z" />
    <glyph glyph-name="uni019C" unicode="&#x19c;" horiz-adv-x="924" 
d="M859 727v-697l-133 -40v37q-38 -16 -78.5 -24.5t-85.5 -8.5q-42 0 -73.5 13t-52.5 35l-1 2q-56 -24 -103.5 -37t-100.5 -13q-42 0 -73.5 13t-52 35.5t-30.5 53.5t-10 67v564h134v-564q0 -31 16.5 -44.5t48.5 -13.5q23 0 57 10.5t76 24.5q-1 5 -1 11v12v564h133v-564
q0 -31 17 -44.5t49 -13.5q20 0 55 8t76 22v592h133z" />
    <glyph glyph-name="uni019D" unicode="&#x19d;" horiz-adv-x="710" 
d="M255 727l258 -494v494h133v-727h-133l-304 554v-585q0 -39 -9 -69.5t-29.5 -51.5t-54 -32.5t-82.5 -11.5q-42 0 -85 9v104q16 -2 35 -3t32 -1q33 0 46.5 13.5t13.5 44.5v756h179z" />
    <glyph glyph-name="uni019E" unicode="&#x19e;" 
d="M59 0v494l135 40v-43q42 20 83 30t87 10q42 0 73 -12.5t50.5 -35t29 -53.5t9.5 -67v-558h-133v558q0 31 -15 44t-46 13q-46 0 -138 -37v-383h-135z" />
    <glyph glyph-name="uni019F" unicode="&#x19f;" horiz-adv-x="687" 
d="M343 -5q-83 0 -139 23.5t-90.5 70t-49.5 114.5t-15 158t15 159.5t49.5 117t90.5 72t139 24.5q82 0 138.5 -24.5t91 -72t49.5 -117t15 -159.5t-15 -158t-49.5 -114.5t-91 -70t-138.5 -23.5zM343 111q40 0 68 12.5t46 38t28 64.5t13 91h-310q5 -104 40 -155t115 -51z
M222 552q-27 -50 -33 -133h308q-9 97 -43 148t-111 51q-87 0 -121 -66z" />
    <glyph glyph-name="Ohorn" unicode="&#x1a0;" horiz-adv-x="770" 
d="M343 111q86 0 121 61.5t35 188.5q0 125 -35 191t-121 66t-121 -65.5t-35 -191.5q0 -127 35 -188.5t121 -61.5zM343 -5q-83 0 -139 23.5t-90.5 70t-49.5 114.5t-15 158t15 159.5t49.5 117t90.5 72t139 24.5q82 0 138.5 -24.5t91 -72t49.5 -117t15 -159.5t-15 -158
t-49.5 -114.5t-91 -70t-138.5 -23.5zM657 727h132l-69 -159h-103z" />
    <glyph glyph-name="ohorn" unicode="&#x1a1;" horiz-adv-x="680" 
d="M284 -7q-65 0 -111.5 19t-75.5 53.5t-42.5 83.5t-13.5 109q0 63 13.5 114t42.5 86t75 54t112 19t112 -19t75 -54t42 -86t13 -114q0 -61 -13 -110t-42 -83.5t-75 -53t-112 -18.5zM284 421q-55 0 -80 -37.5t-25 -125.5q0 -86 25 -120.5t80 -34.5q51 0 77.5 34.5t26.5 120.5
q0 88 -26.5 125.5t-77.5 37.5zM566 525h132l-69 -159h-103z" />
    <glyph glyph-name="uni01A2" unicode="&#x1a2;" horiz-adv-x="950" 
d="M343 -5q-83 0 -139 23.5t-90.5 70t-49.5 114.5t-15 158t15 159.5t49.5 117t90.5 72t139 24.5q60 0 104.5 -13t79.5 -38q45 22 87.5 33t91.5 11q42 0 73 -12.5t50.5 -35t29 -53.5t9.5 -67v-753h-133v753q0 31 -15 44t-46 13q-30 0 -79 -15q42 -93 42 -240q0 -90 -15 -158
t-49.5 -114.5t-91 -70t-138.5 -23.5zM343 111q86 0 121 61.5t35 188.5q0 125 -35 191t-121 66t-121 -65.5t-35 -191.5q0 -127 35 -188.5t121 -61.5z" />
    <glyph glyph-name="uni01A3" unicode="&#x1a3;" horiz-adv-x="830" 
d="M284 -7q-65 0 -111.5 19t-75.5 53.5t-42.5 83.5t-13.5 109q0 63 13.5 114t42.5 86t75 54t112 19q92 0 144 -36q41 17 78.5 26.5t81.5 9.5q42 0 73 -12.5t50.5 -35t29 -53.5t9.5 -67v-558h-133v558q0 31 -15 44t-46 13q-12 0 -26 -3t-31 -6q14 -34 20.5 -71t6.5 -82
q0 -61 -13 -110t-42 -83.5t-75 -53t-112 -18.5zM284 421q-55 0 -80 -37.5t-25 -125.5q0 -86 25 -120.5t80 -34.5q51 0 77.5 34.5t26.5 120.5q0 88 -26.5 125.5t-77.5 37.5z" />
    <glyph glyph-name="uni01A4" unicode="&#x1a4;" horiz-adv-x="740" 
d="M300 226v-226h-138v614h-16q-25 0 -36 -8t-11 -31q0 -16 2 -31t5 -27h-98q-5 21 -7 42t-2 38q0 35 11 59.5t30 40.5t44.5 23t54.5 7h302q126 0 185 -59.5t59 -189.5q0 -129 -59 -190.5t-185 -61.5h-141zM430 342q60 0 88.5 36t28.5 100q0 67 -28.5 100t-88.5 33h-130
v-269h130z" />
    <glyph glyph-name="uni01A5" unicode="&#x1a5;" horiz-adv-x="573" 
d="M312 -7q-27 0 -54.5 4t-59.5 14v-167l-134 -40v765q0 76 40 120t133 44q16 0 37.5 -1.5t44.5 -5.5v-104q-17 2 -32 3.5t-29 1.5q-33 0 -46.5 -14t-13.5 -46v-64q27 13 55.5 20.5t58.5 7.5q63 0 105 -18.5t68 -53t37 -83t11 -108.5t-11 -110.5t-37 -87t-68 -57t-105 -20.5
zM198 118q31 -9 55.5 -12t47.5 -3q28 0 46.5 13.5t29 36.5t14.5 52.5t4 62.5t-3.5 61t-13.5 48t-28.5 31.5t-47.5 11.5q-26 0 -52.5 -7t-51.5 -18v-277z" />
    <glyph glyph-name="uni01A6" unicode="&#x1a6;" horiz-adv-x="653" 
d="M331 175h-126v-175h-137v727h137v-79h141q62 0 108.5 -12.5t77 -40.5t45.5 -73t15 -109q0 -91 -29 -142.5t-91 -75.5l184 -329h-155zM337 291q60 0 88.5 29t28.5 93q0 66 -28.5 92.5t-88.5 26.5h-132v-241h132z" />
    <glyph glyph-name="uni01A7" unicode="&#x1a7;" horiz-adv-x="570" 
d="M75 700q55 18 109 26t101 8q131 0 190 -52.5t59 -146.5q0 -49 -15 -85t-43.5 -62.5t-70 -44.5t-95.5 -31q-35 -9 -61.5 -17.5t-44 -19t-26.5 -25t-9 -35.5q0 -57 30.5 -85t96.5 -28q52 0 105.5 7.5t118.5 20.5v-104q-58 -18 -119 -27.5t-115 -9.5q-117 0 -182 58t-65 170
q0 48 14.5 82.5t42 58.5t68.5 41t95 31q39 10 66.5 18.5t44.5 19.5t25 27t8 41q0 27 -10.5 43.5t-28.5 26t-41 12.5t-48 3q-44 0 -94 -5.5t-106 -20.5v105z" />
    <glyph glyph-name="uni01A8" unicode="&#x1a8;" horiz-adv-x="516" 
d="M65 502q51 12 101.5 20.5t101.5 8.5q43 0 81 -8.5t66 -26.5t44 -47t16 -71q0 -71 -49 -108.5t-149 -56.5q-32 -7 -52 -12.5t-31.5 -12.5t-16 -16t-4.5 -22q0 -29 23.5 -38t80.5 -9q38 0 85.5 6t105.5 22v-104q-19 -8 -45 -14t-53.5 -10.5t-54.5 -7t-47 -2.5
q-109 0 -169.5 37t-60.5 123q0 72 50.5 111.5t153.5 59.5q55 11 76.5 22.5t21.5 36.5q0 20 -17 29t-56 9q-45 0 -95 -6.5t-107 -18.5v106z" />
    <glyph glyph-name="uni01A9" unicode="&#x1a9;" horiz-adv-x="607" 
d="M576 0h-541v81l244 285l-233 270v91h513v-113h-336l211 -247l-221 -254h363v-113z" />
    <glyph glyph-name="uni01AA" unicode="&#x1aa;" horiz-adv-x="350" 
d="M19 694q0 42 28 62.5t64 20.5q81 0 115 -41t34 -109v-667q0 -28 12 -38.5t42 -10.5q10 0 24 2t30 5v-105q-22 -4 -44.5 -6t-46.5 -2q-36 0 -64.5 14.5t-48 38.5t-29.5 55.5t-10 66.5v635q-5 -1 -9.5 -1h-9.5q-16 0 -31.5 4.5t-28 14.5t-20 25t-7.5 36zM74 694
q0 -14 9 -21t23 -7q31 0 31 28q0 29 -31 29q-14 0 -23 -7.5t-9 -21.5z" />
    <glyph glyph-name="uni01AB" unicode="&#x1ab;" horiz-adv-x="430" 
d="M403 -31q0 -78 -40 -121t-134 -43q-17 0 -39.5 1t-45.5 6v100q34 -3 61 -3q33 0 49 12.5t16 44.5v22h-21q-38 2 -64.5 16.5t-44 37.5t-25.5 53t-8 63v257h-92v110h92v132l132 40v-172h147v-110h-147v-259q0 -32 8.5 -45.5t40.5 -13.5q17 0 48.5 5t66.5 13v-146z" />
    <glyph glyph-name="uni01AC" unicode="&#x1ac;" horiz-adv-x="647" 
d="M642 727l-45 -116h-202v-611h-138v611h-101q-25 0 -36 -8t-11 -31q0 -16 2 -29.5t5 -25.5h-98q-5 21 -7 42t-2 38q0 35 11 59.5t30 40.5t44.5 23t54.5 7h493z" />
    <glyph glyph-name="uni01AD" unicode="&#x1ad;" horiz-adv-x="430" 
d="M405 626q-13 4 -29 7.5t-32 6t-30.5 4t-25.5 1.5q-32 0 -40.5 -14t-8.5 -45v-61h147v-110h-147v-262q0 -31 14 -44t47 -13q22 0 48 3.5t57 9.5v-104q-31 -8 -67.5 -13.5t-62.5 -5.5q-47 0 -79 12t-51.5 33.5t-28.5 52t-9 67.5v264h-92v110h92v59q0 38 9.5 69t30 53.5
t52.5 35t76 12.5q34 0 68 -5.5t62 -17.5v-105z" />
    <glyph glyph-name="uni01AE" unicode="&#x1ae;" horiz-adv-x="647" 
d="M24 727h608l-45 -116h-202v-641q0 -31 13.5 -44t46.5 -13q17 0 32.5 1t35.5 3v-102q-26 -5 -51.5 -8.5t-45.5 -3.5q-47 0 -79 12t-52 33.5t-29 52t-9 67.5v643h-223v116z" />
    <glyph glyph-name="Uhorn" unicode="&#x1af;" horiz-adv-x="790" 
d="M203 238q0 -69 36.5 -97t96.5 -28q63 0 99 28t36 97v489h140v-490q0 -66 -18 -112t-53.5 -75t-86.5 -42t-117 -13t-116.5 13t-85 42t-52 75t-17.5 112v490h138v-489zM675 727h132l-69 -159h-103z" />
    <glyph glyph-name="uhorn" unicode="&#x1b0;" horiz-adv-x="690" 
d="M520 525v-525h-133v32q-38 -18 -75.5 -28.5t-72.5 -10.5q-36 0 -68.5 9t-56.5 29t-38 51.5t-14 77.5v335l134 40v-382q0 -26 15.5 -37.5t46.5 -11.5q32 0 64 8t65 19v394h133zM581 525h132l-69 -159h-103z" />
    <glyph glyph-name="uni01B1" unicode="&#x1b1;" horiz-adv-x="748" 
d="M705 336q0 -70 -21.5 -132.5t-63 -109t-102 -74t-138.5 -27.5t-140.5 26.5t-106 73.5t-67 111.5t-23.5 140.5q0 41 9 79.5t23.5 73t33.5 64t39 52.5h-118v113h307v-100q-30 -18 -58 -47t-50.5 -65t-36 -77.5t-13.5 -84.5q0 -45 13 -89t38.5 -78t62.5 -55t85 -21
q47 0 83 22t60 56.5t36.5 78t12.5 85.5q0 44 -13.5 85.5t-35.5 77.5t-50.5 65t-57.5 47v100h305v-113h-121q21 -23 40.5 -52t34.5 -64t24 -75.5t9 -86.5z" />
    <glyph glyph-name="uni01B2" unicode="&#x1b2;" horiz-adv-x="676" 
d="M202 176q0 -34 16.5 -50.5t62.5 -16.5q22 0 45 4.5t44.5 19t41 41t33.5 71t22.5 109.5t8.5 155q0 109 -57 109l18 120q85 0 129.5 -60t44.5 -169q0 -165 -25.5 -265.5t-70.5 -156t-105 -74t-129 -18.5q-51 0 -91 9t-67.5 30t-42 56t-14.5 86v551h136v-551z" />
    <glyph glyph-name="uni01B3" unicode="&#x1b3;" horiz-adv-x="710" 
d="M389 0h-136v317l-257 410h151l173 -284l113 181q14 22 27.5 41.5t29 34t34 23t42.5 8.5q42 0 81.5 -22.5t77.5 -49.5l-44 -93q-9 7 -20.5 15t-23 15t-22 11.5t-17.5 4.5q-16 0 -27 -10.5t-27 -35.5l-155 -249v-317z" />
    <glyph glyph-name="uni01B4" unicode="&#x1b4;" 
d="M388 44q-43 -14 -78 -23t-70 -9q-36 0 -68.5 9t-56.5 28.5t-38 51.5t-14 77v317l134 40v-364q0 -26 15.5 -36.5t46.5 -10.5q26 0 58.5 7.5t70.5 18.5v219q0 76 41.5 118.5t134.5 42.5q16 0 37.5 -1.5t44.5 -5.5v-104q-17 2 -32 3.5t-29 1.5q-33 0 -48.5 -12.5
t-15.5 -44.5v-393q0 -43 -16.5 -74.5t-46 -52.5t-70 -31t-88.5 -10q-84 0 -187 23v106q19 -5 40 -8.5t40 -6t35 -3.5t26 -1q32 0 57 2.5t42 10t26 22.5t9 41v52z" />
    <glyph glyph-name="uni01B5" unicode="&#x1b5;" horiz-adv-x="596" 
d="M55 414h195l128 197h-328v116h493v-103l-138 -210h137l-39 -99h-163l-131 -199h352l-44 -116h-467v105l136 210h-131v99z" />
    <glyph glyph-name="uni01B6" unicode="&#x1b6;" horiz-adv-x="515" 
d="M50 304h159l89 109h-251v112h419v-94l-102 -127h105l-39 -96h-144l-77 -96h275l-43 -112h-396v102l86 106h-81v96z" />
    <glyph glyph-name="uni01B7" unicode="&#x1b7;" horiz-adv-x="600" 
d="M556 121q0 -72 -15.5 -130t-50 -99.5t-88.5 -63.5t-131 -22q-58 0 -105.5 16t-81 47.5t-52 76.5t-18.5 104h135q0 -58 33.5 -95.5t90.5 -37.5q40 0 68.5 14.5t46 41.5t25.5 64.5t8 83.5q0 85 -52 134.5t-158 49.5v95l177 214h-337v113h493v-112l-179 -214
q101 -24 146 -96.5t45 -183.5z" />
    <glyph glyph-name="uni01B8" unicode="&#x1b8;" horiz-adv-x="600" 
d="M36 121q0 111 45 183.5t146 96.5l-179 214v112h493v-113h-337l177 -214v-95q-106 0 -158 -49.5t-52 -134.5q0 -46 8 -83.5t25.5 -64.5t45.5 -41.5t69 -14.5q57 0 90.5 37.5t33.5 95.5h135q0 -59 -18.5 -104t-52 -76.5t-81 -47.5t-105.5 -16q-77 0 -131 22t-88.5 63.5
t-50 99.5t-15.5 130z" />
    <glyph glyph-name="uni01B9" unicode="&#x1b9;" horiz-adv-x="480" 
d="M34 42q0 38 9 73t26 64t43 51t60 34l-131 153v108h396v-110h-250l132 -159v-88q-78 0 -116.5 -30t-38.5 -96q0 -58 21 -93.5t71 -35.5q36 0 58 31t22 74h128q0 -51 -15 -90.5t-42.5 -66.5t-66 -41.5t-84.5 -14.5q-62 0 -104 16t-68.5 46.5t-38 74.5t-11.5 100z" />
    <glyph glyph-name="uni01BA" unicode="&#x1ba;" horiz-adv-x="490" 
d="M188 285l119 130h-249v110h395v-109l-116 -123q27 -4 50 -16.5t40.5 -31.5t27 -43.5t9.5 -52.5q0 -113 -198 -150q-51 -10 -78.5 -19t-27.5 -35q0 -22 26 -28t80 -6q43 0 89.5 5t100.5 19v-100q-18 -6 -43.5 -11.5t-53 -9.5t-54.5 -6.5t-47 -2.5q-108 0 -169 33t-61 110
q0 63 53 99.5t152 54.5q52 10 76.5 20t24.5 33q0 21 -16.5 31.5t-61.5 10.5q-13 0 -34.5 -1t-33.5 -2v91z" />
    <glyph glyph-name="uni01BB" unicode="&#x1bb;" horiz-adv-x="530" 
d="M35 414h275q26 54 26 100q0 54 -26 80t-95 26q-36 0 -80.5 -8.5t-98.5 -24.5v109q21 7 46 14t51 12t51 8.5t45 3.5q126 0 186.5 -52t60.5 -161q0 -53 -20 -107h66l-39 -99h-84q-22 -30 -49 -61.5t-60 -64.5l-76 -76h292l-45 -113h-431v102l164 161q14 13 25.5 26t22.5 26
h-207v99z" />
    <glyph glyph-name="uni01BC" unicode="&#x1bc;" horiz-adv-x="580" 
d="M18 727h515l-45 -115h-255v-150q14 2 24.5 2.5t27.5 0.5q125 0 189 -57.5t64 -181.5q0 -115 -61 -175t-181 -60q-57 0 -116 10.5t-116 25.5v110q63 -14 116 -21.5t104 -7.5q63 0 87 30.5t24 87.5q0 37 -7.5 61.5t-25 38t-46.5 19t-71 5.5q-35 0 -69 -2.5t-71 -6.5v271
h-87v115z" />
    <glyph glyph-name="uni01BD" unicode="&#x1bd;" horiz-adv-x="440" 
d="M10 525h405l-42 -109h-176v-75h21q43 0 79.5 -8.5t62 -29t40 -53.5t14.5 -82q0 -88 -47.5 -131.5t-135.5 -43.5q-39 0 -84 8t-90 20v102q52 -11 93 -17t73 -6t46.5 19.5t14.5 48.5q0 40 -19.5 54.5t-67.5 14.5q-20 0 -56.5 -1.5t-68.5 -4.5v185h-62v109z" />
    <glyph glyph-name="uni01BE" unicode="&#x1be;" horiz-adv-x="540" 
d="M15 431v112h99v114l134 39v-153h148v-112h-148v-94q0 -9 3.5 -16.5t12.5 -14.5t25.5 -13t42.5 -11q89 -17 139.5 -51t50.5 -101q0 -38 -16 -65t-44.5 -44t-68.5 -25t-89 -8q-19 0 -43.5 2.5t-49.5 6.5t-48 9.5t-39 11.5v102q96 -25 173 -25q48 0 70.5 5t22.5 28
q0 26 -23.5 35t-70.5 19q-94 19 -138 53.5t-44 95.5v100h-99z" />
    <glyph glyph-name="uni01BF" unicode="&#x1bf;" horiz-adv-x="573" 
d="M194 -156l-136 -41v698l136 41v-33q27 10 55.5 16t58.5 6q112 0 168 -54t56 -169q0 -66 -22.5 -123.5t-65.5 -102.5t-106 -76t-144 -44v-118zM194 71q99 23 148.5 83.5t49.5 153.5q0 63 -24 89.5t-69 26.5q-54 0 -105 -23v-330z" />
    <glyph glyph-name="uni01C0" unicode="&#x1c0;" horiz-adv-x="242" 
d="M52 727h138v-727h-138v727z" />
    <glyph glyph-name="uni01C1" unicode="&#x1c1;" horiz-adv-x="395" 
d="M52 727h128v-727h-128v727zM217 727h128v-727h-128v727z" />
    <glyph glyph-name="uni01C2" unicode="&#x1c2;" horiz-adv-x="400" 
d="M36 508h95v219h138v-219h95v-98h-95v-83h95v-98h-95v-229h-138v229h-95v98h95v83h-95v98z" />
    <glyph glyph-name="uni01C3" unicode="&#x1c3;" horiz-adv-x="289" 
d="M78 727h124v-522h-115zM76 137h136v-137h-136v137z" />
    <glyph glyph-name="uni01C4" unicode="&#x1c4;" horiz-adv-x="1190" 
d="M67 0v727h263q87 0 143 -24.5t89 -70.5t45.5 -110.5t12.5 -145.5q0 -83 -12 -152t-44 -119t-88.5 -77.5t-145.5 -27.5h-263zM482 376q0 52 -6 95.5t-23 74.5t-49 48t-83 17h-116v-495h116q51 0 83 20.5t49 56t23 82.5t6 101zM637 727h493v-103l-334 -508h352l-44 -116
h-467v105l328 506h-328v116zM837 795l-106 127h118l37 -55l36 55h114l-102 -127h-97z" />
    <glyph glyph-name="uni01C5" unicode="&#x1c5;" horiz-adv-x="1160" 
d="M67 0v727h263q87 0 143 -24.5t89 -70.5t45.5 -110.5t12.5 -145.5q0 -83 -12 -152t-44 -119t-88.5 -77.5t-145.5 -27.5h-263zM482 376q0 52 -6 95.5t-23 74.5t-49 48t-83 17h-116v-495h116q51 0 83 20.5t49 56t23 82.5t6 101zM673 525h419v-94l-257 -319h275l-43 -112
h-396v102l253 311h-251v112zM834 600l-106 127h118l37 -55l36 55h114l-102 -127h-97z" />
    <glyph glyph-name="uni01C6" unicode="&#x1c6;" horiz-adv-x="1060" 
d="M587 525h419v-94l-257 -319h275l-43 -112h-396v102l253 311h-251v112zM263 530q29 0 56 -5t59 -13v200l133 40v-752h-133v28q-24 -15 -58.5 -25.5t-66.5 -10.5q-59 0 -99 19t-65 54t-35.5 84t-10.5 110q0 60 11 110t36.5 85.5t68 55.5t104.5 20zM378 399q-28 8 -56 13.5
t-48 5.5q-29 0 -47 -13t-28.5 -34.5t-14 -50.5t-3.5 -61q0 -34 3.5 -62.5t13.5 -49.5t28.5 -32.5t47.5 -11.5q23 0 53.5 9t50.5 22v265zM748 600l-106 127h118l37 -55l36 55h114l-102 -127h-97z" />
    <glyph glyph-name="uni01C7" unicode="&#x1c7;" horiz-adv-x="940" 
d="M59 0v727h138v-611h330l-45 -116h-423zM885 727v-568q0 -37 -9 -67.5t-29 -52.5t-52 -34t-79 -12q-15 0 -35.5 1.5t-41.5 4.5t-41.5 7.5t-36.5 9.5v104q35 -6 69 -9.5t60 -3.5q32 0 44.5 14t12.5 52v554h138z" />
    <glyph glyph-name="uni01C8" unicode="&#x1c8;" horiz-adv-x="830" 
d="M59 0v727h138v-611h330l-45 -116h-423zM766 524v-542q0 -35 -10 -66.5t-29.5 -55.5t-48 -38.5t-64.5 -14.5q-69 0 -130 16v105q27 -6 52 -10.5t41 -4.5q30 0 42 10.5t12 38.5v562h135zM632 727h134v-127h-134v127z" />
    <glyph glyph-name="uni01C9" unicode="&#x1c9;" horiz-adv-x="490" 
d="M48 712l134 40v-752h-134v712zM432 524v-542q0 -35 -10 -66.5t-29.5 -55.5t-48 -38.5t-64.5 -14.5q-69 0 -130 16v105q27 -6 52 -10.5t41 -4.5q30 0 42 10.5t12 38.5v562h135zM298 727h134v-127h-134v127z" />
    <glyph glyph-name="uni01CA" unicode="&#x1ca;" horiz-adv-x="1050" 
d="M981 727v-568q0 -38 -9 -68.5t-29.5 -52t-53 -33.5t-80.5 -12q-30 0 -70.5 6t-72.5 17v104q35 -6 64.5 -9.5t55.5 -3.5q32 0 44.5 14t12.5 52v554h138zM66 727h189l248 -579v579h133v-727h-189l-248 579v-579h-133v727z" />
    <glyph glyph-name="uni01CB" unicode="&#x1cb;" horiz-adv-x="970" 
d="M892 524v-542q0 -35 -10 -66.5t-29.5 -55.5t-48 -38.5t-64.5 -14.5q-69 0 -130 16v105q27 -6 52 -10.5t41 -4.5q30 0 42 10.5t12 38.5v562h135zM758 727h134v-149h-134v149zM66 727h189l248 -579v579h133v-727h-189l-248 579v-579h-133v727z" />
    <glyph glyph-name="uni01CC" unicode="&#x1cc;" horiz-adv-x="830" 
d="M59 0v494l135 40v-43q42 20 83 30t87 10q42 0 73 -12.5t50.5 -35t29 -53.5t9.5 -67v-363h-133v363q0 31 -15 44t-46 13q-46 0 -138 -37v-383h-135zM756 524v-542q0 -35 -10 -66.5t-29.5 -55.5t-48 -38.5t-64.5 -14.5q-69 0 -130 16v105q27 -6 52 -10.5t41 -4.5
q30 0 42 10.5t12 38.5v562h135zM622 727h134v-149h-134v149z" />
    <glyph glyph-name="uni01CD" unicode="&#x1cd;" horiz-adv-x="651" 
d="M451 175h-251l-55 -175h-139l236 727h169l235 -727h-140zM237 290h177l-88 290zM278 795l-106 127h118l37 -55l36 55h114l-102 -127h-97z" />
    <glyph glyph-name="uni01CE" unicode="&#x1ce;" horiz-adv-x="559" 
d="M368 33q-35 -20 -79.5 -30t-79.5 -10q-75 0 -121 43t-46 124q0 47 16 82t53.5 58t99 35t153.5 14v15q0 18 -10.5 29t-28.5 17t-43 8t-53 2q-31 0 -68.5 -5t-75.5 -13v106q48 13 97.5 18t94.5 5q47 0 87.5 -10t70 -31t46.5 -52.5t17 -74.5v-363h-130v33zM249 99
q27 0 58 10t57 25v112q-47 -1 -81.5 -4t-57.5 -11.5t-34.5 -24t-11.5 -40.5q0 -67 70 -67zM231 600l-106 127h118l37 -55l36 55h114l-102 -127h-97z" />
    <glyph glyph-name="uni01CF" unicode="&#x1cf;" horiz-adv-x="242" 
d="M52 727h138v-727h-138v727zM72 795l-106 127h118l37 -55l36 55h114l-102 -127h-97z" />
    <glyph glyph-name="uni01D0" unicode="&#x1d0;" horiz-adv-x="231" 
d="M48 525h134v-525h-134v525zM66 600l-106 127h118l37 -55l36 55h114l-102 -127h-97z" />
    <glyph glyph-name="uni01D1" unicode="&#x1d1;" horiz-adv-x="687" 
d="M343 111q86 0 121 61.5t35 188.5q0 125 -35 191t-121 66t-121 -65.5t-35 -191.5q0 -127 35 -188.5t121 -61.5zM343 -5q-83 0 -139 23.5t-90.5 70t-49.5 114.5t-15 158t15 159.5t49.5 117t90.5 72t139 24.5q82 0 138.5 -24.5t91 -72t49.5 -117t15 -159.5t-15 -158
t-49.5 -114.5t-91 -70t-138.5 -23.5zM292 795l-106 127h118l37 -55l36 55h114l-102 -127h-97z" />
    <glyph glyph-name="uni01D2" unicode="&#x1d2;" horiz-adv-x="569" 
d="M284 -7q-65 0 -111.5 19t-75.5 53.5t-42.5 83.5t-13.5 109q0 63 13.5 114t42.5 86t75 54t112 19t112 -19t75 -54t42 -86t13 -114q0 -61 -13 -110t-42 -83.5t-75 -53t-112 -18.5zM284 421q-55 0 -80 -37.5t-25 -125.5q0 -86 25 -120.5t80 -34.5q51 0 77.5 34.5t26.5 120.5
q0 88 -26.5 125.5t-77.5 37.5zM239 600l-106 127h118l37 -55l36 55h114l-102 -127h-97z" />
    <glyph glyph-name="uni01D3" unicode="&#x1d3;" horiz-adv-x="676" 
d="M203 238q0 -69 36.5 -97t96.5 -28q63 0 99 28t36 97v489h140v-490q0 -66 -18 -112t-53.5 -75t-86.5 -42t-117 -13t-116.5 13t-85 42t-52 75t-17.5 112v490h138v-489zM296 795l-106 127h118l37 -55l36 55h114l-102 -127h-97z" />
    <glyph glyph-name="uni01D4" unicode="&#x1d4;" 
d="M520 525v-525h-133v32q-38 -18 -75.5 -28.5t-72.5 -10.5q-36 0 -68.5 9t-56.5 29t-38 51.5t-14 77.5v335l134 40v-382q0 -26 15.5 -37.5t46.5 -11.5q32 0 64 8t65 19v394h133zM249 600l-106 127h118l37 -55l36 55h114l-102 -127h-97z" />
    <glyph glyph-name="uni01D5" unicode="&#x1d5;" horiz-adv-x="676" 
d="M203 238q0 -69 36.5 -97t96.5 -28q63 0 99 28t36 97v489h140v-490q0 -66 -18 -112t-53.5 -75t-86.5 -42t-117 -13t-116.5 13t-85 42t-52 75t-17.5 112v490h138v-489zM193 999h300v-77h-300v77zM167 889h134v-117h-134v117zM382 889h134v-117h-134v117z" />
    <glyph glyph-name="uni01D6" unicode="&#x1d6;" 
d="M520 525v-525h-133v32q-38 -18 -75.5 -28.5t-72.5 -10.5q-36 0 -68.5 9t-56.5 29t-38 51.5t-14 77.5v335l134 40v-382q0 -26 15.5 -37.5t46.5 -11.5q32 0 64 8t65 19v394h133zM124 727h134v-127h-134v127zM339 727h134v-127h-134v127zM149 882h300v-87h-300v87z" />
    <glyph glyph-name="uni01D7" unicode="&#x1d7;" horiz-adv-x="676" 
d="M203 727h-138v-490q0 -66 17.5 -112t52 -75t85 -42t116.5 -13t117 13t86.5 42t53.5 75t18 112v490h-140v-489q0 -69 -36 -97t-99 -28q-60 0 -96.5 28t-36.5 97v489zM167 772h134v117h-134v-117zM382 772h134v117h-134v-117zM276 901l62 98h148l-105 -98h-105z" />
    <glyph glyph-name="uni01D8" unicode="&#x1d8;" 
d="M387 525v-394q-33 -11 -65 -19t-64 -8q-31 0 -46.5 11.5t-15.5 37.5v382l-134 -40v-335q0 -46 14 -77.5t38 -51.5t56.5 -29t68.5 -9q35 0 72.5 10.5t75.5 28.5v-32h133v525h-133zM232 795l62 127h148l-105 -127h-105zM124 600h134v127h-134v-127zM339 600h134v127h-134
v-127z" />
    <glyph glyph-name="uni01D9" unicode="&#x1d9;" horiz-adv-x="676" 
d="M203 238q0 -69 36.5 -97t96.5 -28q63 0 99 28t36 97v489h140v-490q0 -66 -18 -112t-53.5 -75t-86.5 -42t-117 -13t-116.5 13t-85 42t-52 75t-17.5 112v490h138v-489zM167 889h134v-117h-134v117zM382 889h134v-117h-134v117zM293 892l-106 107h118l37 -45l36 45h114
l-102 -107h-97z" />
    <glyph glyph-name="uni01DA" unicode="&#x1da;" 
d="M520 525v-525h-133v32q-38 -18 -75.5 -28.5t-72.5 -10.5q-36 0 -68.5 9t-56.5 29t-38 51.5t-14 77.5v335l134 40v-382q0 -26 15.5 -37.5t46.5 -11.5q32 0 64 8t65 19v394h133zM124 727h134v-127h-134v127zM339 727h134v-127h-134v127zM249 795l-106 127h118l37 -55l36 55
h114l-102 -127h-97z" />
    <glyph glyph-name="uni01DB" unicode="&#x1db;" horiz-adv-x="676" 
d="M203 238q0 -69 36.5 -97t96.5 -28q63 0 99 28t36 97v489h140v-490q0 -66 -18 -112t-53.5 -75t-86.5 -42t-117 -13t-116.5 13t-85 42t-52 75t-17.5 112v490h138v-489zM167 889h134v-117h-134v117zM382 889h134v-117h-134v117zM307 901l-105 98h148l62 -98h-105z" />
    <glyph glyph-name="uni01DC" unicode="&#x1dc;" 
d="M520 525v-525h-133v32q-38 -18 -75.5 -28.5t-72.5 -10.5q-36 0 -68.5 9t-56.5 29t-38 51.5t-14 77.5v335l134 40v-382q0 -26 15.5 -37.5t46.5 -11.5q32 0 64 8t65 19v394h133zM262 795l-105 127h148l62 -127h-105zM124 727h138v-127h-138v127zM339 727h134v-127h-134v127
z" />
    <glyph glyph-name="uni01DD" unicode="&#x1dd;" horiz-adv-x="559" 
d="M270 420q-49 0 -97.5 -6.5t-112.5 -25.5v104q58 20 112.5 29.5t105.5 9.5q64 0 109.5 -15.5t74 -48t41.5 -82.5t13 -118q0 -147 -59.5 -210.5t-182.5 -63.5q-120 0 -176.5 60t-56.5 198q0 16 1 35.5t3 38.5h335q-5 49 -29 72t-81 23zM172 217q3 -57 24.5 -85.5
t77.5 -28.5q29 0 48.5 7t31.5 21.5t18 35.5t9 50h-209z" />
    <glyph glyph-name="uni01DE" unicode="&#x1de;" horiz-adv-x="651" 
d="M451 175h-251l-55 -175h-139l236 727h169l235 -727h-140zM237 290h177l-88 290zM177 999h300v-77h-300v77zM151 889h134v-117h-134v117zM366 889h134v-117h-134v117z" />
    <glyph glyph-name="uni01DF" unicode="&#x1df;" horiz-adv-x="559" 
d="M368 33q-35 -20 -79.5 -30t-79.5 -10q-75 0 -121 43t-46 124q0 47 16 82t53.5 58t99 35t153.5 14v15q0 18 -10.5 29t-28.5 17t-43 8t-53 2q-31 0 -68.5 -5t-75.5 -13v106q48 13 97.5 18t94.5 5q47 0 87.5 -10t70 -31t46.5 -52.5t17 -74.5v-363h-130v33zM249 99
q27 0 58 10t57 25v112q-47 -1 -81.5 -4t-57.5 -11.5t-34.5 -24t-11.5 -40.5q0 -67 70 -67zM106 727h134v-127h-134v127zM321 727h134v-127h-134v127zM131 882h300v-87h-300v87z" />
    <glyph glyph-name="uni01E0" unicode="&#x1e0;" horiz-adv-x="651" 
d="M451 175h-251l-55 -175h-139l236 727h169l235 -727h-140zM237 290h177l-88 290zM177 999h300v-77h-300v77zM260 889h134v-117h-134v117z" />
    <glyph glyph-name="uni01E1" unicode="&#x1e1;" horiz-adv-x="559" 
d="M368 33q-35 -20 -79.5 -30t-79.5 -10q-75 0 -121 43t-46 124q0 47 16 82t53.5 58t99 35t153.5 14v15q0 18 -10.5 29t-28.5 17t-43 8t-53 2q-31 0 -68.5 -5t-75.5 -13v106q48 13 97.5 18t94.5 5q47 0 87.5 -10t70 -31t46.5 -52.5t17 -74.5v-363h-130v33zM249 99
q27 0 58 10t57 25v112q-47 -1 -81.5 -4t-57.5 -11.5t-34.5 -24t-11.5 -40.5q0 -67 70 -67zM214 727h134v-127h-134v127zM131 882h300v-87h-300v87z" />
    <glyph glyph-name="uni01E2" unicode="&#x1e2;" horiz-adv-x="903" 
d="M439 175h-208l-83 -175h-140l346 727h506v-116h-283v-186h271l-45 -116h-226v-193h283v-116h-421v175zM286 290h153v320zM496 882h300v-87h-300v87z" />
    <glyph glyph-name="uni01E3" unicode="&#x1e3;" horiz-adv-x="900" 
d="M626 104q24 0 48 1.5t49 5.5t52.5 10t60.5 15v-104q-58 -20 -112.5 -29.5t-105.5 -9.5q-22 0 -46.5 2t-49.5 10t-49.5 23.5t-46.5 42.5q-33 -25 -65 -40t-61.5 -23.5t-55 -11.5t-45.5 -3q-75 0 -121 43t-46 124q0 47 16 82t53.5 58t99 35t153.5 14v15q0 18 -10.5 29
t-28.5 17t-43 8t-53 2q-31 0 -68.5 -5t-75.5 -13v106q48 13 97.5 18t94.5 5q57 0 102.5 -16t75.5 -51q30 35 73.5 51t103.5 16q120 0 176.5 -60t56.5 -198q0 -16 -1 -35.5t-3 -38.5h-335q5 -49 29 -72t81 -23zM239 99q35 0 77 16.5t74 40.5q-4 23 -5.5 45t-2.5 45
q-50 -1 -89 -3t-67 -9.5t-42.5 -23.5t-14.5 -44q0 -67 70 -67zM724 307q-3 57 -24.5 85.5t-77.5 28.5q-29 0 -48.5 -7t-31.5 -21.5t-18 -36t-9 -49.5h209zM294 710h300v-87h-300v87z" />
    <glyph glyph-name="uni01E4" unicode="&#x1e4;" horiz-adv-x="690" 
d="M613 416v-155h106l-40 -98h-66v-163h-137v27q-37 -15 -71.5 -23.5t-74.5 -8.5q-80 0 -135 27t-89.5 76t-50 117t-15.5 149q0 85 15.5 153.5t50 116.5t89.5 74t135 26q57 0 115.5 -8t121.5 -28v-110q-61 17 -115 23.5t-108 6.5q-85 0 -124 -64.5t-39 -189.5
q0 -123 38.5 -188t123.5 -65q37 0 67.5 5t65.5 14v33h-162v98h162v38h-177v117h314z" />
    <glyph glyph-name="uni01E5" unicode="&#x1e5;" horiz-adv-x="571" 
d="M254 -5h118v36q-29 -11 -56.5 -15t-56.5 -4q-63 0 -105 19t-67.5 53.5t-36 83.5t-10.5 109t10.5 107.5t35.5 79.5t66 49t103 17q29 0 60.5 -8t56.5 -23v26h134v-530h64l-22 -55h-45q-14 -69 -73 -101.5t-146 -32.5q-42 0 -89 6t-98 18v104q19 -4 39.5 -7.5t39 -5.5
t35 -3.5t27.5 -1.5q51 0 78 4t43 20h-105v55zM372 393q-23 11 -50 18t-56 7t-46 -9.5t-26.5 -27.5t-12.5 -44.5t-3 -59.5q0 -32 3 -60.5t12.5 -49.5t26.5 -33.5t45 -12.5q26 0 53 5.5t54 13.5v253z" />
    <glyph glyph-name="Gcaron" unicode="&#x1e6;" horiz-adv-x="682" 
d="M613 416v-416h-137v27q-37 -15 -71.5 -23.5t-74.5 -8.5q-80 0 -135 27t-89.5 76t-50 117t-15.5 149q0 85 15.5 153.5t50 116.5t89.5 74t135 26q57 0 115.5 -8t121.5 -28v-110q-61 17 -115 23.5t-108 6.5q-85 0 -124 -64.5t-39 -189.5q0 -123 38.5 -188t123.5 -65
q37 0 67.5 5t65.5 14v169h-177v117h314zM287 795l-106 127h118l37 -55l36 55h114l-102 -127h-97z" />
    <glyph glyph-name="gcaron" unicode="&#x1e7;" horiz-adv-x="571" 
d="M372 393q-23 11 -50 18t-56 7t-46 -9.5t-26.5 -27.5t-12.5 -44.5t-3 -59.5q0 -32 3 -60.5t12.5 -49.5t26.5 -33.5t45 -12.5q26 0 53 5.5t54 13.5v253zM259 12q-63 0 -105 19t-67.5 53.5t-36 83.5t-10.5 109t10.5 107.5t35.5 79.5t66 49t103 17q29 0 60.5 -8t56.5 -23v26
h134v-550q0 -44 -16.5 -75.5t-46.5 -52.5t-70.5 -31t-88.5 -10q-42 0 -89 6t-98 18v104q19 -4 39.5 -7.5t39 -5.5t35 -3.5t27.5 -1.5q33 0 58 2.5t42 10.5t25.5 23t8.5 40v39q-29 -11 -56.5 -15t-56.5 -4zM237 600l-106 127h118l37 -55l36 55h114l-102 -127h-97z" />
    <glyph glyph-name="uni01E8" unicode="&#x1e8;" horiz-adv-x="632" 
d="M272 795l-106 127h118l37 -55l36 55h114l-102 -127h-97zM55 727h138v-272l270 272h164l-354 -360l357 -367h-166l-271 279v-279h-138v727z" />
    <glyph glyph-name="uni01E9" unicode="&#x1e9;" horiz-adv-x="528" 
d="M238 795l-106 127h118l37 -55l36 55h114l-102 -127h-97zM51 0v712l134 40v-413l189 186h159l-257 -257l262 -268h-161l-192 189v-189h-134z" />
    <glyph glyph-name="uni01EA" unicode="&#x1ea;" horiz-adv-x="687" 
d="M481 18q-37 -16 -81 -19q-23 -20 -36 -42t-13 -45q0 -35 26 -35q13 0 23 3.5t27 13.5v-67q-17 -11 -43 -17.5t-44 -6.5q-48 0 -70.5 25t-22.5 60q0 26 13.5 56t39.5 53q-70 6 -118 32t-77.5 72t-42.5 111.5t-13 148.5q0 90 15 159.5t49.5 117t90.5 72t139 24.5
q82 0 138.5 -24.5t91 -72t49.5 -117t15 -159.5q0 -135 -35 -221t-121 -122zM343 111q86 0 121 61.5t35 188.5q0 125 -35 191t-121 66t-121 -65.5t-35 -191.5q0 -127 35 -188.5t121 -61.5z" />
    <glyph glyph-name="uni01EB" unicode="&#x1eb;" horiz-adv-x="569" 
d="M172 12q-69 29 -100 92t-31 154q0 63 13.5 114t42.5 86t75 54t112 19t112 -19t75 -54t42 -86t13 -114q0 -52 -10 -97t-32 -79.5t-56.5 -56.5t-83.5 -27q-48 -42 -48 -86q0 -35 26 -35q13 0 23 3.5t27 13.5v-67q-17 -11 -43 -17.5t-44 -6.5q-48 0 -70.5 25t-22.5 60
q0 26 13 56t38 51q-39 4 -71 17zM284 421q-55 0 -80 -37.5t-25 -125.5q0 -86 25 -120.5t80 -34.5q51 0 77.5 34.5t26.5 120.5q0 88 -26.5 125.5t-77.5 37.5z" />
    <glyph glyph-name="uni01EC" unicode="&#x1ec;" horiz-adv-x="687" 
d="M481 18q-37 -16 -81 -19q-23 -20 -36 -42t-13 -45q0 -35 26 -35q13 0 23 3.5t27 13.5v-67q-17 -11 -43 -17.5t-44 -6.5q-48 0 -70.5 25t-22.5 60q0 26 13.5 56t39.5 53q-70 6 -118 32t-77.5 72t-42.5 111.5t-13 148.5q0 90 15 159.5t49.5 117t90.5 72t139 24.5
q82 0 138.5 -24.5t91 -72t49.5 -117t15 -159.5q0 -135 -35 -221t-121 -122zM343 111q86 0 121 61.5t35 188.5q0 125 -35 191t-121 66t-121 -65.5t-35 -191.5q0 -127 35 -188.5t121 -61.5zM192 882h300v-87h-300v87z" />
    <glyph glyph-name="uni01ED" unicode="&#x1ed;" horiz-adv-x="569" 
d="M172 12q-69 29 -100 92t-31 154q0 63 13.5 114t42.5 86t75 54t112 19t112 -19t75 -54t42 -86t13 -114q0 -52 -10 -97t-32 -79.5t-56.5 -56.5t-83.5 -27q-48 -42 -48 -86q0 -35 26 -35q13 0 23 3.5t27 13.5v-67q-17 -11 -43 -17.5t-44 -6.5q-48 0 -70.5 25t-22.5 60
q0 26 13 56t38 51q-39 4 -71 17zM284 421q-55 0 -80 -37.5t-25 -125.5q0 -86 25 -120.5t80 -34.5q51 0 77.5 34.5t26.5 120.5q0 88 -26.5 125.5t-77.5 37.5zM134 710h300v-87h-300v87z" />
    <glyph glyph-name="uni01EE" unicode="&#x1ee;" horiz-adv-x="600" 
d="M556 121q0 -72 -15.5 -130t-50 -99.5t-88.5 -63.5t-131 -22q-58 0 -105.5 16t-81 47.5t-52 76.5t-18.5 104h135q0 -58 33.5 -95.5t90.5 -37.5q40 0 68.5 14.5t46 41.5t25.5 64.5t8 83.5q0 85 -52 134.5t-158 49.5v95l177 214h-337v113h493v-112l-179 -214
q101 -24 146 -96.5t45 -183.5zM250 795l-106 127h118l37 -55l36 55h114l-102 -127h-97z" />
    <glyph glyph-name="uni01EF" unicode="&#x1ef;" horiz-adv-x="480" 
d="M454 42q0 -56 -11.5 -100t-38 -74.5t-69 -46.5t-103.5 -16q-47 0 -85 14.5t-65.5 41.5t-42.5 66.5t-15 90.5h128q0 -43 22 -74t58 -31q50 0 71 35.5t21 93.5q0 66 -38.5 96t-116.5 30v88l132 159h-250v110h396v-108l-131 -153q34 -12 60 -34t43 -51t26 -64t9 -73z
M197 600l-106 127h118l37 -55l36 55h114l-102 -127h-97z" />
    <glyph glyph-name="uni01F0" unicode="&#x1f0;" horiz-adv-x="270" 
d="M202 525v-543q0 -35 -10 -66.5t-29.5 -55.5t-48 -38.5t-64.5 -14.5q-69 0 -130 16v105q27 -6 52 -10.5t41 -4.5q30 0 42 10.5t12 38.5v563h135zM86 600l-106 127h118l37 -55l36 55h114l-102 -127h-97z" />
    <glyph glyph-name="uni01F1" unicode="&#x1f1;" horiz-adv-x="1190" 
d="M67 0v727h263q87 0 143 -24.5t89 -70.5t45.5 -110.5t12.5 -145.5q0 -83 -12 -152t-44 -119t-88.5 -77.5t-145.5 -27.5h-263zM482 376q0 52 -6 95.5t-23 74.5t-49 48t-83 17h-116v-495h116q51 0 83 20.5t49 56t23 82.5t6 101zM637 727h493v-103l-334 -508h352l-44 -116
h-467v105l328 506h-328v116z" />
    <glyph glyph-name="uni01F2" unicode="&#x1f2;" horiz-adv-x="1160" 
d="M67 0v727h263q87 0 143 -24.5t89 -70.5t45.5 -110.5t12.5 -145.5q0 -83 -12 -152t-44 -119t-88.5 -77.5t-145.5 -27.5h-263zM482 376q0 52 -6 95.5t-23 74.5t-49 48t-83 17h-116v-495h116q51 0 83 20.5t49 56t23 82.5t6 101zM673 525h419v-94l-257 -319h275l-43 -112
h-396v102l253 311h-251v112z" />
    <glyph glyph-name="uni01F3" unicode="&#x1f3;" horiz-adv-x="1060" 
d="M587 525h419v-94l-257 -319h275l-43 -112h-396v102l253 311h-251v112zM263 530q29 0 56 -5t59 -13v200l133 40v-752h-133v28q-24 -15 -58.5 -25.5t-66.5 -10.5q-59 0 -99 19t-65 54t-35.5 84t-10.5 110q0 60 11 110t36.5 85.5t68 55.5t104.5 20zM378 399q-28 8 -56 13.5
t-48 5.5q-29 0 -47 -13t-28.5 -34.5t-14 -50.5t-3.5 -61q0 -34 3.5 -62.5t13.5 -49.5t28.5 -32.5t47.5 -11.5q23 0 53.5 9t50.5 22v265z" />
    <glyph glyph-name="uni01F4" unicode="&#x1f4;" horiz-adv-x="682" 
d="M299 416v-117h177v-169q-35 -9 -65.5 -14t-67.5 -5q-85 0 -123.5 65t-38.5 188q0 125 39 189.5t124 64.5q54 0 108 -6.5t115 -23.5v110q-63 20 -121.5 28t-115.5 8q-80 0 -135 -26t-89.5 -74t-50 -116.5t-15.5 -153.5q0 -81 15.5 -149t50 -117t89.5 -76t135 -27
q40 0 74.5 8.5t71.5 23.5v-27h137v416h-314zM271 795l62 127h148l-105 -127h-105z" />
    <glyph glyph-name="uni01F5" unicode="&#x1f5;" horiz-adv-x="571" 
d="M372 393q-23 11 -50 18t-56 7t-46 -9.5t-26.5 -27.5t-12.5 -44.5t-3 -59.5q0 -32 3 -60.5t12.5 -49.5t26.5 -33.5t45 -12.5q26 0 53 5.5t54 13.5v253zM259 12q-63 0 -105 19t-67.5 53.5t-36 83.5t-10.5 109t10.5 107.5t35.5 79.5t66 49t103 17q29 0 60.5 -8t56.5 -23v26
h134v-550q0 -44 -16.5 -75.5t-46.5 -52.5t-70.5 -31t-88.5 -10q-42 0 -89 6t-98 18v104q19 -4 39.5 -7.5t39 -5.5t35 -3.5t27.5 -1.5q33 0 58 2.5t42 10.5t25.5 23t8.5 40v39q-29 -11 -56.5 -15t-56.5 -4zM201 600l62 127h148l-105 -127h-105z" />
    <glyph glyph-name="uni01F6" unicode="&#x1f6;" horiz-adv-x="1020" 
d="M949 525v-525h-133v32q-38 -18 -75.5 -28.5t-72.5 -10.5q-36 0 -69 9t-58 29t-39.5 51.5t-14.5 77.5v150h-284v-310h-138v727h138v-301h284v301h138v-574q0 -26 15.5 -37.5t46.5 -11.5q32 0 64 8t65 19v394h133z" />
    <glyph glyph-name="uni01F7" unicode="&#x1f7;" horiz-adv-x="590" 
d="M205 -153l-139 -42v899l139 42v-34q29 11 54 16.5t57 5.5q118 0 171 -62t53 -194q0 -66 -22 -131t-65 -119.5t-105 -94.5t-143 -55v-231zM205 190q49 13 85.5 42t60 68t35 85t11.5 93q0 81 -22.5 114t-67.5 33q-28 0 -52 -6t-50 -17v-412z" />
    <glyph glyph-name="uni01F8" unicode="&#x1f8;" horiz-adv-x="702" 
d="M66 727h189l248 -579v579h133v-727h-189l-248 579v-579h-133v727zM324 795l-105 127h148l62 -127h-105z" />
    <glyph glyph-name="uni01F9" unicode="&#x1f9;" 
d="M59 0v494l135 40v-43q42 20 83 30t87 10q42 0 73 -12.5t50.5 -35t29 -53.5t9.5 -67v-363h-133v363q0 31 -15 44t-46 13q-46 0 -138 -37v-383h-135zM257 600l-105 127h148l62 -127h-105z" />
    <glyph glyph-name="Aringacute" unicode="&#x1fa;" horiz-adv-x="651" 
d="M451 175h-251l-55 -175h-139l236 727h169l235 -727h-140zM232 851q0 44 29 66t65 22h4l38 60h138l-103 -96q15 -23 15 -52q0 -44 -28 -64t-64 -20q-18 0 -35 5t-30 15t-21 26t-8 38zM237 290h177l-88 290zM301 851q0 -21 25 -21q24 0 24 21q0 9 -6.5 15.5t-17.5 6.5
t-18 -6.5t-7 -15.5z" />
    <glyph glyph-name="aringacute" unicode="&#x1fb;" horiz-adv-x="559" 
d="M368 0h130v363q0 43 -17 74.5t-46.5 52.5t-70 31t-87.5 10q-45 0 -94.5 -5t-97.5 -18v-106q38 8 75.5 13t68.5 5q28 0 53 -2t43 -8t28.5 -17t10.5 -29v-15q-92 -2 -153.5 -14t-99 -35t-53.5 -58t-16 -82q0 -81 46 -124t121 -43q35 0 79.5 10t79.5 30v-33zM249 99
q-70 0 -70 67q0 25 11.5 40.5t34.5 24t57.5 11.5t81.5 4v-112q-26 -15 -57 -25t-58 -10zM187 664q0 -22 8 -38t21 -26t30 -15t35 -5q36 0 64 20t28 64q0 45 -28 66.5t-64 21.5t-65 -22t-29 -66zM256 664q0 9 7 15.5t18 6.5t17.5 -6.5t6.5 -15.5q0 -21 -24 -21q-25 0 -25 21z
M216 795l62 127h148l-105 -127h-105z" />
    <glyph glyph-name="AEacute" unicode="&#x1fc;" horiz-adv-x="903" 
d="M439 0h421v116h-283v193h226l45 116h-271v186h283v116h-506l-346 -727h140l83 175h208v-175zM439 610v-320h-153zM425 795l62 127h148l-105 -127h-105z" />
    <glyph glyph-name="aeacute" unicode="&#x1fd;" horiz-adv-x="900" 
d="M626 104q-57 0 -81 23t-29 72h335q2 19 3 38.5t1 35.5q0 138 -56.5 198t-176.5 60q-60 0 -103.5 -16t-73.5 -51q-30 35 -75.5 51t-102.5 16q-45 0 -94.5 -5t-97.5 -18v-106q38 8 75.5 13t68.5 5q28 0 53 -2t43 -8t28.5 -17t10.5 -29v-15q-92 -2 -153.5 -14t-99 -35
t-53.5 -58t-16 -82q0 -81 46 -124t121 -43q20 0 45.5 3t55 11.5t61.5 23.5t65 40q22 -27 46.5 -42.5t49.5 -23.5t49.5 -10t46.5 -2q51 0 105.5 9.5t112.5 29.5v104q-33 -9 -60.5 -15t-52.5 -10t-49 -5.5t-48 -1.5zM239 99q-70 0 -70 67q0 28 14.5 44t42.5 23.5t67 9.5t89 3
q1 -23 2.5 -45t5.5 -45q-32 -24 -74 -40.5t-77 -16.5zM515 307q3 28 9 49.5t18 36t31.5 21.5t48.5 7q56 0 77.5 -28.5t24.5 -85.5h-209zM394 600l62 127h148l-105 -127h-105z" />
    <glyph glyph-name="Oslashacute" unicode="&#x1fe;" horiz-adv-x="687" 
d="M641 747l-74 43l-56 -96q-29 20 -72 30t-96 10q-83 0 -139 -24.5t-90.5 -72t-49.5 -117t-15 -159.5q0 -107 21 -180.5t70 -122.5l-66 -114l73 -44l67 114q51 -19 129 -19q82 0 138.5 23.5t91 70t49.5 114.5t15 158q0 89 -15 157t-47 116zM187 361q0 126 35 191.5
t121 65.5q65 0 101 -38l-229 -394q-28 60 -28 175zM343 111q-38 0 -66 12l210 361q12 -53 12 -123q0 -127 -35 -188.5t-121 -61.5zM271 795l62 127h148l-105 -127h-105z" />
    <glyph glyph-name="oslashacute" unicode="&#x1ff;" horiz-adv-x="569" 
d="M71 -30l-59 50l64 74q-35 67 -35 164q0 63 13.5 114t42.5 86t75 54t112 19q45 0 77.5 -8.5t63.5 -25.5l62 71l59 -50l-65 -74q24 -37 34.5 -83t10.5 -103q0 -61 -13 -110t-42 -83.5t-75 -53t-112 -18.5q-50 0 -87.5 11t-68.5 32zM284 103q51 0 77.5 34.5t26.5 120.5
q0 41 -6 71l-172 -199q25 -27 74 -27zM284 421q-55 0 -80 -37.5t-25 -125.5v-23t1 -21l163 188q-22 19 -59 19zM209 600l62 127h148l-105 -127h-105z" />
    <glyph glyph-name="uni0200" unicode="&#x200;" horiz-adv-x="651" 
d="M451 175h-251l-55 -175h-139l236 727h169l235 -727h-140zM237 290h177l-88 290zM370 795l-105 127h138l62 -127h-95zM201 795l-105 127h138l62 -127h-95z" />
    <glyph glyph-name="uni0201" unicode="&#x201;" horiz-adv-x="559" 
d="M368 33q-35 -20 -79.5 -30t-79.5 -10q-75 0 -121 43t-46 124q0 47 16 82t53.5 58t99 35t153.5 14v15q0 18 -10.5 29t-28.5 17t-43 8t-53 2q-31 0 -68.5 -5t-75.5 -13v106q48 13 97.5 18t94.5 5q47 0 87.5 -10t70 -31t46.5 -52.5t17 -74.5v-363h-130v33zM249 99
q27 0 58 10t57 25v112q-47 -1 -81.5 -4t-57.5 -11.5t-34.5 -24t-11.5 -40.5q0 -67 70 -67zM338 600l-105 127h138l62 -127h-95zM169 600l-105 127h138l62 -127h-95z" />
    <glyph glyph-name="uni0202" unicode="&#x202;" horiz-adv-x="651" 
d="M506 0h140l-235 727h-169l-236 -727h139l55 175h251zM326 580l88 -290h-177zM189 790q0 22 9 43.5t27 38t44 26.5t60 10t59.5 -10t43.5 -26.5t27.5 -38t10.5 -43.5h-95q-4 19 -17 29.5t-30 10.5q-18 0 -30.5 -10.5t-14.5 -29.5h-94z" />
    <glyph glyph-name="uni0203" unicode="&#x203;" horiz-adv-x="559" 
d="M368 0h130v363q0 43 -17 74.5t-46.5 52.5t-70 31t-87.5 10q-45 0 -94.5 -5t-97.5 -18v-106q38 8 75.5 13t68.5 5q28 0 53 -2t43 -8t28.5 -17t10.5 -29v-15q-92 -2 -153.5 -14t-99 -35t-53.5 -58t-16 -82q0 -81 46 -124t121 -43q35 0 79.5 10t79.5 30v-33zM249 99
q-70 0 -70 67q0 25 11.5 40.5t34.5 24t57.5 11.5t81.5 4v-112q-26 -15 -57 -25t-58 -10zM138 618q0 22 9 43.5t27 38t44 26.5t60 10t59.5 -10t43.5 -26.5t27.5 -38t10.5 -43.5h-95q-4 19 -17 29.5t-30 10.5q-18 0 -30.5 -10.5t-14.5 -29.5h-94z" />
    <glyph glyph-name="uni0204" unicode="&#x204;" horiz-adv-x="601" 
d="M63 727h491v-116h-353v-186h341l-45 -116h-296v-193h353v-116h-491v727zM370 795l-105 127h138l62 -127h-95zM201 795l-105 127h138l62 -127h-95z" />
    <glyph glyph-name="uni0205" unicode="&#x205;" horiz-adv-x="559" 
d="M287 104q49 0 97 7t113 25v-104q-58 -20 -112.5 -29.5t-105.5 -9.5q-65 0 -110 15.5t-73.5 48t-41.5 82.5t-13 118q0 147 59.5 210.5t182.5 63.5q120 0 176.5 -60t56.5 -198q0 -16 -1 -35.5t-3 -38.5h-335q5 -49 29 -72t81 -23zM385 307q-3 57 -24.5 85.5t-77.5 28.5
q-29 0 -48.5 -7t-31.5 -21.5t-18 -36t-9 -49.5h209zM338 600l-105 127h138l62 -127h-95zM169 600l-105 127h138l62 -127h-95z" />
    <glyph glyph-name="uni0206" unicode="&#x206;" horiz-adv-x="601" 
d="M63 0h491v116h-353v193h296l45 116h-341v186h353v116h-491v-727zM189 790q0 22 9 43.5t27 38t44 26.5t60 10t59.5 -10t43.5 -26.5t27.5 -38t10.5 -43.5h-95q-4 19 -17 29.5t-30 10.5q-18 0 -30.5 -10.5t-14.5 -29.5h-94z" />
    <glyph glyph-name="uni0207" unicode="&#x207;" horiz-adv-x="559" 
d="M287 104q-57 0 -81 23t-29 72h335q2 19 3 38.5t1 35.5q0 138 -56.5 198t-176.5 60q-123 0 -182.5 -63.5t-59.5 -210.5q0 -68 13 -118t41.5 -82.5t73.5 -48t110 -15.5q51 0 105.5 9.5t112.5 29.5v104q-65 -18 -113 -25t-97 -7zM176 307q3 28 9 49.5t18 36t31.5 21.5
t48.5 7q56 0 77.5 -28.5t24.5 -85.5h-209zM146 618q0 22 9 43.5t27 38t44 26.5t60 10t59.5 -10t43.5 -26.5t27.5 -38t10.5 -43.5h-95q-4 19 -17 29.5t-30 10.5q-18 0 -30.5 -10.5t-14.5 -29.5h-94z" />
    <glyph glyph-name="uni0208" unicode="&#x208;" horiz-adv-x="300" 
d="M82 727h138v-727h-138v727zM216 795l-105 127h138l62 -127h-95zM47 795l-105 127h138l62 -127h-95z" />
    <glyph glyph-name="uni0209" unicode="&#x209;" horiz-adv-x="300" 
d="M82 525h138v-525h-138v525zM214 600l-105 127h138l62 -127h-95zM45 600l-105 127h138l62 -127h-95z" />
    <glyph glyph-name="uni020A" unicode="&#x20a;" horiz-adv-x="242" 
d="M52 0h138v727h-138v-727zM-18 790q0 22 9 43.5t27 38t44 26.5t60 10t59.5 -10t43.5 -26.5t27.5 -38t10.5 -43.5h-95q-4 19 -17 29.5t-30 10.5q-18 0 -30.5 -10.5t-14.5 -29.5h-94z" />
    <glyph glyph-name="uni020B" unicode="&#x20b;" horiz-adv-x="231" 
d="M52 0h138v525h-138v-525zM-24 618q0 22 9 43.5t27 38t44 26.5t60 10t59.5 -10t43.5 -26.5t27.5 -38t10.5 -43.5h-95q-4 19 -17 29.5t-30 10.5q-18 0 -30.5 -10.5t-14.5 -29.5h-94z" />
    <glyph glyph-name="uni020C" unicode="&#x20c;" horiz-adv-x="687" 
d="M343 111q86 0 121 61.5t35 188.5q0 125 -35 191t-121 66t-121 -65.5t-35 -191.5q0 -127 35 -188.5t121 -61.5zM343 -5q-83 0 -139 23.5t-90.5 70t-49.5 114.5t-15 158t15 159.5t49.5 117t90.5 72t139 24.5q82 0 138.5 -24.5t91 -72t49.5 -117t15 -159.5t-15 -158
t-49.5 -114.5t-91 -70t-138.5 -23.5zM399 795l-105 127h138l62 -127h-95zM230 795l-105 127h138l62 -127h-95z" />
    <glyph glyph-name="uni020D" unicode="&#x20d;" horiz-adv-x="569" 
d="M284 -7q-65 0 -111.5 19t-75.5 53.5t-42.5 83.5t-13.5 109q0 63 13.5 114t42.5 86t75 54t112 19t112 -19t75 -54t42 -86t13 -114q0 -61 -13 -110t-42 -83.5t-75 -53t-112 -18.5zM284 421q-55 0 -80 -37.5t-25 -125.5q0 -86 25 -120.5t80 -34.5q51 0 77.5 34.5t26.5 120.5
q0 88 -26.5 125.5t-77.5 37.5zM337 600l-105 127h138l62 -127h-95zM168 600l-105 127h138l62 -127h-95z" />
    <glyph glyph-name="uni020E" unicode="&#x20e;" horiz-adv-x="687" 
d="M343 111q-86 0 -121 61.5t-35 188.5q0 126 35 191.5t121 65.5t121 -66t35 -191q0 -127 -35 -188.5t-121 -61.5zM343 -5q82 0 138.5 23.5t91 70t49.5 114.5t15 158t-15 159.5t-49.5 117t-91 72t-138.5 24.5q-83 0 -139 -24.5t-90.5 -72t-49.5 -117t-15 -159.5t15 -158
t49.5 -114.5t90.5 -70t139 -23.5zM207 790q0 22 9 43.5t27 38t44 26.5t60 10t59.5 -10t43.5 -26.5t27.5 -38t10.5 -43.5h-95q-4 19 -17 29.5t-30 10.5q-18 0 -30.5 -10.5t-14.5 -29.5h-94z" />
    <glyph glyph-name="uni020F" unicode="&#x20f;" horiz-adv-x="569" 
d="M284 -7q-65 0 -111.5 19t-75.5 53.5t-42.5 83.5t-13.5 109q0 63 13.5 114t42.5 86t75 54t112 19t112 -19t75 -54t42 -86t13 -114q0 -61 -13 -110t-42 -83.5t-75 -53t-112 -18.5zM284 421q-55 0 -80 -37.5t-25 -125.5q0 -86 25 -120.5t80 -34.5q51 0 77.5 34.5t26.5 120.5
q0 88 -26.5 125.5t-77.5 37.5zM149 618q0 22 9 43.5t27 38t44 26.5t60 10t59.5 -10t43.5 -26.5t27.5 -38t10.5 -43.5h-95q-4 19 -17 29.5t-30 10.5q-18 0 -30.5 -10.5t-14.5 -29.5h-94z" />
    <glyph glyph-name="uni0210" unicode="&#x210;" horiz-adv-x="653" 
d="M331 254h-126v-254h-137v727h278q62 0 108.5 -12.5t77 -40.5t45.5 -73t15 -109q0 -91 -29 -143t-90 -75l153 -274h-155zM337 370q60 0 88.5 29t28.5 93q0 66 -28.5 92.5t-88.5 26.5h-132v-241h132zM369 795l-105 127h138l62 -127h-95zM200 795l-105 127h138l62 -127h-95z
" />
    <glyph glyph-name="uni0211" unicode="&#x211;" horiz-adv-x="421" 
d="M57 0v495l134 40v-35q35 13 67.5 20.5t70.5 7.5q14 0 30 -0.5t36 -2.5v-116q-11 1 -20 1.5t-17 0.5h-29q-38 0 -70.5 -6t-67.5 -14v-391h-134zM283 600l-105 127h138l62 -127h-95zM114 600l-105 127h138l62 -127h-95z" />
    <glyph glyph-name="uni0212" unicode="&#x212;" horiz-adv-x="653" 
d="M471 0h155l-153 274q61 23 90 75t29 143q0 64 -15 109t-45.5 73t-77 40.5t-108.5 12.5h-278v-727h137v254h126zM205 370v241h132q60 0 88.5 -26.5t28.5 -92.5q0 -64 -28.5 -93t-88.5 -29h-132zM167 790q0 22 9 43.5t27 38t44 26.5t60 10t59.5 -10t43.5 -26.5t27.5 -38
t10.5 -43.5h-95q-4 19 -17 29.5t-30 10.5q-18 0 -30.5 -10.5t-14.5 -29.5h-94z" />
    <glyph glyph-name="uni0213" unicode="&#x213;" horiz-adv-x="421" 
d="M191 0v391q35 8 67.5 14t70.5 6h29q8 0 17 -0.5t20 -1.5v116q-20 2 -36 2.5t-30 0.5q-38 0 -70.5 -7.5t-67.5 -20.5v35l-134 -40v-495h134zM88 618q0 22 9 43.5t27 38t44 26.5t60 10t59.5 -10t43.5 -26.5t27.5 -38t10.5 -43.5h-95q-4 19 -17 29.5t-30 10.5
q-18 0 -30.5 -10.5t-14.5 -29.5h-94z" />
    <glyph glyph-name="uni0214" unicode="&#x214;" horiz-adv-x="676" 
d="M203 238q0 -69 36.5 -97t96.5 -28q63 0 99 28t36 97v489h140v-490q0 -66 -18 -112t-53.5 -75t-86.5 -42t-117 -13t-116.5 13t-85 42t-52 75t-17.5 112v490h138v-489zM394 795l-105 127h138l62 -127h-95zM225 795l-105 127h138l62 -127h-95z" />
    <glyph glyph-name="uni0215" unicode="&#x215;" 
d="M520 525v-525h-133v32q-38 -18 -75.5 -28.5t-72.5 -10.5q-36 0 -68.5 9t-56.5 29t-38 51.5t-14 77.5v335l134 40v-382q0 -26 15.5 -37.5t46.5 -11.5q32 0 64 8t65 19v394h133zM353 600l-105 127h138l62 -127h-95zM184 600l-105 127h138l62 -127h-95z" />
    <glyph glyph-name="uni0216" unicode="&#x216;" horiz-adv-x="676" 
d="M203 727h-138v-490q0 -66 17.5 -112t52 -75t85 -42t116.5 -13t117 13t86.5 42t53.5 75t18 112v490h-140v-489q0 -69 -36 -97t-99 -28q-60 0 -96.5 28t-36.5 97v489zM201 790q0 22 9 43.5t27 38t44 26.5t60 10t59.5 -10t43.5 -26.5t27.5 -38t10.5 -43.5h-95
q-4 19 -17 29.5t-30 10.5q-18 0 -30.5 -10.5t-14.5 -29.5h-94z" />
    <glyph glyph-name="uni0217" unicode="&#x217;" 
d="M387 525v-394q-33 -11 -65 -19t-64 -8q-31 0 -46.5 11.5t-15.5 37.5v382l-134 -40v-335q0 -46 14 -77.5t38 -51.5t56.5 -29t68.5 -9q35 0 72.5 10.5t75.5 28.5v-32h133v525h-133zM154 618q0 22 9 43.5t27 38t44 26.5t60 10t59.5 -10t43.5 -26.5t27.5 -38t10.5 -43.5h-95
q-4 19 -17 29.5t-30 10.5q-18 0 -30.5 -10.5t-14.5 -29.5h-94z" />
    <glyph glyph-name="Scommaaccent" unicode="&#x218;" horiz-adv-x="570" 
d="M497 595q-56 15 -106 20.5t-94 5.5q-25 0 -48 -3t-41 -12.5t-28.5 -26t-10.5 -43.5q0 -25 8 -41t25 -27t44.5 -19.5t66.5 -18.5q54 -14 95 -31t68.5 -41t42 -58.5t14.5 -82.5q0 -112 -65.5 -170t-181.5 -58q-54 0 -115 9.5t-119 27.5v104q65 -13 118.5 -20.5t105.5 -7.5
q66 0 96.5 28t30.5 85q0 21 -9 35.5t-26.5 25t-44 19t-61.5 17.5q-54 13 -95.5 31t-70 44.5t-43.5 62.5t-15 85q0 94 59 146.5t190 52.5q47 0 101 -8t109 -26v-105zM232 -71h139l-67 -128h-108z" />
    <glyph glyph-name="scommaaccent" unicode="&#x219;" horiz-adv-x="500" 
d="M434 399q-56 12 -105.5 18.5t-93.5 6.5q-73 0 -73 -41q0 -24 23.5 -36t77.5 -23q100 -21 148.5 -60t48.5 -111q0 -86 -58.5 -124t-163.5 -38q-20 0 -45.5 2.5t-52.5 7t-52 10.5t-43 14v101q56 -16 103.5 -22t84.5 -6q54 0 78.5 11.5t24.5 40.5q0 13 -5.5 22t-18 15.5
t-33 12.5t-50.5 13q-96 22 -143.5 58t-47.5 107q0 42 15.5 71t42.5 47t63.5 26.5t78.5 8.5q49 0 98 -8.5t98 -20.5v-103zM192 -71h139l-67 -128h-108z" />
    <glyph glyph-name="uni021A" unicode="&#x21a;" horiz-adv-x="647" 
d="M24 727h608l-45 -116h-202v-611h-138v611h-223v116zM244 -71h139l-67 -128h-108z" />
    <glyph glyph-name="uni021B" unicode="&#x21b;" horiz-adv-x="430" 
d="M403 12q-34 -11 -69 -17t-67 -6q-42 0 -72.5 13t-50 36.5t-28.5 54.5t-9 67v255h-92v110h92v132l132 40v-172h147v-110h-147v-257q0 -32 8.5 -45.5t40.5 -13.5q17 0 48.5 5t66.5 13v-105zM182 -71h139l-67 -128h-108z" />
    <glyph glyph-name="uni021C" unicode="&#x21c;" horiz-adv-x="543" 
d="M485 546q0 -51 -22 -90.5t-62 -71.5q51 -21 81.5 -60.5t30.5 -100.5q0 -59 -22 -104t-59 -78t-86 -55.5t-103 -36t-110 -19t-107 -5.5v107q64 6 126 19.5t111 35t78.5 52t29.5 70.5q0 29 -8 48t-20.5 31t-28 19t-30.5 11q-45 -17 -99 -30.5t-120 -26.5v109q6 2 20 4.5
t19 4.5q37 8 79 19t78 30t59.5 47.5t23.5 71.5q0 35 -21.5 54t-76.5 21q-45 0 -94 -15.5t-103 -41.5v108q48 29 99.5 45t105.5 16q45 0 86.5 -8.5t73.5 -30t51.5 -58t19.5 -91.5z" />
    <glyph glyph-name="uni021D" unicode="&#x21d;" horiz-adv-x="543" 
d="M483 368q0 -41 -15 -74t-44 -62q42 -27 64 -59.5t22 -83.5q0 -58 -22 -101.5t-59 -75.5t-85.5 -52.5t-101.5 -33t-107 -17.5t-102 -5v104q63 6 124 18t108.5 32t76.5 49t29 68q0 30 -13.5 51.5t-35.5 35.5q-52 -24 -116.5 -42t-133.5 -32v107q5 2 18.5 4t19.5 4
q36 8 77.5 19t76.5 29.5t58 47t23 70.5q0 21 -17.5 37.5t-61.5 16.5q-96 0 -210 -55v105q47 29 103 45t107 16q44 0 83.5 -9t69 -29t47 -51.5t17.5 -76.5z" />
    <glyph glyph-name="uni021E" unicode="&#x21e;" horiz-adv-x="686" 
d="M482 0h138v727h-138v-301h-279v301h-138v-727h138v310h279v-310zM292 795l-102 127h114l36 -55l37 55h118l-106 -127h-97z" />
    <glyph glyph-name="uni021F" unicode="&#x21f;" horiz-adv-x="586" 
d="M198 0v384q40 15 74.5 25t52.5 10q32 0 48 -13.5t16 -44.5v-361h134v361q0 36 -10 67t-30.5 53.5t-52 35.5t-73.5 13q-44 0 -80.5 -9t-78.5 -26v257l-134 -40v-712h134zM245 795l-102 127h114l36 -55l37 55h118l-106 -127h-97z" />
    <glyph glyph-name="uni0220" unicode="&#x220;" 
d="M59 0v697l135 40v-43q42 20 83 30t87 10q42 0 73 -12.5t50.5 -35t29 -53.5t9.5 -67v-761h-133v761q0 31 -15 44t-46 13q-46 0 -138 -37v-586h-135z" />
    <glyph glyph-name="uni0221" unicode="&#x221;" horiz-adv-x="740" 
d="M263 531q29 0 56 -5t59 -13v199l133 40v-682q33 19 75 19q29 0 55.5 -9.5t46 -27.5t31 -43t11.5 -56q0 -41 -12.5 -69t-35 -46t-54 -26t-68.5 -8q-42 0 -80.5 20t-61.5 63q-13 -16 -25.5 -35t-23.5 -39l-87 54q8 15 20 32.5t26 34.5t28.5 32t27.5 26v30
q-32 -15 -63.5 -22.5t-67.5 -7.5q-59 0 -99 19t-65 54t-35.5 84t-10.5 110q0 60 11 110t36.5 86t68 56t104.5 20zM378 400q-28 8 -56 13.5t-48 5.5q-29 0 -47 -13t-28.5 -35t-14 -51t-3.5 -61q0 -34 3.5 -62.5t13.5 -49.5t28.5 -32.5t47.5 -11.5q23 0 53.5 9t50.5 22v266z
M609 -52q0 20 -10.5 37t-34.5 17t-33 -17t-9 -37t9 -35.5t33 -15.5t34.5 15.5t10.5 35.5z" />
    <glyph glyph-name="uni0222" unicode="&#x222;" horiz-adv-x="625" 
d="M309 96q69 0 103.5 28.5t34.5 73.5q0 49 -39 82.5t-99 44.5q-61 -11 -99 -45t-38 -82q0 -45 35.5 -73.5t101.5 -28.5zM360 733q97 -12 148 -63t51 -129q0 -54 -29.5 -94.5t-74.5 -69.5q26 -12 49.5 -29t41.5 -39t28.5 -49.5t10.5 -61.5q0 -45 -17.5 -84t-52 -67
t-86.5 -44t-120 -16t-118.5 15.5t-84.5 43.5t-50.5 66.5t-16.5 85.5q0 33 10 60t27 49t38.5 39t45.5 30q-43 28 -72.5 68t-29.5 97q0 78 51.5 129.5t148.5 62.5v-112q-61 -20 -61 -80q0 -44 26.5 -70t85.5 -46q57 20 85.5 45.5t28.5 70.5q0 60 -63 80v112z" />
    <glyph glyph-name="uni0223" unicode="&#x223;" horiz-adv-x="550" 
d="M271 97q60 0 88.5 28.5t28.5 73.5q0 48 -32.5 82t-84.5 45q-54 -11 -85.5 -46t-31.5 -81q0 -45 30 -73.5t87 -28.5zM315 733q84 -12 128 -63t44 -129q0 -54 -26 -94.5t-64 -69.5q22 -12 42.5 -28.5t36 -38.5t25 -49.5t9.5 -61.5q0 -45 -15 -84t-45 -67t-75 -44t-104 -16
t-103 15.5t-73 43.5t-43.5 66.5t-14.5 85.5q0 65 31.5 109t73.5 68q-38 28 -63.5 68t-25.5 97q0 78 44.5 129.5t129.5 62.5v-112q-26 -10 -38.5 -32t-12.5 -48q0 -42 22 -69t73 -47q51 20 74 46.5t23 69.5q0 26 -13 48t-40 32v112z" />
    <glyph glyph-name="uni0224" unicode="&#x224;" horiz-adv-x="596" 
d="M403 116q79 0 120 -44t41 -118q0 -15 -2 -31t-5 -33h-104q2 14 3.5 27.5t1.5 26.5q0 24 -11.5 40t-45.5 16h-351v105l328 506h-328v116h493v-103l-334 -508h194z" />
    <glyph glyph-name="uni0225" unicode="&#x225;" horiz-adv-x="515" 
d="M50 525h419v-94l-257 -319h108q81 0 121 -43t40 -117q0 -15 -2 -30.5t-5 -31.5h-104q2 14 3.5 27.5t1.5 26.5q0 24 -11.5 40t-45.5 16h-270v102l253 311h-251v112z" />
    <glyph glyph-name="uni0226" unicode="&#x226;" horiz-adv-x="651" 
d="M451 175h-251l-55 -175h-139l236 727h169l235 -727h-140zM237 290h177l-88 290zM259 922h134v-127h-134v127z" />
    <glyph glyph-name="uni0227" unicode="&#x227;" horiz-adv-x="559" 
d="M368 33q-35 -20 -79.5 -30t-79.5 -10q-75 0 -121 43t-46 124q0 47 16 82t53.5 58t99 35t153.5 14v15q0 18 -10.5 29t-28.5 17t-43 8t-53 2q-31 0 -68.5 -5t-75.5 -13v106q48 13 97.5 18t94.5 5q47 0 87.5 -10t70 -31t46.5 -52.5t17 -74.5v-363h-130v33zM249 99
q27 0 58 10t57 25v112q-47 -1 -81.5 -4t-57.5 -11.5t-34.5 -24t-11.5 -40.5q0 -67 70 -67zM214 727h134v-127h-134v127z" />
    <glyph glyph-name="uni0228" unicode="&#x228;" horiz-adv-x="601" 
d="M343 0l-7 -31h22q33 0 54 -18t21 -60q0 -40 -25 -63.5t-74 -23.5q-30 0 -54 2.5t-49 8.5v65q20 -2 36.5 -4.5t39.5 -2.5q19 0 33.5 3.5t14.5 16.5q0 11 -7 14t-23 3h-80l21 90h-203v727h491v-116h-353v-186h341l-45 -116h-296v-193h353v-116h-211z" />
    <glyph glyph-name="uni0229" unicode="&#x229;" horiz-adv-x="559" 
d="M384 2q-21 -3 -41 -5t-39 -3l-6 -25h22q33 0 54 -18t21 -60q0 -40 -25 -63.5t-74 -23.5q-30 0 -54 2.5t-49 8.5v65q20 -2 36.5 -4.5t39.5 -2.5q19 0 33.5 3.5t14.5 16.5q0 11 -7 14t-23 3h-80l20 86q-50 7 -85.5 25.5t-58 50t-32.5 77.5t-10 108q0 147 59.5 210.5
t182.5 63.5q120 0 176.5 -60t56.5 -198q0 -16 -1 -35.5t-3 -38.5h-335q5 -49 29 -72t81 -23q49 0 97 7t113 25v-104q-60 -20 -113 -30zM385 307q-3 57 -24.5 85.5t-77.5 28.5q-29 0 -48.5 -7t-31.5 -21.5t-18 -36t-9 -49.5h209z" />
    <glyph glyph-name="uni022A" unicode="&#x22a;" horiz-adv-x="687" 
d="M343 111q86 0 121 61.5t35 188.5q0 125 -35 191t-121 66t-121 -65.5t-35 -191.5q0 -127 35 -188.5t121 -61.5zM343 -5q-83 0 -139 23.5t-90.5 70t-49.5 114.5t-15 158t15 159.5t49.5 117t90.5 72t139 24.5q82 0 138.5 -24.5t91 -72t49.5 -117t15 -159.5t-15 -158
t-49.5 -114.5t-91 -70t-138.5 -23.5zM193 999h300v-77h-300v77zM167 889h134v-117h-134v117zM382 889h134v-117h-134v117z" />
    <glyph glyph-name="uni022B" unicode="&#x22b;" horiz-adv-x="569" 
d="M284 -7q-65 0 -111.5 19t-75.5 53.5t-42.5 83.5t-13.5 109q0 63 13.5 114t42.5 86t75 54t112 19t112 -19t75 -54t42 -86t13 -114q0 -61 -13 -110t-42 -83.5t-75 -53t-112 -18.5zM284 421q-55 0 -80 -37.5t-25 -125.5q0 -86 25 -120.5t80 -34.5q51 0 77.5 34.5t26.5 120.5
q0 88 -26.5 125.5t-77.5 37.5zM114 727h134v-127h-134v127zM329 727h134v-127h-134v127zM139 882h300v-87h-300v87z" />
    <glyph glyph-name="uni022C" unicode="&#x22c;" horiz-adv-x="687" 
d="M343 111q86 0 121 61.5t35 188.5q0 125 -35 191t-121 66t-121 -65.5t-35 -191.5q0 -127 35 -188.5t121 -61.5zM343 -5q-83 0 -139 23.5t-90.5 70t-49.5 114.5t-15 158t15 159.5t49.5 117t90.5 72t139 24.5q82 0 138.5 -24.5t91 -72t49.5 -117t15 -159.5t-15 -158
t-49.5 -114.5t-91 -70t-138.5 -23.5zM193 999h300v-77h-300v77zM283 889q20 0 33.5 -4t24.5 -9.5t21 -9.5t23 -4q14 0 20.5 7t8.5 20h86q-3 -49 -27.5 -76.5t-74.5 -27.5q-20 0 -33.5 4t-24.5 9.5t-21 9.5t-23 4q-14 0 -20.5 -7t-8.5 -20h-87q3 49 28 76.5t75 27.5z" />
    <glyph glyph-name="uni022D" unicode="&#x22d;" horiz-adv-x="569" 
d="M284 -7q-65 0 -111.5 19t-75.5 53.5t-42.5 83.5t-13.5 109q0 63 13.5 114t42.5 86t75 54t112 19t112 -19t75 -54t42 -86t13 -114q0 -61 -13 -110t-42 -83.5t-75 -53t-112 -18.5zM284 421q-55 0 -80 -37.5t-25 -125.5q0 -86 25 -120.5t80 -34.5q51 0 77.5 34.5t26.5 120.5
q0 88 -26.5 125.5t-77.5 37.5zM139 882h300v-87h-300v87zM227 714q20 0 33.5 -4t24.5 -9.5t21 -9.5t23 -4q14 0 20.5 7t8.5 20h86q-3 -49 -27.5 -81.5t-74.5 -32.5q-20 0 -33.5 4t-24.5 9.5t-21 9.5t-23 4q-14 0 -20.5 -7t-8.5 -20h-87q3 49 28 81.5t75 32.5z" />
    <glyph glyph-name="uni022E" unicode="&#x22e;" horiz-adv-x="687" 
d="M343 111q86 0 121 61.5t35 188.5q0 125 -35 191t-121 66t-121 -65.5t-35 -191.5q0 -127 35 -188.5t121 -61.5zM343 -5q-83 0 -139 23.5t-90.5 70t-49.5 114.5t-15 158t15 159.5t49.5 117t90.5 72t139 24.5q82 0 138.5 -24.5t91 -72t49.5 -117t15 -159.5t-15 -158
t-49.5 -114.5t-91 -70t-138.5 -23.5zM278 922h134v-127h-134v127z" />
    <glyph glyph-name="uni022F" unicode="&#x22f;" horiz-adv-x="569" 
d="M284 -7q-65 0 -111.5 19t-75.5 53.5t-42.5 83.5t-13.5 109q0 63 13.5 114t42.5 86t75 54t112 19t112 -19t75 -54t42 -86t13 -114q0 -61 -13 -110t-42 -83.5t-75 -53t-112 -18.5zM284 421q-55 0 -80 -37.5t-25 -125.5q0 -86 25 -120.5t80 -34.5q51 0 77.5 34.5t26.5 120.5
q0 88 -26.5 125.5t-77.5 37.5zM222 727h134v-127h-134v127z" />
    <glyph glyph-name="uni0230" unicode="&#x230;" horiz-adv-x="687" 
d="M343 111q86 0 121 61.5t35 188.5q0 125 -35 191t-121 66t-121 -65.5t-35 -191.5q0 -127 35 -188.5t121 -61.5zM343 -5q-83 0 -139 23.5t-90.5 70t-49.5 114.5t-15 158t15 159.5t49.5 117t90.5 72t139 24.5q82 0 138.5 -24.5t91 -72t49.5 -117t15 -159.5t-15 -158
t-49.5 -114.5t-91 -70t-138.5 -23.5zM193 999h300v-77h-300v77zM278 889h134v-117h-134v117z" />
    <glyph glyph-name="uni0231" unicode="&#x231;" horiz-adv-x="569" 
d="M284 -7q-65 0 -111.5 19t-75.5 53.5t-42.5 83.5t-13.5 109q0 63 13.5 114t42.5 86t75 54t112 19t112 -19t75 -54t42 -86t13 -114q0 -61 -13 -110t-42 -83.5t-75 -53t-112 -18.5zM284 421q-55 0 -80 -37.5t-25 -125.5q0 -86 25 -120.5t80 -34.5q51 0 77.5 34.5t26.5 120.5
q0 88 -26.5 125.5t-77.5 37.5zM222 727h134v-127h-134v127zM139 882h300v-87h-300v87z" />
    <glyph glyph-name="uni0232" unicode="&#x232;" horiz-adv-x="642" 
d="M391 0h-139v318l-255 409h152l172 -281l172 281h152l-254 -410v-317zM171 882h300v-87h-300v87z" />
    <glyph glyph-name="uni0233" unicode="&#x233;" 
d="M388 44q-43 -14 -78 -23t-70 -9q-36 0 -68.5 9t-56.5 28.5t-38 51.5t-14 77v317l134 40v-364q0 -26 15.5 -36.5t46.5 -10.5q26 0 58.5 7.5t70.5 18.5v375h133v-552q0 -43 -16.5 -74.5t-46 -52.5t-70 -31t-88.5 -10q-84 0 -187 23v106q19 -5 40 -8.5t40 -6t35 -3.5t26 -1
q32 0 57 2.5t42 10t26 22.5t9 41v53zM146 710h300v-87h-300v87z" />
    <glyph glyph-name="uni0234" unicode="&#x234;" horiz-adv-x="430" 
d="M195 753v-500q33 19 75 19q29 0 55.5 -9.5t46 -27.5t31 -43t11.5 -56q0 -41 -12.5 -69t-35 -46t-54 -26t-68.5 -8q-41 0 -81 20t-63 66q-13 -16 -24.5 -36.5t-22.5 -40.5l-85 53q7 13 18.5 29.5t25 34t28 33t26.5 26.5v542zM293 131q0 20 -10.5 37t-34.5 17t-33 -17
t-9 -37t9 -35.5t33 -15.5t34.5 15.5t10.5 35.5z" />
    <glyph glyph-name="uni0235" unicode="&#x235;" horiz-adv-x="750" 
d="M59 0v494l135 40v-43q42 20 83 30t87 10q42 0 73 -12.5t50.5 -35t29 -53.5t9.5 -67v-110q31 17 69 17q29 0 55.5 -9t46.5 -26.5t32 -42.5t12 -56q0 -41 -12.5 -69t-35 -46t-54 -26t-68.5 -8q-42 0 -80.5 20t-61.5 63q-13 -16 -25.5 -35t-23.5 -39l-87 54q17 31 45.5 66.5
t54.5 57.5v189q0 31 -15 44t-46 13q-46 0 -138 -37v-383h-135zM620 131q0 20 -10.5 37t-34.5 17t-33 -17t-9 -37t9 -35.5t33 -15.5t34.5 15.5t10.5 35.5z" />
    <glyph glyph-name="uni0236" unicode="&#x236;" horiz-adv-x="460" 
d="M15 413v112h91v132l134 40v-172h146v-112h-146v-160q13 8 32.5 12t39.5 4q29 0 54.5 -9.5t45 -26.5t31 -41.5t11.5 -55.5q0 -41 -12.5 -69t-35 -46t-54 -26t-68.5 -8q-42 0 -80.5 20t-61.5 63q-13 -16 -25.5 -35t-23.5 -39l-87 54q17 31 45.5 66.5t54.5 57.5v239h-91z
M333 131q0 20 -10.5 37t-34.5 17t-33 -17t-9 -37t9 -35.5t33 -15.5t34.5 15.5t10.5 35.5z" />
    <glyph glyph-name="uni0237" unicode="&#x237;" horiz-adv-x="230" 
d="M182 525v-543q0 -35 -10 -66.5t-29.5 -55.5t-48 -38.5t-64.5 -14.5q-69 0 -130 16v105q27 -6 52 -10.5t41 -4.5q30 0 42 10.5t12 38.5v563h135z" />
    <glyph glyph-name="uni0238" unicode="&#x238;" horiz-adv-x="920" 
d="M653 530q62 0 104.5 -20t68 -55.5t36.5 -85.5t11 -110q0 -61 -10.5 -110t-35.5 -84t-65 -54t-99 -19q-14 0 -35.5 2t-48.5 8.5t-58 19t-63 33.5q-32 -21 -62.5 -33.5t-57.5 -19t-49 -8.5t-35 -2q-59 0 -99 19t-65 54t-35.5 84t-10.5 110q0 60 11 110t36.5 85.5t68 55.5
t104.5 20q30 0 63 -6.5t65 -15.5v204l133 40v-244q32 9 65 15.5t63 6.5zM525 134q10 -6 25 -11.5t31.5 -10t32.5 -7t28 -2.5q29 0 47.5 11.5t28.5 32.5t13.5 49.5t3.5 62.5q0 32 -3.5 61t-14 50.5t-28.5 34.5t-47 13q-10 0 -24.5 -1.5t-30.5 -4t-32 -6t-30 -7.5v-265z
M392 399q-14 4 -30 7.5t-32 6t-30.5 4t-24.5 1.5q-29 0 -47 -13t-28.5 -34.5t-14 -50.5t-3.5 -61q0 -34 3.5 -62.5t13.5 -49.5t28.5 -32.5t47.5 -11.5q12 0 27.5 2.5t32 6.5t31.5 10t26 12v265z" />
    <glyph glyph-name="uni0239" unicode="&#x239;" horiz-adv-x="920" 
d="M653 -8q-30 0 -63 6.5t-65 15.5v-209h-133v209q-32 -9 -65 -15.5t-63 -6.5q-62 0 -104.5 20t-68 55.5t-36.5 85.5t-11 110q0 61 10.5 110t35.5 84t65 54t99 19q13 0 35 -2t49 -8.5t57.5 -19t62.5 -33.5q32 21 63 33.5t58 19t48.5 8.5t35.5 2q59 0 99 -19t65 -54t35.5 -84
t10.5 -110q0 -60 -11 -110t-36.5 -85.5t-68 -55.5t-104.5 -20zM525 123q14 -4 30 -7.5t32 -6t30.5 -4t24.5 -1.5q29 0 47 12.5t28.5 34.5t14 51t3.5 61q0 34 -3.5 62.5t-13.5 49.5t-28.5 32.5t-47.5 11.5q-12 0 -28 -2.5t-32.5 -7t-31.5 -10t-25 -11.5v-265zM392 388
q-11 6 -26 12t-31.5 10t-32 6.5t-27.5 2.5q-29 0 -47.5 -11.5t-28.5 -32.5t-13.5 -49.5t-3.5 -62.5q0 -32 3.5 -61t14 -51t28.5 -34.5t47 -12.5q10 0 24.5 1.5t30.5 4t32 6t30 7.5v265z" />
    <glyph glyph-name="uni023A" unicode="&#x23a;" horiz-adv-x="651" 
d="M493 472l153 -472h-140l-55 175h-131l-146 -250h-98l43 75h-113l236 727h169l47 -146l111 191h99zM237 290h51l83 142l-45 148zM200 175l-25 -79l46 79h-21zM387 290h27l-9 30z" />
    <glyph glyph-name="uni023B" unicode="&#x23b;" horiz-adv-x="581" 
d="M514 707q8 -2 16 -4.5t16 -4.5v-105q-21 5 -39 8t-34 6l-197 -483q27 -13 67 -13q24 0 46.5 1.5t46.5 4.5t50.5 8.5t59.5 13.5v-107q-57 -17 -112.5 -27t-107.5 -10q-55 0 -97 13l-33 -83h-98l51 125q-60 49 -85.5 130t-25.5 185q0 85 15.5 153.5t50 116.5t89.5 73.5
t133 25.5q26 0 50 -1.5t47 -5.5l18 45h99zM187 260q4 -19 8.5 -35t11.5 -30l171 422q-8 1 -17 1h-19q-88 0 -126 -66t-38 -187q0 -59 9 -105z" />
    <glyph glyph-name="uni023C" unicode="&#x23c;" horiz-adv-x="477" 
d="M427 504l6 -2l6 -2v-105q-35 11 -64 15l-158 -286q16 -10 32.5 -14.5t42.5 -4.5q31 0 66 4.5t89 19.5v-105q-48 -18 -93 -25t-90 -7q-32 0 -59.5 5t-49.5 16l-26 -48h-98l57 103q-26 35 -38 84t-12 111q0 60 12.5 109.5t40 84.5t70.5 54.5t105 19.5q36 0 75 -6l26 48h98z
M176 263v-18.5t1 -16.5l104 190q-33 -2 -53.5 -13.5t-32 -31.5t-15.5 -48t-4 -62z" />
    <glyph glyph-name="uni023D" unicode="&#x23d;" horiz-adv-x="550" 
d="M0 414h71v313h138v-313h192l-39 -99h-153v-199h330l-45 -116h-423v315h-71v99z" />
    <glyph glyph-name="uni023E" unicode="&#x23e;" horiz-adv-x="647" 
d="M607 727h25l-45 -116h-48l-154 -265v-346h-138v110l-108 -185h-98l206 353v333h-223v116h484l26 45h99zM385 611v-96l55 96h-55z" />
    <glyph glyph-name="uni023F" unicode="&#x23f;" horiz-adv-x="500" 
d="M51 126q56 -16 103.5 -22t84.5 -6q54 0 78.5 11.5t24.5 40.5q0 13 -5.5 22t-18 15.5t-33 12.5t-50.5 13q-96 22 -143.5 58t-47.5 107q0 42 15.5 71t42.5 47t63.5 26.5t78.5 8.5q49 0 98 -8.5t98 -20.5v-103q-56 12 -105.5 18.5t-93.5 6.5q-73 0 -73 -41q0 -24 23.5 -36
t77.5 -23q100 -21 148.5 -60t48.5 -111q0 -86 -58.5 -124t-163.5 -38q-6 0 -12.5 0.5t-14.5 1.5l51 -63q19 -24 63 -24q34 0 73 13l17 -96q-28 -10 -56 -14.5t-63 -4.5q-70 0 -117 57l-134 162v103z" />
    <glyph glyph-name="uni0240" unicode="&#x240;" horiz-adv-x="515" 
d="M51 525h416v-93l-271 -334q17 -4 28 -14.5t22 -23.5l88 -118q17 -21 33.5 -26t35.5 -5q11 0 31.5 2t46.5 7l13 -98q-34 -9 -63 -13t-54 -4q-32 0 -67 14t-61 45q-20 24 -41.5 56t-41.5 57q-10 12 -21.5 17.5t-38.5 5.5h-57v99l254 317h-252v109z" />
    <glyph glyph-name="uni0241" unicode="&#x241;" horiz-adv-x="470" 
d="M143 230q0 30 7 52t20.5 41t33.5 37t46 40q25 19 40 47.5t15 70.5q0 51 -23 76t-77 25q-35 0 -80 -8t-96 -22v106q114 39 196 39q44 0 82.5 -11t67 -34.5t45 -59t16.5 -84.5q-1 -69 -25.5 -127t-81.5 -106q-29 -24 -46.5 -44.5t-17.5 -47.5v-220h-122v230z" />
    <glyph glyph-name="uni0242" unicode="&#x242;" horiz-adv-x="470" 
d="M143 69q0 30 6.5 51.5t20 39.5t33.5 35.5t47 38.5q24 20 39.5 43t15.5 60q0 47 -23 64t-77 17q-35 0 -80 -8t-96 -22v106q114 39 196 39q44 0 82.5 -9.5t67 -29.5t45 -52t16.5 -78q-1 -68 -25.5 -117t-81.5 -96q-29 -24 -46.5 -44.5t-17.5 -47.5v-59h-122v69z" />
    <glyph glyph-name="uni0243" unicode="&#x243;" horiz-adv-x="670" 
d="M0 249h99v478h271q63 0 107.5 -12.5t72.5 -38t40.5 -64.5t12.5 -93q0 -49 -14.5 -83t-43.5 -58q37 -20 57.5 -58t20.5 -108q0 -58 -16.5 -98t-48 -65.5t-76.5 -37t-101 -11.5h-282v159h-99v90zM367 424q54 0 76.5 24.5t22.5 69.5q0 51 -25.5 72.5t-73.5 21.5h-135v-188
h135zM387 115q54 0 76.5 26t22.5 71q0 52 -26.5 74.5t-72.5 22.5h-155v-60h145l-35 -90h-110v-44h155z" />
    <glyph glyph-name="uni0244" unicode="&#x244;" horiz-adv-x="676" 
d="M0 417h65v310h138v-310h268v310h140v-310h79l-41 -105h-38v-75q0 -66 -18 -112t-53.5 -75t-86.5 -42t-117 -13t-116.5 13t-85 42t-52 75t-17.5 112v75h-65v105zM435 141q36 28 36 97v74h-268v-74q0 -69 36.5 -97t96.5 -28q64 0 99 28z" />
    <glyph glyph-name="uni0245" unicode="&#x245;" horiz-adv-x="651" 
d="M503 0l-177 573l-178 -573h-142l236 727h169l235 -727h-143z" />
    <glyph glyph-name="uni0246" unicode="&#x246;" horiz-adv-x="601" 
d="M531 727h23v-116h-75l-85 -186h148l-45 -116h-155l-88 -193h300v-116h-352l-34 -75h-98l34 75h-41v727h369l21 45h99zM201 425h95l84 186h-179v-186zM201 309v-94l42 94h-42z" />
    <glyph glyph-name="uni0247" unicode="&#x247;" horiz-adv-x="559" 
d="M478 447q38 -62 38 -174q0 -16 -1 -35.5t-3 -38.5h-224l-64 -84q24 -11 63 -11q49 0 97 7t113 25v-104q-58 -20 -112.5 -29.5t-105.5 -9.5q-41 0 -73 6t-58 17l-39 -51h-102l79 103q-23 32 -34 79t-11 110q0 147 59.5 210.5t182.5 63.5q82 0 135 -29l55 71h102zM269 307
l76 99q-23 15 -62 15q-29 0 -48.5 -7t-31.5 -21.5t-18 -36t-9 -49.5h93zM385 307q-1 4 -1 8t-1 8l-12 -16h14v0zM178 188l8 11h-9z" />
    <glyph glyph-name="uni0248" unicode="&#x248;" horiz-adv-x="410" 
d="M130 417h64v310h138v-310h88l-41 -105h-47v-153q0 -37 -9 -67.5t-29 -52.5t-52 -34t-79 -12q-15 0 -35.5 1.5t-41.5 4.5t-41.5 7.5t-36.5 9.5v104q35 -6 69 -9.5t60 -3.5q32 0 44.5 14t12.5 52v139h-64v105z" />
    <glyph glyph-name="uni0249" unicode="&#x249;" horiz-adv-x="240" 
d="M-20 417h67v107h135v-107h81l-41 -105h-40v-330q0 -35 -10 -66.5t-29.5 -55.5t-48 -38.5t-64.5 -14.5q-69 0 -130 16v105q27 -6 52 -10.5t41 -4.5q30 0 42 10.5t12 38.5v350h-67v105zM48 727h134v-127h-134v127z" />
    <glyph glyph-name="uni024A" unicode="&#x24a;" horiz-adv-x="650" 
d="M434 601q-26 11 -52 17t-55 6q-59 0 -93 -59t-34 -191t35 -202.5t93 -70.5q27 0 53.5 4.5t52.5 15.5v480zM317 -8q-129 0 -195 95.5t-66 286.5q0 189 66.5 274.5t194.5 85.5q32 0 61 -6.5t56 -15.5v16h139v-753q0 -33 8.5 -48t39.5 -15q9 0 28 2.5t43 6.5v-105
q-54 -12 -95 -12q-4 0 -8 0.5t-8 0.5h1q-42 2 -70 16t-45.5 37t-25 53.5t-7.5 65.5v34q-51 -19 -117 -19z" />
    <glyph glyph-name="uni024B" unicode="&#x24b;" horiz-adv-x="600" 
d="M261 -7q-63 0 -105 20.5t-68 57t-37 87t-11 110.5t11 108.5t36.5 83t66.5 53t102 18.5q35 0 64.5 -8t54.5 -20v22h133v-554q0 -32 13.5 -47.5t46.5 -15.5q14 0 31.5 1t34.5 4v-101q-23 -5 -46 -6t-40 -1q-93 0 -133 43.5t-40 120.5v42q-32 -9 -60 -13.5t-54 -4.5z
M375 395q-51 25 -104 25q-29 0 -47.5 -11.5t-28.5 -31.5t-13.5 -48t-3.5 -61t4 -62.5t14.5 -52.5t28.5 -36.5t47 -13.5h6q23 0 48.5 3t48.5 11v278z" />
    <glyph glyph-name="uni024C" unicode="&#x24c;" horiz-adv-x="653" 
d="M-15 370h83v357h278q62 0 108.5 -12.5t77 -40.5t45.5 -73t15 -109q0 -91 -29 -143t-90 -75l153 -274h-155l-140 254h-126v-254h-137v254h-83v116zM337 370q60 0 88.5 29t28.5 93q0 66 -28.5 92.5t-88.5 26.5h-132v-241h132z" />
    <glyph glyph-name="uni024D" unicode="&#x24d;" horiz-adv-x="421" 
d="M-10 294h67v201l134 40v-35q35 13 67.5 20.5t70.5 7.5q14 0 30 -0.5t36 -2.5v-116q-11 1 -20 1.5t-17 0.5h-29q-38 0 -70.5 -6t-67.5 -14v-97h84l-39 -99h-45v-195h-134v195h-67v99z" />
    <glyph glyph-name="uni024E" unicode="&#x24e;" horiz-adv-x="642" 
d="M0 608h71l-74 119h152l73 -119h198l73 119h152l-74 -119h73l-33 -85h-93l-127 -206v-317h-139v318l-128 205h-124v85zM321 446l47 77h-94z" />
    <glyph glyph-name="uni024F" unicode="&#x24f;" 
d="M0 342h63v153l134 40v-193h191v183h133v-183h76l-33 -85h-43v-284q0 -43 -16.5 -74.5t-46 -52.5t-70 -31t-88.5 -10q-84 0 -187 23v106q19 -5 40 -8.5t40 -6t35 -3.5t26 -1q32 0 57 2.5t42 10t26 22.5t9 41v53q-43 -14 -78 -23t-70 -9q-36 0 -68.5 9t-56.5 28.5t-38 51.5
t-14 77v79h-63v85zM339 136q12 4 24 7t25 7v107h-191v-86q0 -26 15.5 -36.5t46.5 -10.5q33 0 80 12z" />
    <glyph glyph-name="uni0250" unicode="&#x250;" horiz-adv-x="559" 
d="M190 496q35 17 79.5 26t79.5 9q75 0 121 -43t46 -124q0 -47 -16 -82t-53.5 -58.5t-99.5 -35.5t-153 -13v-15q0 -18 10.5 -29t28.5 -17t42.5 -8t53.5 -2q31 0 68.5 5t75.5 13v-106q-48 -13 -97.5 -18t-94.5 -5q-47 0 -87.5 10t-70 31t-46.5 52.5t-17 74.5v363h130v-28z
M309 425q-27 0 -58 -10t-57 -25v-112q46 1 81 4t58 11.5t34.5 23.5t11.5 41q0 67 -70 67z" />
    <glyph glyph-name="uni0251" unicode="&#x251;" horiz-adv-x="610" 
d="M408 525h128v-525h-128v60q-28 -29 -65 -48t-85 -19q-58 0 -100 19t-69.5 53.5t-40.5 83.5t-13 109q0 127 53.5 200t169.5 73q48 0 85 -19.5t65 -48.5v62zM278 421q-55 0 -80 -37.5t-25 -125.5q0 -86 25 -120.5t80 -34.5q25 0 47 8t38.5 26.5t25.5 48t9 72.5q0 44 -9 75
t-25.5 50.5t-38.5 28.5t-47 9z" />
    <glyph glyph-name="uni0252" unicode="&#x252;" horiz-adv-x="610" 
d="M193 463q28 29 65 48.5t85 19.5q116 0 169.5 -73t53.5 -200q0 -60 -13 -109t-40.5 -83.5t-69.5 -53.5t-100 -19q-48 0 -85 19t-65 48v-60h-128v525h128v-62zM323 421q-26 0 -47.5 -9t-38 -28.5t-25.5 -50.5t-9 -75q0 -43 9 -72.5t25.5 -48t38 -26.5t47.5 -8q55 0 80 34.5
t25 120.5q0 88 -25 125.5t-80 37.5z" />
    <glyph glyph-name="uni0253" unicode="&#x253;" horiz-adv-x="580" 
d="M64 572q0 37 9 67.5t29 52t52 33.5t79 12q15 0 35 -1.5t41 -4.5t41.5 -7t37.5 -9v-104q-35 6 -69 9.5t-60 3.5q-32 0 -46.5 -14t-14.5 -52v-46q32 9 58.5 13.5t55.5 4.5q63 0 105 -20t68 -55.5t37 -85.5t11 -110q0 -61 -10.5 -110t-35 -84t-66.5 -54t-105 -19
q-31 0 -63 10t-55 26v-28h-134v572zM198 134q24 -14 52.5 -22.5t51.5 -8.5q29 0 47.5 11.5t28.5 32.5t13.5 49.5t3.5 62.5q0 32 -3.5 61t-14 50.5t-28.5 34.5t-47 13q-24 0 -49 -4.5t-55 -13.5v-266z" />
    <glyph glyph-name="uni0254" unicode="&#x254;" horiz-adv-x="477" 
d="M219 531q61 0 104.5 -19.5t71 -54.5t40 -84.5t12.5 -109.5q0 -62 -12.5 -112t-39.5 -85t-70 -54.5t-104 -19.5q-45 0 -90 7t-93 25v105q54 -15 89 -19.5t66 -4.5q36 0 58.5 10t35.5 30t17.5 49.5t4.5 68.5q0 36 -4.5 64.5t-17.5 49t-35 31t-58 10.5q-24 0 -62 -4.5
t-86 -18.5v105q42 17 86.5 24t86.5 7z" />
    <glyph glyph-name="uni0255" unicode="&#x255;" horiz-adv-x="530" 
d="M172 269q1 -18 2 -36.5t4 -32.5q35 35 79.5 54.5t84.5 19.5q151 0 151 -136q0 -66 -53 -107.5t-147 -41.5q-35 0 -65 5.5t-56 19.5q-11 -15 -25 -36t-27 -39l-88 77q8 11 21.5 31.5t30.5 45.5q-24 35 -35.5 77t-11.5 99q0 61 13 111t41.5 85.5t73 55t108.5 19.5
q42 0 90.5 -9t93.5 -27v-102q-23 6 -47 11t-46.5 8.5t-42.5 5.5t-33 2q-36 0 -58.5 -11t-35 -32t-17.5 -50.5t-5 -66.5zM380 140q0 32 -33 32q-28 0 -57 -16t-62 -52q14 -8 28 -10.5t31 -2.5q12 0 28.5 2t30.5 7.5t24 15t10 24.5z" />
    <glyph glyph-name="uni0256" unicode="&#x256;" horiz-adv-x="590" 
d="M378 28q-24 -15 -58.5 -25.5t-66.5 -10.5q-59 0 -99 19t-65 54t-35.5 84t-10.5 110q0 60 11 110t36.5 85.5t68 55.5t104.5 20q29 0 56 -5t59 -13v200l133 40v-766q0 -38 14.5 -52t46.5 -14q6 0 12 0.5t13 0.5v-111q-16 -2 -29.5 -3t-24.5 -1q-46 0 -77.5 12.5t-51 34.5
t-28 52.5t-8.5 66.5v56zM378 399q-28 8 -56 13.5t-48 5.5q-29 0 -47 -13t-28.5 -34.5t-14 -50.5t-3.5 -61q0 -34 3.5 -62.5t13.5 -49.5t28.5 -32.5t47.5 -11.5q23 0 53.5 9t50.5 22v265z" />
    <glyph glyph-name="uni0257" unicode="&#x257;" horiz-adv-x="580" 
d="M265 530q29 0 55.5 -4.5t58.5 -13.5v60q0 36 8.5 66.5t28 52.5t51.5 34t78 12q9 0 20.5 -0.5t25.5 -1.5v-111h-17q-32 0 -46.5 -14t-14.5 -52v-558h-134v28q-23 -16 -55 -26t-63 -10q-63 0 -105 19t-66.5 54t-35 84t-10.5 110q0 60 11 110t37 85.5t68 55.5t105 20z
M379 400q-30 9 -55 13.5t-49 4.5q-29 0 -47 -13t-28.5 -34.5t-14 -50.5t-3.5 -61q0 -34 3.5 -62.5t13.5 -49.5t28.5 -32.5t47.5 -11.5q23 0 51.5 8.5t52.5 22.5v266z" />
    <glyph glyph-name="uni0258" unicode="&#x258;" horiz-adv-x="559" 
d="M270 104q57 0 81 23t29 72h-335q-2 19 -3 38.5t-1 35.5q0 138 56.5 198t176.5 60q123 0 182.5 -63.5t59.5 -210.5q0 -68 -13 -118t-41.5 -82.5t-74 -48t-109.5 -15.5q-51 0 -105.5 9.5t-112.5 29.5v104q65 -18 113 -25t97 -7zM381 307q-3 28 -9 49.5t-18 36t-31.5 21.5
t-48.5 7q-56 0 -77.5 -28.5t-24.5 -85.5h209z" />
    <glyph glyph-name="uni0259" unicode="&#x259;" horiz-adv-x="559" 
d="M270 420q-49 0 -97 -7t-113 -25v104q58 20 112.5 29.5t105.5 9.5q64 0 109.5 -15.5t74 -48t41.5 -82.5t13 -118q0 -147 -59.5 -210.5t-182.5 -63.5q-120 0 -176.5 60t-56.5 198q0 16 1 35.5t3 38.5h335q-5 49 -29 72t-81 23zM172 217q3 -57 24.5 -85.5t77.5 -28.5
q29 0 48.5 7t31.5 21.5t18 35.5t9 50h-209z" />
    <glyph glyph-name="uni025A" unicode="&#x25a;" horiz-adv-x="740" 
d="M270 420q-49 0 -97 -7t-113 -25v104q58 20 112.5 29.5t105.5 9.5q96 0 149.5 -34.5t73.5 -106.5l90 15l11 -74q6 -28 13.5 -47t34.5 -19q11 0 32 4.5t53 20.5l14 -81q-29 -14 -60.5 -21t-56.5 -7q-44 0 -74 26t-43 80q0 -5 0.5 -10t0.5 -10q0 -147 -59.5 -210.5
t-182.5 -63.5q-120 0 -176.5 60t-56.5 198q0 16 2 31.5t4 34.5l323 52q-11 26 -34.5 38.5t-65.5 12.5zM172 231v-14q3 -57 24.5 -85.5t77.5 -28.5q58 0 82.5 28.5t24.5 85.5v50z" />
    <glyph glyph-name="uni025B" unicode="&#x25b;" horiz-adv-x="420" 
d="M50 383q0 146 166 146q39 0 78.5 -15.5t75.5 -44.5v-110q-98 63 -147 63q-29 0 -40 -11.5t-11 -29.5t8 -30t20.5 -19t28 -10t30.5 -3h52v-106h-52q-46 0 -75 -12.5t-29 -50.5q0 -27 16 -40.5t55 -13.5q29 0 70.5 14t89.5 37v-106q-45 -28 -88 -40t-91 -12
q-84 0 -129.5 39.5t-45.5 121.5q0 51 22 84t54 44q-20 10 -39 37.5t-19 67.5z" />
    <glyph glyph-name="uni025C" unicode="&#x25c;" horiz-adv-x="420" 
d="M368 383q0 -40 -19 -67.5t-39 -37.5q32 -11 54 -44t22 -84q0 -82 -45.5 -121.5t-130.5 -39.5q-48 0 -90.5 12t-87.5 40v106q48 -23 89.5 -37t70.5 -14q39 0 55 13.5t16 40.5q0 38 -29 50.5t-75 12.5h-52v106h52q15 0 30.5 3t28 10t20.5 19t8 30t-11 29.5t-40 11.5
q-50 0 -147 -63v110q36 29 75.5 44.5t78.5 15.5q166 0 166 -146z" />
    <glyph glyph-name="uni025D" unicode="&#x25d;" horiz-adv-x="590" 
d="M432 497l11 -74q6 -28 13.5 -47t34.5 -19q11 0 32 4.5t53 20.5l14 -81q-29 -14 -60.5 -21t-56.5 -7q-38 0 -66 19.5t-43 60.5q-7 -29 -22.5 -48t-31.5 -27q32 -11 54 -44t22 -84q0 -82 -45.5 -121.5t-130.5 -39.5q-48 0 -90.5 12t-87.5 40v106q48 -23 89.5 -37t70.5 -14
q39 0 55 13.5t16 40.5q0 38 -29 50.5t-75 12.5h-52v106h52q15 0 30.5 3t28 10t20.5 19t8 30t-11 29.5t-40 11.5q-50 0 -147 -63v110q33 26 70.5 43t73.5 17q51 0 86.5 -11t58.5 -37z" />
    <glyph glyph-name="uni025E" unicode="&#x25e;" horiz-adv-x="540" 
d="M503 156q0 -36 -14 -67t-40.5 -53t-65 -34.5t-86.5 -12.5q-58 0 -105 18.5t-80 53.5t-51 86.5t-18 116.5q0 64 17.5 115t50.5 86.5t80 54.5t106 19q43 0 78 -12.5t60 -35t38.5 -52.5t13.5 -64q0 -29 -10.5 -51.5t-33.5 -42.5q60 -44 60 -125zM375 159q0 63 -96 63
q-3 0 -9.5 -0.5t-14 -1t-15.5 -1t-12 -0.5v105q41 0 65.5 2.5t38 8.5t18 16.5t4.5 26.5q0 26 -16.5 40.5t-41.5 14.5q-59 0 -90.5 -45.5t-31.5 -123.5q0 -46 10 -78t27 -52.5t39.5 -30t48.5 -9.5q13 0 26.5 4t24.5 12t18 20t7 29z" />
    <glyph glyph-name="uni025F" unicode="&#x25f;" horiz-adv-x="420" 
d="M198 199v338h138v-338h74v-91h-74v-139q0 -37 -9 -67.5t-29 -52.5t-52 -34t-79 -12q-15 0 -35.5 1.5t-41.5 4.5t-41.5 7.5t-36.5 9.5v104q35 -6 69 -9.5t60 -3.5q32 0 44.5 14t12.5 52v125h-91v91h91z" />
    <glyph glyph-name="uni0260" unicode="&#x260;" horiz-adv-x="588" 
d="M372 572q0 36 8.5 66.5t28 52.5t51.5 34t78 12q9 0 20.5 -0.5t25.5 -1.5v-111h-17q-32 0 -46.5 -14t-14.5 -52v-583q0 -44 -16.5 -75.5t-46.5 -52.5t-70.5 -31t-88.5 -10q-42 0 -89 6t-98 18v104q19 -4 39.5 -7.5t39 -5.5t35 -3.5t27.5 -1.5q33 0 58 2.5t42 10.5t25.5 23
t8.5 40v39q-29 -11 -56.5 -15t-56.5 -4q-63 0 -105 19t-67.5 53.5t-36 83.5t-10.5 109t10.5 107.5t35.5 79.5t66 49t103 17q29 0 60.5 -7.5t56.5 -18.5v68zM372 393q-23 11 -50 18t-56 7t-46 -9.5t-26.5 -27.5t-12.5 -44.5t-3 -59.5q0 -32 3 -60.5t12.5 -49.5t26.5 -33.5
t45 -12.5q26 0 53 5.5t54 13.5v253z" />
    <glyph glyph-name="uni0261" unicode="&#x261;" horiz-adv-x="571" 
d="M372 393q-23 11 -50 18t-56 7t-46 -9.5t-26.5 -27.5t-12.5 -44.5t-3 -59.5q0 -32 3 -60.5t12.5 -49.5t26.5 -33.5t45 -12.5q26 0 53 5.5t54 13.5v253zM259 12q-63 0 -105 19t-67.5 53.5t-36 83.5t-10.5 109t10.5 107.5t35.5 79.5t66 49t103 17q29 0 60.5 -7.5t56.5 -18.5
v21h134v-550q0 -44 -16.5 -75.5t-46.5 -52.5t-70.5 -31t-88.5 -10q-42 0 -89 6t-98 18v104q19 -4 39.5 -7.5t39 -5.5t35 -3.5t27.5 -1.5q33 0 58 2.5t42 10.5t25.5 23t8.5 40v39q-29 -11 -56.5 -15t-56.5 -4z" />
    <glyph glyph-name="uni0262" unicode="&#x262;" horiz-adv-x="570" 
d="M509 305v-254q-53 -28 -105.5 -43.5t-106.5 -15.5q-60 0 -105 20t-76 55.5t-46.5 85t-15.5 109.5q0 62 15.5 112t46.5 85.5t76 54.5t105 19q43 0 87 -6.5t94 -22.5v-102q-93 24 -157 24q-34 0 -59 -8t-41 -27.5t-24 -51t-8 -77.5q0 -86 29.5 -124.5t86.5 -38.5
q23 0 44.5 3t43.5 8v87h-125v108h241z" />
    <glyph glyph-name="uni0263" unicode="&#x263;" horiz-adv-x="442" 
d="M133 525l88 -239l88 239h139l-159 -376q34 -68 59 -122t25 -105q0 -52 -34 -84.5t-117 -32.5q-77 0 -110.5 34.5t-33.5 86.5q0 24 5 48t14 50.5t23 57.5t32 69l-158 374h139zM244 -48q0 23 -6 47t-16 48q-19 -51 -19 -96q0 -19 4.5 -31t15.5 -12t16 12t5 32z" />
    <glyph glyph-name="uni0264" unicode="&#x264;" horiz-adv-x="617" 
d="M539 351q-10 13 -21 27.5t-22 26.5t-21 20t-18 8q-11 0 -22 -26l-60 -136l48 -134q5 -14 7.5 -26.5t1.5 -23.5q0 -26 -11 -44.5t-28.5 -30.5t-38.5 -18t-41 -6q-51 0 -85 28t-34 77q0 25 10 51l46 128l-54 135q-5 13 -13 19.5t-14 6.5q-8 0 -13 -1.5t-12 -10t-19 -26
t-33 -48.5l-76 84q67 108 156 108q37 0 60 -17t36 -48l45 -109l44 110q26 64 97 64q89 0 156 -108zM334 115q0 5 -1 10.5t-3 13t-6 18.5t-11 27q-8 -20 -12 -32.5t-6 -20.5t-2.5 -13t-0.5 -9q0 -14 5 -23.5t16 -9.5q10 0 15.5 9.5t5.5 23.5v6v0z" />
    <glyph glyph-name="uni0265" unicode="&#x265;" horiz-adv-x="600" 
d="M520 525v-722h-133v224q-38 -14 -75.5 -24t-72.5 -10q-36 0 -68.5 9t-56.5 29t-38 51.5t-14 77.5v335l134 40v-382q0 -26 15.5 -37.5t46.5 -11.5q32 0 64 8t65 19v394h133z" />
    <glyph glyph-name="uni0266" unicode="&#x266;" horiz-adv-x="586" 
d="M64 0v572q0 37 9 67.5t29 52t52 33.5t79 12q15 0 35 -1.5t41 -4.5t41.5 -7t37.5 -9v-104q-35 6 -69 9.5t-60 3.5q-32 0 -46.5 -14t-14.5 -52v-63q42 17 78.5 26t80.5 9q42 0 73.5 -13t52 -35.5t30.5 -53.5t10 -67v-361h-134v361q0 31 -16 44.5t-48 13.5q-18 0 -52.5 -10
t-74.5 -25v-384h-134z" />
    <glyph glyph-name="uni0267" unicode="&#x267;" horiz-adv-x="586" 
d="M64 0v572q0 37 9 67.5t29 52t52 33.5t79 12q15 0 35 -1.5t41 -4.5t41.5 -7t37.5 -9v-104q-35 6 -69 9.5t-60 3.5q-32 0 -46.5 -14t-14.5 -52v-63q42 17 78.5 26t80.5 9q42 0 73.5 -13t52 -35.5t30.5 -53.5t10 -67v-393q0 -37 -8.5 -67.5t-28.5 -52.5t-52 -34t-78 -12
q-23 0 -56 3.5t-64 10.5v107q26 -4 49 -5.5t43 -1.5q32 0 46.5 14t14.5 52v379q0 31 -16 44.5t-48 13.5q-18 0 -52.5 -10t-74.5 -25v-384h-134z" />
    <glyph glyph-name="uni0268" unicode="&#x268;" horiz-adv-x="240" 
d="M53 289v235h134v-235h64v-91h-64v-198h-134v198h-73v91h73zM53 727h134v-127h-134v127z" />
    <glyph glyph-name="uni0269" unicode="&#x269;" horiz-adv-x="277" 
d="M65 525h134v-354q0 -38 14.5 -52t46.5 -14h17v-111q-27 -3 -46 -3q-46 0 -78 12.5t-51.5 34.5t-28 52.5t-8.5 66.5v368z" />
    <glyph glyph-name="uni026A" unicode="&#x26a;" horiz-adv-x="380" 
d="M120 91v343h-87v91h310v-91h-89v-343h89v-91h-310v91h87z" />
    <glyph glyph-name="uni026B" unicode="&#x26b;" horiz-adv-x="327" 
d="M21 354q10 32 31 46.5t46 16.5v310h134v-358q10 4 18.5 14t13.5 20l32 -45q-11 -30 -28 -43.5t-36 -18.5v-296h-134v344q-17 -2 -28.5 -12.5t-17.5 -21.5l-31 44v0z" />
    <glyph glyph-name="uni026C" unicode="&#x26c;" horiz-adv-x="338" 
d="M128 290q-63 0 -90.5 31.5t-27.5 85.5q0 53 27.5 84t90.5 32v204h134v-364h76v-73h-76v-290h-134v290zM89 405q0 -21 9.5 -30.5t29.5 -11.5v86q-39 -3 -39 -44z" />
    <glyph glyph-name="uni026D" unicode="&#x26d;" horiz-adv-x="277" 
d="M65 727h134v-745q0 -38 14.5 -52t46.5 -14h17v-111q-27 -3 -46 -3q-46 0 -78 12.5t-51.5 34.5t-28 52.5t-8.5 66.5v759z" />
    <glyph glyph-name="uni026E" unicode="&#x26e;" horiz-adv-x="640" 
d="M593 42q0 -56 -11.5 -100t-38 -74.5t-69 -46.5t-103.5 -16q-62 0 -108.5 24.5t-72.5 72.5l113 58q11 -21 28 -34t40 -13q50 0 71 35.5t21 93.5q0 66 -38.5 96t-116.5 30v88l132 159h-228v-415h-134v727h134v-202h374v-108l-131 -153q34 -12 60 -34t43 -51t26 -64t9 -73z
" />
    <glyph glyph-name="uni026F" unicode="&#x26f;" horiz-adv-x="924" 
d="M859 525v-536h-133v37q-40 -17 -79.5 -25t-84.5 -8q-42 0 -73.5 13t-51.5 36h-1q-54 -23 -103 -36t-102 -13q-42 0 -73.5 13t-52 35.5t-30.5 53.5t-10 67v363h134v-363q0 -31 16.5 -44.5t48.5 -13.5q10 0 26 3t34 8t37 11.5t36 14.5q-1 5 -1 10.5v10.5v363h133v-363
q0 -31 17 -44.5t49 -13.5q20 0 54 8t77 23v390h133z" />
    <glyph glyph-name="uni0270" unicode="&#x270;" horiz-adv-x="924" 
d="M859 525v-722h-133v223q-40 -17 -79.5 -25t-84.5 -8q-42 0 -73.5 13t-51.5 36h-1q-54 -23 -103 -36t-102 -13q-42 0 -73.5 13t-52 35.5t-30.5 53.5t-10 67v363h134v-363q0 -31 16.5 -44.5t48.5 -13.5q10 0 26 3t34 8t37 11.5t36 14.5q-1 5 -1 10.5v10.5v363h133v-363
q0 -31 17 -44.5t49 -13.5q20 0 54 8t77 23v390h133z" />
    <glyph glyph-name="uni0271" unicode="&#x271;" horiz-adv-x="924" 
d="M65 0v495l133 40v-37q40 17 79.5 25t84.5 8q42 0 73.5 -13t51.5 -36h1q54 23 103 36t102 13q42 0 73.5 -13t52 -35.5t30.5 -53.5t10 -67v-394q0 -37 -8.5 -67.5t-28.5 -52.5t-52 -34t-78 -12q-23 0 -56 3.5t-64 10.5v107q26 -4 49 -5.5t43 -1.5q32 0 46.5 14t14.5 52v380
q0 31 -16.5 44.5t-48.5 13.5q-11 0 -26.5 -3t-33.5 -8t-37 -11.5t-36 -14.5q1 -5 1 -10.5v-10.5v-362h-133v362q0 31 -17 44.5t-49 13.5q-20 0 -54 -8t-77 -23v-389h-133z" />
    <glyph glyph-name="uni0272" unicode="&#x272;" 
d="M194 -33q0 -36 -8.5 -66.5t-28 -52.5t-51.5 -34.5t-78 -12.5q-21 0 -46 3v111h17q32 0 46 14t14 52v513l135 40v-42q41 20 82 29.5t88 9.5q42 0 73 -12.5t50.5 -35t29 -53.5t9.5 -67v-363h-133v363q0 31 -15 44t-46 13q-46 0 -138 -37v-416z" />
    <glyph glyph-name="uni0273" unicode="&#x273;" 
d="M393 363q0 31 -15 44t-46 13q-46 0 -138 -37v-383h-135v494l135 40v-42q41 20 82 29.5t88 9.5q42 0 73 -12.5t50.5 -35t29 -53.5t9.5 -67v-382q0 -38 14 -52t46 -14h19v-111q-27 -3 -46 -3q-46 0 -78 12.5t-51.5 34.5t-28 52.5t-8.5 66.5v396z" />
    <glyph glyph-name="uni0274" unicode="&#x274;" horiz-adv-x="593" 
d="M522 525v-525h-153l-168 332v-332h-133v525h154l166 -329v329h134z" />
    <glyph glyph-name="uni0275" unicode="&#x275;" horiz-adv-x="569" 
d="M284 -7q-65 0 -111.5 19t-75.5 53.5t-42.5 83.5t-13.5 109q0 63 13.5 114t42.5 86t75 54t112 19t112 -19t75 -54t42 -86t13 -114q0 -61 -13 -110t-42 -83.5t-75 -53t-112 -18.5zM284 421q-48 0 -73 -28t-30 -89h205q-7 61 -32 89t-70 28zM204 137q25 -34 80 -34
q45 0 70.5 25.5t30.5 83.5h-204q4 -49 23 -75z" />
    <glyph glyph-name="uni0276" unicode="&#x276;" horiz-adv-x="830" 
d="M422 534h380v-111h-252v-109h240l-45 -110h-195v-93h252v-111h-380v23q-54 -30 -138 -30q-65 0 -111.5 19t-75.5 53.5t-42.5 83.5t-13.5 109q0 63 13.5 114t42.5 86t75 54t112 19q43 0 77 -8t61 -23v34zM284 421q-55 0 -80 -37.5t-25 -125.5q0 -86 25 -120.5t80 -34.5
q51 0 77.5 34.5t26.5 120.5q0 88 -26.5 125.5t-77.5 37.5z" />
    <glyph glyph-name="uni0277" unicode="&#x277;" horiz-adv-x="781" 
d="M742 244q0 -103 -43 -170h1q-51 -85 -156 -85q-102 0 -154 81q-53 -81 -154 -81q-48 0 -85 18.5t-62.5 52t-38.5 80.5t-13 104q0 70 28.5 124t77 90t112.5 54.5t135 18.5t135 -18.5t112 -54.5t76.5 -90t28.5 -124zM607 238q0 43 -18.5 77.5t-49 57.5t-69.5 35.5t-80 12.5
q-46 0 -86 -10.5t-69 -33t-46 -57t-17 -82.5q0 -62 19 -97t54 -35q41 0 61 31t20 105v53h127v-53q0 -23 4.5 -47t14.5 -43.5t25.5 -32.5t37.5 -13q32 0 52 35t20 97z" />
    <glyph glyph-name="uni0278" unicode="&#x278;" horiz-adv-x="570" 
d="M224 727h124v-202q98 -17 143 -86.5t45 -180.5q0 -107 -45 -175t-143 -85v-194h-124v194q-100 17 -146.5 85.5t-46.5 174.5q0 112 46.5 181.5t146.5 86.5v201zM169 258q0 -60 14 -93.5t41 -48.5v290q-27 -17 -41 -52.5t-14 -95.5zM398 258q0 57 -13.5 91.5t-36.5 52.5
v-282q23 16 36.5 49t13.5 89z" />
    <glyph glyph-name="uni0279" unicode="&#x279;" horiz-adv-x="421" 
d="M363 525v-495l-134 -40v32q-34 -12 -67.5 -18.5t-70.5 -6.5q-14 0 -30 0.5t-36 2.5v116q11 -1 20 -1.5t17 -0.5h29q38 0 70.5 6t67.5 14v391h134z" />
    <glyph glyph-name="uni027A" unicode="&#x27a;" horiz-adv-x="421" 
d="M363 682v-652l-134 -40v32q-34 -12 -67.5 -18.5t-70.5 -6.5q-14 0 -30 0.5t-36 2.5v116q11 -1 20 -1.5t17 -0.5h29q38 0 70.5 6t67.5 14v548h134z" />
    <glyph glyph-name="uni027B" unicode="&#x27b;" horiz-adv-x="430" 
d="M229 22q-34 -12 -67.5 -18.5t-70.5 -6.5q-14 0 -30 0.5t-36 2.5v116q11 -1 20 -1.5t17 -0.5h29q38 0 70.5 6t67.5 14v391h134v-544q0 -38 14 -52t46 -14h19v-111q-27 -3 -46 -3q-46 0 -78 12.5t-51.5 34.5t-28.5 52.5t-9 66.5v55z" />
    <glyph glyph-name="uni027C" unicode="&#x27c;" horiz-adv-x="421" 
d="M57 -197v692l134 40v-32q33 12 67 18.5t71 6.5q14 0 30 -0.5t36 -2.5v-116q-11 1 -20 1.5t-17 0.5h-29q-38 0 -70.5 -6t-67.5 -14v-588h-134z" />
    <glyph glyph-name="uni027D" unicode="&#x27d;" horiz-adv-x="421" 
d="M57 495l134 40v-32q33 12 67 18.5t71 6.5q14 0 30 -0.5t36 -2.5v-116q-11 1 -20 1.5t-17 0.5h-29q-38 0 -70.5 -6t-67.5 -14v-410q0 -38 14 -52t46 -14h19v-111q-27 -3 -46 -3q-46 0 -78 12.5t-51.5 34.5t-28.5 52.5t-9 66.5v528z" />
    <glyph glyph-name="uni027E" unicode="&#x27e;" horiz-adv-x="270" 
d="M65 359q0 36 8.5 66.5t28 52.5t51.5 34t78 12q9 0 20.5 -0.5t25.5 -1.5v-111h-17q-32 0 -46.5 -14t-14.5 -52v-345h-134v359z" />
    <glyph glyph-name="uni027F" unicode="&#x27f;" horiz-adv-x="280" 
d="M212 -197h-134v542q0 38 -14.5 52t-46.5 14h-17v111q13 1 24.5 1.5t21.5 0.5q46 0 78 -12t51.5 -34t28 -52.5t8.5 -66.5v-556z" />
    <glyph glyph-name="uni0280" unicode="&#x280;" horiz-adv-x="500" 
d="M351 0l-92 168h-63v-168h-127v524h212q94 0 139.5 -39.5t45.5 -134.5q0 -125 -78 -161l105 -189h-142zM273 274q63 0 63 76q0 38 -15.5 53t-47.5 15h-77v-144h77z" />
    <glyph glyph-name="uni0281" unicode="&#x281;" horiz-adv-x="500" 
d="M493 524l-105 -189q78 -36 78 -161q0 -95 -45.5 -134.5t-139.5 -39.5h-212v524h127v-168h63l92 168h142zM196 250v-144h77q32 0 47.5 15t15.5 53q0 76 -63 76h-77z" />
    <glyph glyph-name="uni0282" unicode="&#x282;" horiz-adv-x="500" 
d="M45 126q56 -16 103.5 -22t84.5 -6q54 0 78.5 11.5t24.5 40.5q0 13 -5.5 22t-18 15.5t-33 12.5t-50.5 13q-96 22 -143.5 58t-47.5 107q0 42 15.5 71t42.5 47t63.5 26.5t78.5 8.5q49 0 98 -8.5t98 -20.5v-103q-56 12 -105.5 18.5t-93.5 6.5q-73 0 -73 -41q0 -24 23.5 -36
t77.5 -23q100 -21 148.5 -60t48.5 -111q0 -86 -58.5 -124t-163.5 -38q-15 0 -34 1.5t-39 3.5v-29q0 -34 10 -50t22 -22q14 -7 32 -4h10.5t11.5 2l1 -86q-16 -2 -28.5 -3.5t-25.5 -1.5q-80 0 -116.5 43.5t-36.5 121.5v159v0z" />
    <glyph glyph-name="uni0283" unicode="&#x283;" horiz-adv-x="300" 
d="M90 572q0 36 8.5 66.5t28 52.5t51.5 34t78 12q9 0 20.5 -0.5t25.5 -1.5v-111h-17q-32 0 -46.5 -14t-14.5 -52v-590q0 -36 -8.5 -66.5t-28 -52.5t-51.5 -34.5t-78 -12.5q-21 0 -46 3v111h17q32 0 46.5 14t14.5 52v590z" />
    <glyph glyph-name="uni0284" unicode="&#x284;" horiz-adv-x="300" 
d="M90 572q0 36 8.5 66.5t28 52.5t51.5 34t78 12q9 0 20.5 -0.5t25.5 -1.5v-111h-17q-32 0 -46.5 -14t-14.5 -52v-467h62v-91h-62v-32q0 -36 -8.5 -66.5t-28 -52.5t-51.5 -34.5t-78 -12.5q-21 0 -46 3v111h17q32 0 46.5 14t14.5 52v18h-75v91h75v481z" />
    <glyph glyph-name="uni0285" unicode="&#x285;" horiz-adv-x="300" 
d="M224 -18q0 -38 14.5 -52t46.5 -14h17v-111q-27 -3 -46 -3q-46 0 -78 12.5t-51.5 34.5t-28 52.5t-8.5 66.5v383q0 38 -14.5 52t-46.5 14h-17v111q13 1 24.5 1.5t21.5 0.5q46 0 78 -12t51.5 -34t28 -52.5t8.5 -66.5v-383z" />
    <glyph glyph-name="uni0286" unicode="&#x286;" horiz-adv-x="420" 
d="M189 572q0 36 8.5 66.5t28 52.5t51.5 34t78 12q9 0 20.5 -0.5t25.5 -1.5v-111h-17q-32 0 -46.5 -14t-14.5 -52v-560q9 -9 18.5 -18t20.5 -21.5t24 -29.5t30 -41l-77 -86q-8 10 -19.5 24.5t-30.5 34.5q-39 -59 -127 -59q-155 0 -155 143q0 30 11 55.5t30.5 44t46 28.5
t58.5 10q19 0 36 -3v492zM156 -100q35 0 40 66q-29 17 -50 17q-14 0 -23.5 -10t-9.5 -27q0 -46 43 -46z" />
    <glyph glyph-name="uni0287" unicode="&#x287;" horiz-adv-x="428" 
d="M26 658q33 11 68 16.5t67 5.5q43 0 73.5 -13t50 -36t28.5 -54t9 -67v-257h92v-110h-92v-132l-132 -40v172h-147v110h147v259q0 32 -8.5 45.5t-40.5 13.5q-17 0 -48.5 -5t-66.5 -13v105z" />
    <glyph glyph-name="uni0288" unicode="&#x288;" horiz-adv-x="410" 
d="M403 -174q-34 -11 -69 -17t-67 -6q-42 0 -72.5 13t-50 36.5t-28.5 54.5t-9 67v441h-92v110h92v132l132 40v-172h147v-110h-147v-443q0 -32 8.5 -45.5t40.5 -13.5q17 0 48.5 5t66.5 13v-105z" />
    <glyph glyph-name="uni0289" unicode="&#x289;" 
d="M62 319v176l134 40v-216h191v206h133v-206h65v-91h-65v-228h-133v27q-38 -14 -75.5 -24t-72.5 -10q-36 0 -68.5 9t-56.5 29t-38 51.5t-14 77.5v68h-62v91h62zM258 104q32 0 64 8t65 19v97h-191v-75q0 -26 15.5 -37.5t46.5 -11.5z" />
    <glyph glyph-name="uni028A" unicode="&#x28a;" horiz-adv-x="580" 
d="M453 436q48 -38 68 -87t20 -102q0 -52 -16.5 -98t-47.5 -80.5t-77 -54.5t-104 -20q-59 0 -106 19t-80 53.5t-50.5 82.5t-17.5 105t21 102t50 80h-80v89h239v-77q-44 -26 -74.5 -75.5t-30.5 -113.5q0 -32 8 -61.5t23.5 -52t39.5 -36t57 -13.5q32 0 55 14t38 37t22 52.5
t7 59.5q0 64 -30.5 113.5t-73.5 75.5v77h237v-89h-97z" />
    <glyph glyph-name="uni028B" unicode="&#x28b;" horiz-adv-x="547" 
d="M492 358q0 -190 -59.5 -279.5t-180.5 -89.5q-55 0 -92.5 14.5t-61 43t-34 69.5t-10.5 94v315h128v-315q1 -24 3 -45t8.5 -36t20.5 -24t40 -9q55 0 82.5 61t27.5 193q0 68 -46 68h-35l14 113h37q158 0 158 -173z" />
    <glyph glyph-name="uni028C" unicode="&#x28c;" horiz-adv-x="524" 
d="M3 0l180 525h158l180 -525h-129l-129 390l-129 -390h-131z" />
    <glyph glyph-name="uni028D" unicode="&#x28d;" horiz-adv-x="820" 
d="M689 0l-99 390l-99 -390h-159l-99 390l-99 -390h-131l150 525h158l100 -421l101 421h158l150 -525h-131z" />
    <glyph glyph-name="uni028E" unicode="&#x28e;" horiz-adv-x="520" 
d="M3 0l268 727h122l-72 -206l195 -521h-124l-130 355l-128 -355h-131z" />
    <glyph glyph-name="uni028F" unicode="&#x28f;" horiz-adv-x="560" 
d="M350 0h-139v195l-205 330h151l123 -202l124 202h151l-205 -331v-194z" />
    <glyph glyph-name="uni0290" unicode="&#x290;" horiz-adv-x="540" 
d="M340 0h-292v102l253 311h-251v112h419v-94l-257 -319h262v-131q0 -38 14 -52t46 -14h19v-111q-27 -3 -46 -3q-46 0 -78 12.5t-51.5 34.5t-28.5 52.5t-9 66.5v33z" />
    <glyph glyph-name="uni0291" unicode="&#x291;" horiz-adv-x="670" 
d="M50 525h419v-94l-257 -319h104q48 75 95.5 110t96.5 35q63 0 99.5 -34t36.5 -94q0 -58 -38 -93.5t-98 -35.5h-122q-11 -20 -22 -43.5t-18 -39.5l-103 45q2 5 6 17t8 21h-209v102l253 311h-251v112zM536 135q0 24 -20 24q-13 0 -30 -11t-39 -36h69q20 0 20 23z" />
    <glyph glyph-name="uni0292" unicode="&#x292;" horiz-adv-x="480" 
d="M454 42q0 -56 -11.5 -100t-38 -74.5t-69 -46.5t-103.5 -16q-47 0 -85 14.5t-65.5 41.5t-42.5 66.5t-15 90.5h128q0 -43 22 -74t58 -31q50 0 71 35.5t21 93.5q0 66 -38.5 96t-116.5 30v88l132 159h-250v110h396v-108l-131 -153q34 -12 60 -34t43 -51t26 -64t9 -73z" />
    <glyph glyph-name="uni0293" unicode="&#x293;" horiz-adv-x="520" 
d="M204 -92q41 0 72 22q-53 33 -100 33q-17 0 -27.5 -5.5t-10.5 -15.5q0 -8 6 -14t16 -10.5t21.5 -7t22.5 -2.5zM471 42q0 -20 -4.5 -45t-18.5 -55q15 -15 31.5 -32.5t27.5 -29.5l-71 -79l-61 49q-33 -23 -76 -35.5t-96 -12.5q-89 0 -137 38t-48 105q0 57 42.5 94t117.5 37
q42 0 80.5 -11t79.5 -37q1 2 2 6.5t1 7.5q0 66 -38.5 96t-116.5 30v88l132 159h-250v110h396v-108l-131 -153q34 -12 60 -34t43 -51t26 -64t9 -73z" />
    <glyph glyph-name="uni0294" unicode="&#x294;" horiz-adv-x="470" 
d="M139 230q0 30 7 52t20.5 41t33.5 37t46 40q25 19 40 47.5t15 70.5q0 51 -23 76t-77 25q-35 0 -80 -8t-96 -22v106q114 39 196 39q44 0 82.5 -11t67 -34.5t45 -59t16.5 -84.5q-1 -69 -25.5 -127t-81.5 -106q-29 -24 -46.5 -44.5t-17.5 -47.5v-220h-122v230z" />
    <glyph glyph-name="uni0295" unicode="&#x295;" horiz-adv-x="470" 
d="M323 0h-122v220q0 27 -17.5 47.5t-46.5 44.5q-57 48 -82 106t-25 127q0 49 16.5 84.5t45 59t67 34.5t82.5 11q82 0 196 -39v-106q-51 14 -96 22t-80 8q-54 0 -77 -25t-23 -76q0 -42 15 -70.5t40 -47.5q26 -22 46 -40t33.5 -37t20.5 -41t7 -52v-230z" />
    <glyph glyph-name="uni0296" unicode="&#x296;" horiz-adv-x="470" 
d="M148 728h122v-220q0 -27 17.5 -47.5t46.5 -44.5q57 -48 81.5 -106t25.5 -127q0 -49 -16.5 -84.5t-45 -59t-67 -34.5t-82.5 -11q-82 0 -196 39v106q51 -14 96 -22t80 -8q54 0 77 25t23 76q0 42 -15 70.5t-40 47.5q-26 22 -46 40t-33.5 37t-20.5 41t-7 52v230z" />
    <glyph glyph-name="uni0297" unicode="&#x297;" horiz-adv-x="550" 
d="M512 -2q-15 -89 -74.5 -142.5t-152.5 -53.5q-61 0 -107 20.5t-77 57.5t-46.5 86.5t-15.5 108.5v189q0 65 16.5 116.5t48 87.5t77.5 55t104 19q188 0 222 -191l-134 -18q-11 52 -33 72.5t-51 20.5q-54 0 -82 -37.5t-28 -122.5v-189q0 -85 27 -122.5t78 -37.5q37 0 61 26
t33 89l137 -16z" />
    <glyph glyph-name="uni0298" unicode="&#x298;" horiz-adv-x="687" 
d="M343 111q86 0 121 61.5t35 188.5q0 125 -35 191t-121 66t-121 -65.5t-35 -191.5q0 -127 35 -188.5t121 -61.5zM343 -5q-83 0 -139 23.5t-90.5 70t-49.5 114.5t-15 158t15 159.5t49.5 117t90.5 72t139 24.5q82 0 138.5 -24.5t91 -72t49.5 -117t15 -159.5t-15 -158
t-49.5 -114.5t-91 -70t-138.5 -23.5zM275 426h134v-126h-134v126z" />
    <glyph glyph-name="uni0299" unicode="&#x299;" horiz-adv-x="535" 
d="M316 525q94 0 133.5 -34.5t39.5 -109.5q0 -32 -15.5 -63t-48.5 -47q12 -5 26 -11.5t25.5 -20t19.5 -35.5t8 -57q0 -42 -13 -70.5t-36.5 -45.5t-57 -24t-75.5 -7h-252v525h246zM294 318q29 0 46.5 10.5t17.5 38.5q0 32 -17.5 43t-46.5 11h-96v-103h96zM308 107
q29 0 46.5 15t17.5 44q0 32 -17.5 43.5t-46.5 11.5h-110v-114h110z" />
    <glyph glyph-name="uni029A" unicode="&#x29a;" horiz-adv-x="540" 
d="M43 156q0 81 60 125q-23 20 -33.5 42.5t-10.5 51.5q0 34 13.5 64t38.5 52.5t60 35t78 12.5q58 0 105 -19t80 -54.5t51 -86.5t18 -115q0 -65 -18 -116.5t-51 -86.5t-80 -53.5t-105 -18.5q-48 0 -86.5 12.5t-65 34.5t-40.5 53t-14 67zM171 159q0 -17 7 -29t18 -20t24.5 -12
t26.5 -4q25 0 48 9.5t40 30t27 52.5t10 78q0 78 -32 123.5t-90 45.5q-25 0 -41.5 -14.5t-16.5 -40.5q0 -16 4.5 -26.5t18 -16.5t38 -8.5t65.5 -2.5v-105q-5 0 -12.5 0.5l-15 1t-14 1t-9.5 0.5q-96 0 -96 -63z" />
    <glyph glyph-name="uni029B" unicode="&#x29b;" horiz-adv-x="560" 
d="M509 305v-254q-53 -28 -105.5 -43.5t-106.5 -15.5q-60 0 -105 20t-76 55.5t-46.5 85t-15.5 109.5q0 62 15.5 112t46.5 85.5t76 54.5t105 19q11 0 23 -0.5t24 -1.5v41q0 36 8.5 66.5t28 52.5t51.5 34t78 12q9 0 20.5 -0.5t25.5 -1.5v-111h-17q-32 0 -46.5 -14t-14.5 -52
v-156q-93 24 -157 24q-34 0 -59 -8t-41 -27.5t-24 -51t-8 -77.5q0 -86 29.5 -124.5t86.5 -38.5q23 0 44.5 3t43.5 8v87h-125v108h241z" />
    <glyph glyph-name="uni029C" unicode="&#x29c;" horiz-adv-x="583" 
d="M389 214h-194v-214h-138v525h138v-195h194v195h138v-525h-138v214z" />
    <glyph glyph-name="uni029D" unicode="&#x29d;" horiz-adv-x="440" 
d="M358 -22q-9 -87 -54 -131.5t-124 -44.5q-82 0 -126.5 41.5t-44.5 104.5q0 30 10 55t29 43.5t47.5 29t64.5 10.5h65v438h134v-438h70v-108h-71zM225 727h134v-127h-134v127zM153 -22q-11 0 -20 -8t-9 -25q0 -20 14.5 -29t36.5 -9q23 0 36.5 16.5t13.5 54.5h-72z" />
    <glyph glyph-name="uni029E" unicode="&#x29e;" horiz-adv-x="550" 
d="M479 525v-722h-134v378l-184 -180h-170l263 256l-262 268h166l187 -189v189h134z" />
    <glyph glyph-name="uni029F" unicode="&#x29f;" horiz-adv-x="440" 
d="M59 0v525h138v-409h222l-45 -116h-315z" />
    <glyph glyph-name="uni02A0" unicode="&#x2a0;" horiz-adv-x="590" 
d="M375 572q0 37 8.5 67t28 52t51 34t77.5 12q11 0 23.5 -0.5t26.5 -1.5v-111h-21q-32 0 -46.5 -14t-14.5 -52v-714l-133 -40v207q-32 -9 -60 -13.5t-54 -4.5q-63 0 -105 20.5t-68 57t-37 87t-11 110.5t11 108.5t36.5 83t66.5 53t102 18.5q35 0 64.5 -8t54.5 -19v68z
M375 395q-51 25 -104 25q-29 0 -47.5 -11.5t-28.5 -31.5t-13.5 -48t-3.5 -61t4 -62.5t14.5 -52.5t28.5 -36.5t47 -13.5h6q23 0 48.5 3t48.5 11v278z" />
    <glyph glyph-name="uni02A1" unicode="&#x2a1;" horiz-adv-x="470" 
d="M139 203v27q0 30 7 52t20.5 41t33.5 37t46 40q25 19 40 47.5t15 70.5q0 51 -23 76t-77 25q-35 0 -80 -8t-96 -22v106q114 39 196 39q44 0 82.5 -11t67 -34.5t45 -59t16.5 -84.5q-1 -69 -25.5 -127t-81.5 -106q-29 -24 -46.5 -44.5t-17.5 -47.5v-17h75v-91h-75v-112h-122
v112h-74v91h74z" />
    <glyph glyph-name="uni02A2" unicode="&#x2a2;" horiz-adv-x="470" 
d="M404 203v-91h-74v-112h-122v112h-75v91h75v17q0 27 -17.5 47.5t-46.5 44.5q-57 48 -82 106t-25 127q0 49 16.5 84.5t45 59t67 34.5t82.5 11q82 0 196 -39v-106q-51 14 -96 22t-80 8q-54 0 -77 -25t-23 -76q0 -42 15 -70.5t40 -47.5q26 -22 46 -40t33.5 -37t20.5 -41
t7 -52v-27h74z" />
    <glyph glyph-name="uni02A3" unicode="&#x2a3;" horiz-adv-x="950" 
d="M263 530q29 0 56 -5t59 -13v200l133 40v-227h400v-94l-257 -319h275l-43 -112h-508v28q-24 -15 -58.5 -25.5t-66.5 -10.5q-59 0 -99 19t-65 54t-35.5 84t-10.5 110q0 60 11 110t36.5 85.5t68 55.5t104.5 20zM378 399q-28 8 -56 13.5t-48 5.5q-29 0 -47 -13t-28.5 -34.5
t-14 -50.5t-3.5 -61q0 -34 3.5 -62.5t13.5 -49.5t28.5 -32.5t47.5 -11.5q23 0 53.5 9t50.5 22v265zM511 413v-285l232 285h-232z" />
    <glyph glyph-name="uni02A4" unicode="&#x2a4;" horiz-adv-x="906" 
d="M867 42q0 -56 -11.5 -100t-38 -74.5t-69 -46.5t-103.5 -16q-62 0 -108.5 24.5t-72.5 72.5l113 58q11 -21 28 -34t40 -13q50 0 71 35.5t21 93.5q0 66 -38.5 96t-116.5 30v88l132 159h-203v-415h-133v28q-24 -15 -58.5 -25.5t-66.5 -10.5q-59 0 -99 19t-65 54t-35.5 84
t-10.5 110q0 60 11 110t36.5 85.5t68 55.5t104.5 20q29 0 56 -5t59 -13v200l133 40v-227h349v-108l-131 -153q34 -12 60 -34t43 -51t26 -64t9 -73zM378 399q-28 8 -56 13.5t-48 5.5q-29 0 -47 -13t-28.5 -34.5t-14 -50.5t-3.5 -61q0 -34 3.5 -62.5t13.5 -49.5t28.5 -32.5
t47.5 -11.5q23 0 53.5 9t50.5 22v265z" />
    <glyph glyph-name="uni02A5" unicode="&#x2a5;" horiz-adv-x="1100" 
d="M1085 129q0 -58 -38 -93.5t-98 -35.5h-122q-11 -20 -22 -43.5t-18 -39.5l-103 45q2 5 6 17t8 21h-320v28q-24 -15 -58.5 -25.5t-66.5 -10.5q-59 0 -99 19t-65 54t-35.5 84t-10.5 110q0 60 11 110t36.5 85.5t68 55.5t104.5 20q29 0 56 -5t59 -13v200l133 40v-227h399v-94
l-257 -319h104q48 75 95.5 110t96.5 35q63 0 99.5 -34t36.5 -94zM378 399q-28 8 -56 13.5t-48 5.5q-29 0 -47 -13t-28.5 -34.5t-14 -50.5t-3.5 -61q0 -34 3.5 -62.5t13.5 -49.5t28.5 -32.5t47.5 -11.5q23 0 53.5 9t50.5 22v265zM511 413v-284l231 284h-231zM977 135
q0 24 -20 24q-13 0 -30 -11t-39 -36h69q20 0 20 23z" />
    </font>
</defs>
</svg>
